<?xml version="1.0" encoding="UTF-8"?>
<svg id="Camada_2" data-name="Camada 2" xmlns="http://www.w3.org/2000/svg" viewBox="0 0 1240.63 2083.91">
  <defs>
    <style>
      .cls-1 {
        fill: #fff;
        fill-rule: evenodd;
      }
    </style>
  </defs>
  <g id="Camada_1-2" data-name="Camada 1">
    <g>
      <path class="cls-1" d="M291.01,1832.88c0,8.43-3.16,13.57-12.26,15.81l-16.34,3.95v29.39h113.06v-29.39l-24.51-3.95c-9.09-1.45-11.2-6.46-11.2-15.81v-44.8h43.09c49.42,0,92.38-26.49,92.38-86.71s-42.7-86.84-92.38-86.84h-120.84v29.39l17.13,3.69c9.22,1.98,11.73,7.64,11.73,16.87l.13,168.41h0ZM422.65,1701.23c0,32.94-16.87,49.81-44.41,49.81h-38.22v-99.62h38.22c27.54,0,44.41,16.87,44.41,49.81h0ZM967.28,1830.11c-20.43,8.96-42.04,14.36-61.8,14.36-42.43,0-77.09-24.51-77.09-95.93,0-52.18,10.15-99.1,62.07-99.1,11.6,0,23.72,2.37,38.35,7.77l7.77,39.01h35.98l5.93-64.18c-31.1-17-54.82-21.22-78.93-21.22-89.08,0-123.74,62.33-123.74,140.34,0,98.57,55.74,133.75,115.57,133.75,29.65,0,56.4-6.46,83.02-18.98l-7.12-35.84h0ZM623.48,1885.59c60.49,0,99.49-32.29,99.49-89.87v-134.02c0-8.7,4.61-12.65,10.94-13.97l17.92-3.82v-29.39h-107.4v29.39l18.05,3.82c6.33,1.32,10.94,5.53,10.94,13.97v128.09c0,44.94-24.91,56.8-50.08,56.8s-50.08-11.86-50.08-56.8v-128.09c0-8.57,4.61-12.65,10.94-13.97l18.05-3.82v-29.39h-107.4v29.39l17.92,3.82c6.46,1.32,10.94,5.27,10.94,13.97v134.02c.26,57.59,39.14,89.87,99.75,89.87h0ZM726.53,2083.91c38.35,0,62.2-28.86,62.2-68.13,0-42.17-20.95-68.92-62.2-68.92-38.35,0-62.33,29.65-62.33,68.92,0,42.04,20.95,68.13,62.33,68.13h0ZM726.53,2064.54c-24.25,0-35.05-19.24-35.05-48.76s11.46-49.55,35.05-49.55,35.05,20.03,35.05,49.55-10.81,48.76-35.05,48.76h0ZM590.93,2082.07v-14.63l8.3-1.98c4.61-1.05,6.19-3.69,6.19-7.91v-83.94c0-4.61-1.32-7.38-5.8-8.43l-8.57-1.84v-14.63h51.79v14.63l-8.57,1.84c-4.61,1.05-5.8,3.95-5.8,8.43v83.94c0,4.22,1.58,6.85,6.06,7.91l8.3,1.98v14.63h-51.92ZM495,2058.08v-27.67h8.43c5.27,0,8.57,3.56,10.67,6.46l23.06,31.36c6.98,9.49,16.08,15.55,26.22,15.55,5.01,0,10.28-1.32,15.55-4.22v-16.47c-1.45.79-5.8,1.45-8.57,1.45-4.61,0-8.83-3.43-14.5-10.81l-15.42-20.16c-3.69-4.88-7.91-6.72-12.26-7.51,9.75-1.71,31.63-9.62,31.63-37.16s-18.84-40.32-47.04-40.32h-56.66v14.63l8.57,1.84c4.61,1.05,5.8,3.95,5.8,8.43v83.94c0,4.22-1.58,6.85-6.06,7.91l-8.3,1.98v14.63h56.53v-14.63l-12.26-1.98c-4.22-.66-5.4-3.16-5.4-7.25h0ZM495,1967.16h16.21c12.78,0,23.32,7.77,23.32,21.87s-7.91,22.93-23.32,22.93h-16.21v-44.8h0Z"/>
      <path class="cls-1" d="M620.31,542.39h-320.88v465.43c0,144.95,79.33,154.57,164.46,176.45,63.25,16.21,111.75,41.25,156.42,89.61,44.67-48.49,93.17-73.4,156.42-89.61,85.13-22.01,164.46-31.49,164.46-176.58v-465.3h-320.88ZM574.46,528.95c16.74-14.76,21.35-37.16,22.27-57.19h-68.66c-1.32,22.93-12.65,43.75-30.44,57.19h76.83ZM666.17,528.95c-16.74-14.76-21.35-37.16-22.27-57.19h68.66c1.32,22.93,12.65,43.75,30.44,57.19h-76.83ZM997.72,497.32l-56.14,31.63h-92.77l277.92-156.02c6.72-3.82,14.63-3.82,21.08-.53,8.57,3.95,14.23,14.36,12.39,23.59-.92,6.72-5.01,12.91-11.33,16.6l-14.5,8.17,63.52,113.46c4.22,7.51,1.45,13.18-3.69,16.08l-47.97,26.88-40.19-71.69,28.2-15.81-11.73-21.08-28.2,15.81-17.53-31.23-21.48,11.99,17.53,31.23-28.2,15.81,11.86,21.08,28.2-15.81,40.19,71.82-47.97,26.88c-5.8,3.29-11.33,2.24-15.55-5.27l-63.65-113.59h0ZM191.65,956.83c19.5,0,35.32,15.81,35.32,35.32s-15.81,35.32-35.32,35.32-35.32-15.81-35.32-35.32c0-19.5,15.81-35.32,35.32-35.32h0ZM76.47,955.25c19.5,0,35.32,15.81,35.32,35.32s-15.81,35.32-35.32,35.32-35.32-15.81-35.32-35.32,15.81-35.32,35.32-35.32h0ZM135.38,856.28c19.5,0,35.32,15.81,35.32,35.32s-15.81,35.32-35.32,35.32-35.32-15.81-35.32-35.32,15.81-35.32,35.32-35.32h0ZM286.13,847.06l-74.45,41.77c-.4-11.73-3.56-23.59-9.75-34.53-20.56-36.77-67.21-49.94-103.97-29.25-32.42,18.19-46.52,56.4-35.32,90.53-8.04,1.45-16.08,4.35-23.59,8.57-36.77,20.69-49.94,67.21-29.25,103.97,20.56,36.63,67.21,49.81,103.97,29.12,7.51-4.22,14.1-9.62,19.63-15.68,23.19,27.28,63.12,35.32,95.54,17.13,36.77-20.69,49.94-67.21,29.25-103.97-6.19-10.94-14.63-19.9-24.38-26.36l52.18-29.25.13-52.05h0ZM914.7,377.28v-40.85h15.68v-14.76h-15.68v-19.24h-15.94v19.24h-15.68v14.76h15.68v40.85h15.94ZM941.19,402.05v-136.39h-14.76v18.45h-12.12v-18.45h-14.76v18.45h-12.12v-18.45h-15.02v176.32c0,26.22-4.48,51.79-22.8,71.69l45.86-26.49c33.6-19.5,45.73-42.04,45.73-85.13h0ZM325.79,377.28v-40.85h-15.68v-14.76h15.68v-19.24h15.94v19.24h15.68v14.76h-15.68v40.85h-15.94ZM299.44,402.05c0,43.09,12.12,65.49,45.73,85l45.86,26.49c-18.45-19.77-22.8-45.46-22.8-71.69v-176.19h-14.76v18.45h-12.12v-18.45h-14.76v18.45h-12.12v-18.45h-14.76l-.26,136.39h0ZM255.29,1356.38c1.05-1.32,2.9-2.37,5.67-3.16,2.77-.79,4.61-.92,5.4-.13.26.26.79,1.19,1.45,2.64,1.98,4.74,4.61,8.43,7.77,10.94,5.27,4.22,9.49,4.22,12.78.13,1.45-1.71,1.71-3.95,1.05-6.46-.66-2.5-1.84-5.27-3.56-8.04-1.58-2.77-3.16-5.8-4.61-8.83-1.32-3.03-1.98-6.59-1.58-10.41.26-3.82,1.98-7.64,5.01-11.46,3.03-3.69,6.59-6.19,10.67-7.25,7.51-1.98,15.02,0,22.67,6.06,4.22,3.43,7.38,6.85,9.22,10.41,1.98,3.56,2.37,6.06,1.19,7.51-.92,1.19-2.77,2.37-5.27,3.29s-4.22,1.05-5.14.4c-.13-.13-.53-.79-1.05-1.84-1.32-2.77-3.69-5.4-6.59-7.64-2.9-2.24-5.4-3.43-7.38-3.29s-3.56.92-4.74,2.37c-1.19,1.45-1.45,3.56-.66,6.06.66,2.5,1.98,5.14,3.56,7.91,1.58,2.77,3.16,5.67,4.61,8.83,1.45,3.03,1.98,6.59,1.71,10.41-.26,3.82-1.84,7.51-4.61,11.07-2.77,3.56-5.67,6.06-8.7,7.64-3.03,1.58-6.06,2.37-9.09,2.24-5.8-.26-11.46-2.5-16.87-6.72-5.4-4.22-9.22-8.7-11.6-13.18-2.11-4.74-2.5-7.91-1.32-9.49h0ZM225.78,1334.63c-1.58,1.71-.92,3.95,2.11,6.98l2.64,2.64c3.03,3.03,5.4,3.69,7.12,1.98l48.1-48.89c1.58-1.58.92-4.09-2.11-6.98l-2.64-2.64c-3.03-3.03-5.4-3.69-7.12-1.98l-48.1,48.89h0ZM185.45,1287.32l51.92-42.96c1.71-1.45,4.09-.53,6.72,2.77l2.37,2.77c2.77,3.29,3.16,5.67,1.45,7.12l-44.54,36.77,15.29,18.45c1.32,1.58.66,3.69-2.11,5.93l-2.5,2.11c-2.77,2.24-4.88,2.64-6.19.92l-23.06-27.8c-1.71-2.24-1.58-4.22.66-6.06h0ZM172.01,1225.13l8.83,13.44,12.52-15.68,4.88-5.14-.26-.4c-3.16,1.32-5.4,2.11-6.59,2.5l-19.37,5.27h0ZM135.77,1219.59c-1.32.79-.79,3.16,1.71,6.72l2.37,3.56c1.58,2.37,3.16,3.29,4.61,2.9l13.31-3.69,13.97,21.08-8.57,10.81c-1.05,1.32-.53,3.29,1.45,6.19l2.64,3.95c1.98,3.03,3.69,3.95,4.88,3.16.53-.26,1.05-.79,1.45-1.32l44.41-57.72c.92-1.32.4-3.43-1.45-6.33l-3.03-4.61c-1.98-2.9-3.69-4.22-5.27-3.82l-70.37,18.45c-1.19.26-1.84.53-2.11.66h0ZM333.7,1449.41c-104.63-53.9-204.65-164.46-242.07-265.53l103.58-55.08c37.29,82.49,95.01,157.34,184.36,205.18l-45.86,115.44h0ZM906.93,1449.41l-45.86-115.44c89.34-47.83,146.93-122.82,184.36-205.18l103.58,55.08c-37.56,101.07-137.44,211.63-242.07,265.53h0ZM1068.88,1272.04c2.37,1.71,4.35,1.32,5.93-1.05l20.95-29.39c1.19-1.71.4-3.69-2.5-5.67l-2.64-1.98c-2.9-2.11-5.01-2.24-6.19-.53l-13.84,19.5-47.04-33.47c-1.84-1.32-4.09-.26-6.59,3.29l-2.11,2.9c-2.5,3.43-2.77,5.93-.92,7.25l54.95,39.14h0ZM1041.08,1307.62c1.84,1.58,4.09.66,6.85-2.64l2.37-2.9c2.77-3.29,3.29-5.67,1.45-7.12l-52.32-44.28c-1.84-1.58-4.09-.66-6.85,2.64l-2.37,2.9c-2.77,3.29-3.29,5.67-1.45,7.25l52.32,44.15h0ZM976.37,1371.13c1.58,1.71,3.95,1.05,6.98-1.84l2.24-2.11c3.16-2.9,3.95-5.14,2.37-6.85l-29.39-31.89,50.87,12.91c2.24.53,4.61-.4,7.12-2.64l3.03-2.77c3.16-2.9,3.95-5.27,2.37-6.85l-46.39-50.47c-1.58-1.71-3.95-1.05-6.98,1.84l-2.24,2.11c-3.16,2.9-3.95,5.14-2.37,6.85l28.99,31.49-50.08-12.78c-2.24-.53-4.61.4-7.12,2.64l-3.43,3.16c-3.16,2.9-3.95,5.14-2.37,6.85l46.39,50.34h0ZM620.31,1446.91c-79.2,0-170.91-19.11-245.89-59.04l44.15-116.75c64.97,31.23,140.47,50.87,201.75,50.87s136.78-19.63,201.75-50.87l44.15,116.75c-75.11,39.93-166.7,59.04-245.89,59.04h0ZM746.95,1400.12c.79,2.77,2.64,3.69,5.4,2.77l39.4-12.39c1.98-.66,2.5-2.77,1.45-6.06l-.92-3.16c-1.05-3.43-2.64-4.74-4.61-4.22l-27.67,8.7-5.14-16.6,24.91-7.91c1.98-.66,2.5-2.77,1.45-6.06l-1.05-3.16c-1.05-3.43-2.64-4.74-4.61-4.22l-24.91,7.91-4.61-14.89,27.67-8.7c1.98-.66,2.5-2.77,1.45-6.06l-.92-3.16c-1.05-3.43-2.64-4.74-4.61-4.22l-39.27,12.26c-2.77.79-3.69,2.64-2.77,5.4l19.37,63.78h0ZM651.94,1348.34c0,.26.26.92.79,1.84l34.13,64.18c.79,1.45,2.9,1.84,6.33,1.19l5.53-.92c3.43-.53,5.27-1.58,5.53-3.16l11.6-71.69c.13-.79.13-1.45,0-1.98-.26-1.58-2.5-1.98-6.72-1.32l-3.29.53c-3.43.53-5.4,1.98-5.67,4.09l-7.64,52.05-.4.13-23.59-46.91c-.92-1.84-3.29-2.64-6.72-1.98l-3.56.53c-4.48.66-6.59,1.84-6.33,3.43h0ZM614.12,1391.56l16.08-.13-6.19-18.98-1.71-6.85h-.4c-.66,3.43-1.19,5.67-1.58,6.85l-6.19,19.11h0ZM589.61,1418.84c0,1.58,2.24,2.37,6.59,2.37h4.35c2.77,0,4.48-.79,4.88-2.24l4.22-13.05,25.3-.13,4.35,13.05c.53,1.45,2.5,2.24,6.06,2.24h4.74c3.56,0,5.4-.79,5.27-2.37,0-.53-.13-1.19-.26-1.98l-24.12-68.66c-.53-1.45-2.64-2.24-6.06-2.24h-5.53c-3.56,0-5.53.79-6.06,2.24l-23.06,69.05c-.53.79-.66,1.45-.66,1.71h0ZM542.7,1371.66l10.15,1.32c2.24.26,4.22-.4,6.06-1.98,1.84-1.58,2.9-3.69,3.29-6.06.4-2.37-.26-4.61-1.58-6.33s-3.56-2.64-6.19-3.03l-9.36-1.19-2.37,17.26h0ZM521.22,1409.61c-.26,2.24,1.71,3.69,5.93,4.22l3.69.4c4.22.53,6.59-.26,6.85-2.64l3.29-25.96,4.22.53c3.16.4,5.4,1.19,6.72,2.37s2.64,2.9,3.29,5.4l5.67,21.74c.4,1.58,2.37,2.5,5.93,3.03l4.35.53c4.22.53,6.46.13,6.59-1.32,0-.4,0-1.05-.26-2.11l-6.33-24.51c-.66-2.37-1.58-4.61-2.77-6.72-1.19-2.11-2.37-3.43-3.69-4.09v-.4c3.95-.92,7.38-2.77,9.88-5.4,2.5-2.64,4.22-6.06,4.61-9.88,1.71-13.31-6.19-21.08-23.85-23.32l-20.69-2.64c-2.9-.4-4.48.92-4.74,3.69l-8.7,67.07h0ZM447.16,1352.82c-3.69,12.65-3.56,22.8.26,30.44,3.82,7.64,11.46,13.05,22.93,16.34,4.74,1.32,9.88,2.24,15.02,2.77,2.9.26,5.4.13,7.38-.53,2.11-.66,3.43-1.84,3.82-3.43l8.17-28.6c.79-2.77-.13-4.48-2.9-5.27l-20.95-6.06c-2.11-.53-3.56.79-4.61,4.22l-.92,3.29c-1.05,3.43-.4,5.4,1.58,6.06l9.09,2.64-3.82,13.05c-2.77-.26-5.53-.79-8.17-1.58-11.73-3.29-15.29-12.91-10.81-28.33,4.48-15.55,12.65-21.61,24.51-18.19,5.14,1.45,9.36,3.69,12.65,6.33,1.19.92,1.84,1.45,1.98,1.45,1.19.26,3.03-.53,5.4-2.5,2.37-1.98,3.69-3.82,4.09-5.27.53-1.98-1.32-4.35-5.8-7.12-4.48-2.77-9.22-4.88-14.1-6.33-22.8-6.72-37.69,2.24-44.8,26.62h0ZM954.5,847.06l74.45,41.77c.4-11.73,3.56-23.59,9.75-34.53,20.69-36.77,67.21-49.94,103.97-29.25,32.42,18.19,46.52,56.4,35.32,90.53,8.04,1.45,16.08,4.35,23.59,8.57,36.77,20.69,49.94,67.21,29.25,103.97-20.69,36.77-67.21,49.94-103.97,29.25-7.51-4.22-14.1-9.62-19.63-15.68-23.19,27.28-63.12,35.32-95.54,17.13-36.77-20.69-49.94-67.21-29.25-103.97,6.19-10.94,14.63-19.9,24.38-26.36l-52.18-29.25v-52.18h-.13ZM242.12,497.32l-63.52,113.33c-4.22,7.51-9.75,8.43-15.55,5.27l-48.1-26.88,40.19-71.82,28.2,15.81,11.86-21.08-28.2-15.81,17.53-31.23-21.48-11.99-17.53,31.23-28.2-15.81-11.73,21.08,28.2,15.81-40.19,71.69-47.97-26.88c-5.14-2.9-7.91-8.57-3.69-16.08l63.52-113.46-14.5-8.17c-6.46-3.56-10.41-9.88-11.33-16.6-1.71-9.22,3.82-19.63,12.39-23.59,6.46-3.16,14.36-3.29,21.22.53l277.92,156.02h-92.77l-56.27-31.36h0ZM620.31,422.74c-16.21,0-29.91-8.04-37.69-21.74-7.77,13.7-21.48,21.74-37.42,21.74s-29.65-8.04-37.42-21.74c-3.95,6.98-9.75,12.91-16.87,16.74l7.64,17.66c6.72,15.55,15.55,23.72,29.25,23.72h184.75c13.57,0,22.4-8.04,29.25-23.72l7.64-17.66c-7.12-3.82-12.78-9.75-16.87-16.74-7.77,13.7-21.48,21.74-37.42,21.74s-29.65-8.04-37.42-21.74c-7.51,13.7-21.22,21.74-37.42,21.74h0ZM620.31,300.71c8.3,14.76,23.06,23.19,40.06,23.19s31.76-8.43,40.06-23.19c8.3,14.76,23.72,23.19,40.06,23.19s29.39-6.98,37.95-19.9c-.92,38.74-12.26,72.74-23.98,102.13-9.09-5.53-15.42-11.2-15.42-26.09h17.53v-13.7h-17v-17.26h-13.7v17.26h-16.87v13.7h17.39c0,14.76-13.7,30.18-31.1,30.18s-31.1-14.76-31.1-30.18h17.66v-13.7h-17v-17.26h-13.7v17.26h-16.87v13.7h17.53c0,15.29-13.57,30.18-31.49,30.18s-31.49-15.02-31.49-30.18h17.53v-13.7h-16.87v-17.26h-13.7v17.26h-17v13.7h17.66c0,15.42-13.57,30.18-31.1,30.18s-31.1-15.42-31.1-30.18h17.53v-13.7h-16.87v-17.26h-13.7v17.26h-17v13.7h17.53c0,14.89-6.33,20.56-15.42,26.09-11.73-29.39-23.06-63.38-23.98-102.13,8.7,12.91,21.74,19.9,38.08,19.9s31.76-8.43,40.06-23.19c8.3,14.76,23.06,23.19,40.06,23.19,16.74,0,31.49-8.43,39.8-23.19h0ZM620.31,226.52c-16.21,0-29.91-8.04-37.69-21.74-7.77,13.7-18.58,21.74-37.42,21.74s-39.4-11.73-43.22-34.66c-16.34,20.16-27.41,37.16-34.13,61.93-1.05,3.95-1.98,8.04-2.77,11.99h18.84v13.57h-17.66c0,14.89,15.55,32.02,33.87,32.02s33.87-17.26,33.87-32.02h-17.53v-13.7h16.87v-17.39h13.7v17.39h17v13.7h-17.53c0,14.89,15.29,32.02,33.87,32.02s33.87-17.13,33.87-32.02h-17.53v-13.7h16.87v-17.39h13.7v17.39h16.87v13.7h-17.53c0,14.89,15.29,32.02,33.87,32.02s33.87-17.13,33.87-32.02h-17.53v-13.7h16.87v-17.39h13.7v17.39h16.87v13.7h-17.53c0,14.76,15.55,32.02,33.87,32.02s33.87-17.13,33.87-32.02h-17.53v-13.7h18.84c-.79-4.09-1.71-8.04-2.77-11.99-6.72-24.64-17.79-41.77-34.13-61.93-3.69,22.93-24.38,34.66-43.22,34.66s-29.52-8.04-37.42-21.74c-8.04,13.7-21.74,21.87-37.95,21.87h0ZM640.74,118.99c28.07,13.57,57.06,32.94,77.35,51h-9.22v13.7h17.53c0,15.55-13.57,30.18-31.1,30.18s-31.1-14.5-31.1-30.05h17.53v-13.7h-17v-17.39h-13.7v17.39h-16.87v13.7h17.53c0,15.42-13.57,30.18-31.49,30.18s-31.49-14.89-31.49-30.18h17.53v-13.7h-16.87v-17.39h-13.7v17.39h-16.87v13.7h17.53c0,15.55-13.57,30.18-31.1,30.18s-31.1-14.76-31.1-30.18h17.53v-13.7h-9.22c20.29-18.05,49.42-37.42,77.35-51-2.24-3.69-3.56-8.04-3.56-12.65,0-8.96,5.01-16.87,12.26-20.95v-31.1h-29.25v-22.93h29.25V0h23.46v31.49h29.25v22.93h-29.25v31.1c7.38,4.09,12.26,11.99,12.26,20.95.13,4.61-1.05,8.96-3.43,12.52h0ZM1048.98,956.83c-19.5,0-35.32,15.81-35.32,35.32s15.81,35.32,35.32,35.32,35.32-15.81,35.32-35.32-15.81-35.32-35.32-35.32h0ZM1164.16,955.25c-19.5,0-35.32,15.81-35.32,35.32s15.81,35.32,35.32,35.32,35.32-15.81,35.32-35.32-15.81-35.32-35.32-35.32h0ZM1105.25,856.28c-19.5,0-35.32,15.81-35.32,35.32s15.81,35.32,35.32,35.32,35.32-15.81,35.32-35.32-15.81-35.32-35.32-35.32h0ZM620.31,1083.99c-16.47,0-31.36,12.65-48.1,28.6-18.84,17.92-43.35,38.08-72.87,30.18l37.69-41.11c-14.76-4.88-30.57,2.11-49.02,10.54-18.98,7.51-39.53,15.68-62.59,2.5l54.82-30.44c-22.8-19.37-82.62,18.19-107.13-17.79l81.04-16.74c-17.26-25.7-82.23-3.16-98.31-43.88h93.03c-12.78-29.25-85.65-14.76-97.65-60.62l97.65,13.7c-12.65-33.34-82.36-29.39-97.65-80.78l97.65,30.31c-8.3-36.9-86.84-42.43-97.65-103.18l97.65,47.18c-7.64-46.91-88.95-56.27-97.65-121.89l100.02,57.06c-1.19-45.86-94.75-69.05-100.02-138.23l101.47,69.31c-2.77-57.32-94.35-79.86-101.47-150.49l103.18,62.73c47.7,28.99,71.16,57.98,94.22,118.47,17.39,45.59,36.9,85.13,71.69,85.13s54.29-39.53,71.69-85.13c23.06-60.49,46.52-89.48,94.22-118.47l103.18-62.73c-6.98,70.63-98.57,93.17-101.34,150.49l101.34-69.31c-5.27,69.18-98.83,92.38-100.02,138.23l100.02-57.06c-8.57,65.62-89.87,74.98-97.65,121.89l97.65-47.18c-10.81,60.62-89.34,66.28-97.65,103.18l97.65-30.31c-15.29,51.39-85,47.44-97.65,80.78l97.65-13.7c-11.99,45.73-84.86,31.36-97.65,60.62h93.03c-16.08,40.85-81.04,18.19-98.31,43.88l81.04,16.74c-24.38,35.97-84.21-1.58-107.13,17.79l54.82,30.44c-23.06,13.18-43.62,5.01-62.59-2.5-18.32-8.43-34.13-15.29-49.02-10.54l37.69,41.11c-29.39,7.91-54.03-12.26-72.87-30.18-16.74-15.94-31.63-28.6-48.1-28.6h0ZM626.9,869.46h136.39v180.4h-136.39v-180.4h0ZM477.21,869.46h136.39v180.4h-136.39v-180.4h0ZM539.8,906.89h10.41c4.48,0,6.98.4,8.43,4.22l33.6,89.74c.53,1.32.66,2.24.66,2.64,0,2.11-3.03,3.16-9.22,3.16h-3.95c-3.95,0-6.33-1.05-6.98-3.03l-6.06-17.39h-42.96l-6.06,17.39c-.66,1.98-3.03,3.03-6.98,3.03h-3.82c-6.19,0-9.22-1.05-9.22-3.16,0-.4.13-1.32.66-2.64l33.6-89.74c1.71-3.82,3.43-4.22,7.91-4.22h0ZM545.47,927.84h.66l14.76,40.85h-30.84l14.76-40.85h.66ZM695.16,903.33c29.78,0,45.46,25.43,45.46,46.25,0,14.63-5.4,27.67-18.71,38.48l16.74-.53c2.9-.13,5.14,1.71,5.14,6.06v5.67c0,4.74-1.71,6.59-4.48,6.59h-34.26c-2.77,0-4.35-1.32-4.35-5.8v-6.06c0-2.77,1.32-4.35,2.5-5.4,10.81-9.36,17.13-20.82,17.39-34.92.13-15.29-8.04-30.57-25.43-30.57s-25.7,15.29-25.43,30.57c.13,14.23,6.46,25.56,17.39,34.92,1.05.92,2.5,2.64,2.5,5.4v6.06c0,4.35-1.45,5.8-4.35,5.8h-34.26c-2.77,0-4.48-1.71-4.48-6.59v-5.67c0-4.35,2.24-6.19,5.14-6.06l16.74.53c-13.44-10.81-18.71-23.85-18.71-38.48-.13-20.95,15.68-46.25,45.46-46.25Z"/>
    </g>
  </g>
</svg>