<svg version="1.1" id="Layer_1" xmlns="http://www.w3.org/2000/svg" xmlns:xlink="http://www.w3.org/1999/xlink" x="0px" y="0px"
	 width="100%" viewBox="0 0 2048 1912" enable-background="new 0 0 2048 1912" xml:space="preserve">
<path fill="#FFFFFF" opacity="1.000000" stroke="none" 
	d="
M2049.000000,1002.000000 
	C2049.000000,1119.688721 2049.000000,1237.377319 2048.937500,1355.323975 
	C2048.875000,1355.581909 2048.441650,1355.531128 2047.992676,1355.425293 
	C1965.825684,1376.341675 1884.107544,1397.364014 1802.241943,1418.424194 
	C1801.738892,1417.000977 1801.341553,1416.099121 1801.098267,1415.157349 
	C1792.372925,1381.365845 1783.681030,1347.565674 1774.943481,1313.777344 
	C1765.415283,1276.932251 1755.773926,1240.115845 1746.406616,1203.229980 
	C1745.454346,1199.480347 1743.828125,1198.696167 1740.523804,1199.344727 
	C1735.721802,1200.287354 1730.832642,1200.863647 1726.098511,1202.061890 
	C1664.212036,1217.727295 1603.132324,1236.027832 1543.162354,1257.983887 
	C1391.414307,1313.541504 1249.935303,1387.721802 1123.712524,1489.475830 
	C1091.950317,1515.080811 1060.694214,1541.313599 1028.984375,1567.439941 
	C1028.412598,1567.021851 1027.312500,1566.300781 1026.304443,1565.468384 
	C1006.398071,1549.028198 986.247253,1532.872681 966.648621,1516.072998 
	C879.997314,1441.796509 784.700012,1380.736816 682.536499,1330.259399 
	C566.461243,1272.908447 445.038940,1230.315186 319.257812,1199.946655 
	C312.755737,1198.376831 309.671082,1200.283691 307.970673,1207.028931 
	C293.954865,1262.628784 279.954773,1318.232788 265.938141,1373.832520 
	C262.211029,1388.616821 258.443390,1403.390991 254.677032,1418.238037 
	C253.284958,1418.000488 252.287460,1417.907837 251.331833,1417.656250 
	C201.832321,1404.618042 152.342850,1391.541504 102.837608,1378.524902 
	C69.256142,1369.695190 35.653072,1360.947754 1.804378,1352.060303 
	C1.366067,1351.971313 1.183033,1351.985718 1.000000,1352.000000 
	C1.000000,1234.311279 1.000000,1116.622681 1.229398,998.572083 
	C1.621969,998.169312 1.785144,998.128418 2.236401,998.326904 
	C68.026024,1015.025940 133.527557,1031.485718 199.238754,1047.998169 
	C218.920792,974.474976 238.462128,901.477478 258.032684,828.370789 
	C259.147186,828.613770 259.774536,828.720276 260.385101,828.888062 
	C293.227783,837.912598 326.305878,846.166809 358.867676,856.111572 
	C473.536713,891.132751 582.225037,939.572266 684.118225,1002.974426 
	C751.620300,1044.976929 814.449829,1093.093506 872.533325,1147.367554 
	C907.052063,1179.622437 937.166809,1216.005737 968.913757,1250.861084 
	C986.526184,1270.198242 1004.628052,1289.090698 1022.589661,1308.107666 
	C1026.800415,1312.565918 1028.641724,1312.399536 1032.686646,1308.018433 
	C1050.546265,1288.674683 1068.358643,1269.287109 1086.281616,1250.002319 
	C1136.683228,1195.770996 1188.881958,1143.381836 1245.235352,1095.262329 
	C1321.123291,1030.462646 1404.942383,977.999268 1494.950317,935.282166 
	C1581.795654,894.066040 1672.066406,862.152771 1764.799805,837.066040 
	C1775.962891,834.046143 1787.187012,831.252075 1798.606689,828.295410 
	C1817.639160,901.877441 1836.521973,974.880798 1855.435425,1048.002930 
	C1856.569214,1047.858765 1857.394653,1047.832275 1858.180542,1047.642456 
	C1883.444946,1041.540649 1908.712402,1035.451538 1933.964355,1029.299194 
	C1954.700195,1024.247192 1975.401611,1019.053650 1996.146973,1014.041687 
	C2013.387695,1009.876343 2030.670166,1005.883789 2048.200439,1001.861938 
	C2048.644531,1001.939514 2048.822266,1001.969788 2049.000000,1002.000000 
z"/>
<path fill="#FFFFFF" opacity="1.000000" stroke="none" 
	d="
M2049.000000,405.000000 
	C2049.000000,522.688660 2049.000000,640.377380 2048.817871,758.313110 
	C2048.463135,758.640808 2048.290771,758.721497 2047.698975,758.770630 
	C2046.624756,758.856812 2045.958984,758.932922 2045.316406,759.098511 
	C1972.244873,777.919312 1899.176147,796.750305 1826.104126,815.568970 
	C1818.153931,817.616394 1810.185913,819.593994 1802.227173,821.603760 
	C1801.723022,820.227905 1801.365112,819.469727 1801.164551,818.671997 
	C1788.069336,766.612549 1774.998047,714.546997 1761.896851,662.489075 
	C1757.353638,644.436462 1752.687500,626.414612 1748.197510,608.348938 
	C1747.274170,604.633423 1745.775879,602.322205 1741.447754,602.969849 
	C1735.251709,603.897156 1728.770508,603.776428 1722.852295,605.564331 
	C1679.931274,618.531372 1636.918091,631.245422 1594.316772,645.207520 
	C1491.249878,678.986328 1392.269775,722.188293 1298.094238,776.137695 
	C1212.482788,825.181091 1131.760010,881.048523 1058.937622,947.929932 
	C1048.804810,957.236206 1038.048096,965.862976 1027.496338,974.875732 
	C1025.699707,973.286560 1024.464355,972.201538 1023.237244,971.107483 
	C1002.969727,953.036865 983.121460,934.468750 962.364929,916.978577 
	C866.355347,836.077087 760.308960,770.970276 646.697144,717.979370 
	C547.191406,671.567810 443.863129,635.830994 337.634003,608.322632 
	C329.026184,606.093628 320.380768,604.009766 311.588837,601.817566 
	C292.491302,675.335571 273.547089,748.263367 254.588821,821.245239 
	C253.165970,821.045471 252.329987,821.004456 251.533508,820.805359 
	C184.454849,804.041626 117.385323,787.241272 50.299076,770.507996 
	C34.184296,766.488525 18.014681,762.688904 1.611946,758.673645 
	C1.235740,758.706055 1.117870,758.853027 1.000000,759.000000 
	C1.000000,641.311340 1.000000,523.622620 1.391918,405.458618 
	C12.454417,407.459503 23.122475,409.946686 33.796009,412.410126 
	C85.057861,424.241241 136.317459,436.082214 187.589310,447.869934 
	C193.183502,449.156067 198.851212,450.122467 204.653854,451.270660 
	C222.611755,378.927307 240.454163,307.049286 258.497620,234.361252 
	C264.611725,235.354507 270.569611,235.867935 276.287842,237.323059 
	C323.318115,249.290955 369.853821,262.977753 415.610016,279.151703 
	C502.311707,309.799103 585.617554,347.780457 664.629822,395.028015 
	C738.092896,438.957306 806.694580,489.373993 867.649292,549.538818 
	C904.871155,586.278442 940.352661,624.783569 976.531311,662.576660 
	C991.740540,678.464539 1006.611084,694.677551 1021.884460,710.502563 
	C1027.515137,716.336548 1028.394165,716.089478 1033.797607,710.432678 
	C1075.350098,666.931458 1116.734863,623.269043 1158.433594,579.908386 
	C1218.958008,516.971436 1285.784302,461.677734 1359.677856,415.024811 
	C1428.345337,371.671417 1500.489380,335.120850 1575.821411,304.887115 
	C1600.855591,294.839844 1625.952026,284.797577 1651.533447,276.298370 
	C1691.530029,263.009735 1731.945068,250.975693 1772.227539,238.555237 
	C1780.813477,235.907883 1789.591431,233.882385 1798.474487,231.518921 
	C1818.216797,305.158478 1837.773438,378.105286 1857.355713,451.148071 
	C1921.648926,435.666260 1985.324463,420.333130 2049.000000,405.000000 
z"/>
<path fill="#FFFFFF" opacity="1.000000" stroke="none" 
	d="
M2049.000000,1595.000000 
	C2049.000000,1700.983765 2049.000000,1806.967407 2049.000000,1912.975586 
	C1366.454346,1912.975586 683.908569,1912.975586 1.000000,1912.975586 
	C1.000000,1807.304199 1.000000,1701.608032 1.259843,1595.466553 
	C1.689962,1594.988770 1.860238,1594.956177 2.381277,1595.081787 
	C10.296474,1597.019409 17.853121,1598.832642 25.426783,1600.571655 
	C50.975246,1606.438477 76.550667,1612.189453 102.076492,1618.152954 
	C131.344467,1624.990601 160.558289,1632.060059 189.827301,1638.893433 
	C194.608887,1640.009766 199.553955,1640.425903 204.662247,1641.201782 
	C222.551865,1568.975220 240.329681,1497.199951 258.467010,1423.973145 
	C300.458435,1436.087280 342.189178,1447.271606 383.372894,1460.198730 
	C452.900391,1482.022705 520.302307,1509.365601 585.379272,1542.224609 
	C642.169128,1570.899292 696.836304,1603.161743 748.328491,1640.639038 
	C796.640991,1675.802246 841.257996,1715.295044 884.620056,1756.319702 
	C923.652039,1793.247803 959.386108,1833.228516 995.160950,1873.214111 
	C1004.361145,1883.496826 1014.552490,1892.910400 1024.574097,1902.422241 
	C1026.107788,1903.877930 1029.729980,1904.844116 1031.450317,1904.038330 
	C1035.097534,1902.329956 1038.509521,1899.671387 1041.330688,1896.740845 
	C1046.986328,1890.866089 1052.174805,1884.542114 1057.566528,1878.412598 
	C1099.183960,1831.100830 1142.186768,1785.125854 1187.678955,1741.474365 
	C1274.148926,1658.502686 1371.799805,1591.669922 1479.086792,1538.692749 
	C1572.390991,1492.619873 1669.826660,1457.779907 1770.646118,1432.257446 
	C1779.767578,1429.948364 1788.941040,1427.844604 1798.319580,1425.590332 
	C1818.083984,1497.765747 1837.688354,1569.356201 1857.395508,1641.322021 
	C1861.668213,1640.406860 1865.696289,1639.646484 1869.673218,1638.676636 
	C1911.530273,1628.469116 1953.382812,1618.243408 1995.228271,1607.988892 
	C2012.819458,1603.677856 2030.390747,1599.285400 2048.226318,1594.976685 
	C2048.654297,1595.015625 2048.827148,1595.007812 2049.000000,1595.000000 
z"/>
<path fill="#030053" opacity="1.000000" stroke="none" 
	d="
M2049.000000,404.531342 
	C1985.324463,420.333130 1921.648926,435.666260 1857.355713,451.148071 
	C1837.773438,378.105286 1818.216797,305.158478 1798.474487,231.518921 
	C1789.591431,233.882385 1780.813477,235.907883 1772.227539,238.555237 
	C1731.945068,250.975693 1691.530029,263.009735 1651.533447,276.298370 
	C1625.952026,284.797577 1600.855591,294.839844 1575.821411,304.887115 
	C1500.489380,335.120850 1428.345337,371.671417 1359.677856,415.024811 
	C1285.784302,461.677734 1218.958008,516.971436 1158.433594,579.908386 
	C1116.734863,623.269043 1075.350098,666.931458 1033.797607,710.432678 
	C1028.394165,716.089478 1027.515137,716.336548 1021.884460,710.502563 
	C1006.611084,694.677551 991.740540,678.464539 976.531311,662.576660 
	C940.352661,624.783569 904.871155,586.278442 867.649292,549.538818 
	C806.694580,489.373993 738.092896,438.957306 664.629822,395.028015 
	C585.617554,347.780457 502.311707,309.799103 415.610016,279.151703 
	C369.853821,262.977753 323.318115,249.290955 276.287842,237.323059 
	C270.569611,235.867935 264.611725,235.354507 258.497620,234.361252 
	C240.454163,307.049286 222.611755,378.927307 204.653854,451.270660 
	C198.851212,450.122467 193.183502,449.156067 187.589310,447.869934 
	C136.317459,436.082214 85.057861,424.241241 33.796009,412.410126 
	C23.122475,409.946686 12.454417,407.459503 1.391918,404.991638 
	C1.000000,324.312439 1.000000,243.624878 1.411686,162.513138 
	C2.322070,162.073105 2.849204,161.942383 3.315405,162.057816 
	C35.856831,170.113892 68.402786,178.151978 100.928162,186.272491 
	C150.539261,198.658783 200.142044,211.078552 249.724243,223.579712 
	C252.945892,224.391998 254.417740,224.057892 255.316757,220.455750 
	C260.463409,199.834091 265.878448,179.279465 271.194305,158.699997 
	C278.115509,131.905762 285.085480,105.123985 291.927582,78.309563 
	C297.066437,58.170418 301.747101,37.908863 307.240875,17.868793 
	C309.138733,10.945856 309.797852,7.719263 318.833282,9.132557 
	C328.914764,10.709470 339.000031,12.748699 348.795197,15.583352 
	C386.501617,26.495335 424.234680,37.354694 461.675110,49.132359 
	C485.198181,56.532028 508.243317,65.461334 531.457520,73.830299 
	C574.725464,89.428864 616.730469,108.015068 658.210022,127.811157 
	C703.963928,149.647141 748.795837,173.250351 791.809875,200.106201 
	C819.551453,217.426666 846.951111,235.331711 873.979614,253.744476 
	C893.176208,266.821838 911.854980,280.729340 930.114563,295.093109 
	C950.533630,311.155640 970.361023,327.983856 990.168884,344.804962 
	C1001.817505,354.697174 1012.973755,365.173218 1024.242065,375.505951 
	C1026.583984,377.653503 1028.262695,378.087524 1030.894775,375.822418 
	C1037.797974,369.881805 1045.020630,364.314636 1052.000122,358.460388 
	C1061.666748,350.352051 1071.321655,342.224823 1080.802979,333.902130 
	C1088.222290,327.389435 1095.078979,320.212372 1102.704590,313.963654 
	C1114.858521,304.004272 1127.238647,294.292511 1139.893311,284.978973 
	C1160.544556,269.780304 1181.020874,254.267136 1202.432129,240.196930 
	C1231.805786,220.894287 1261.798950,202.509842 1291.887085,184.328293 
	C1309.572266,173.641510 1327.748901,163.713394 1346.081421,154.167831 
	C1365.681030,143.962524 1385.630249,134.411026 1405.600708,124.940742 
	C1423.879761,116.272621 1442.110474,107.398079 1460.860107,99.850311 
	C1495.201294,86.026115 1529.733887,72.631409 1564.519897,59.973492 
	C1591.754883,50.063324 1619.389648,41.207355 1647.042480,32.505211 
	C1667.196167,26.163008 1687.583130,20.504692 1708.034302,15.188881 
	C1718.740845,12.405981 1729.805298,10.993402 1740.717163,9.011469 
	C1745.102173,8.214986 1747.104614,10.868992 1748.045410,14.562058 
	C1755.409912,43.472134 1762.623169,72.421021 1770.074585,101.308548 
	C1780.296875,140.938049 1790.799072,180.495895 1800.838379,220.171249 
	C1801.875244,224.268845 1803.499390,224.474472 1806.588257,223.727127 
	C1833.831177,217.135880 1861.076172,210.553360 1888.311035,203.929260 
	C1918.220093,196.654785 1948.109131,189.298737 1978.025269,182.053955 
	C2001.302734,176.416916 2024.608154,170.895996 2047.909424,165.771439 
	C2047.945190,185.107864 2047.947144,203.996414 2048.042969,222.884491 
	C2048.051758,224.591232 2048.666748,226.294891 2049.000000,228.000000 
	C2049.000000,286.687561 2049.000000,345.375122 2049.000000,404.531342 
z"/>
<path fill="#FFFFFF" opacity="1.000000" stroke="none" 
	d="
M2047.901123,165.323425 
	C2024.608154,170.895996 2001.302734,176.416916 1978.025269,182.053955 
	C1948.109131,189.298737 1918.220093,196.654785 1888.311035,203.929260 
	C1861.076172,210.553360 1833.831177,217.135880 1806.588257,223.727127 
	C1803.499390,224.474472 1801.875244,224.268845 1800.838379,220.171249 
	C1790.799072,180.495895 1780.296875,140.938049 1770.074585,101.308548 
	C1762.623169,72.421021 1755.409912,43.472134 1748.045410,14.562058 
	C1747.104614,10.868992 1745.102173,8.214986 1740.717163,9.011469 
	C1729.805298,10.993402 1718.740845,12.405981 1708.034302,15.188881 
	C1687.583130,20.504692 1667.196167,26.163008 1647.042480,32.505211 
	C1619.389648,41.207355 1591.754883,50.063324 1564.519897,59.973492 
	C1529.733887,72.631409 1495.201294,86.026115 1460.860107,99.850311 
	C1442.110474,107.398079 1423.879761,116.272621 1405.600708,124.940742 
	C1385.630249,134.411026 1365.681030,143.962524 1346.081421,154.167831 
	C1327.748901,163.713394 1309.572266,173.641510 1291.887085,184.328293 
	C1261.798950,202.509842 1231.805786,220.894287 1202.432129,240.196930 
	C1181.020874,254.267136 1160.544556,269.780304 1139.893311,284.978973 
	C1127.238647,294.292511 1114.858521,304.004272 1102.704590,313.963654 
	C1095.078979,320.212372 1088.222290,327.389435 1080.802979,333.902130 
	C1071.321655,342.224823 1061.666748,350.352051 1052.000122,358.460388 
	C1045.020630,364.314636 1037.797974,369.881805 1030.894775,375.822418 
	C1028.262695,378.087524 1026.583984,377.653503 1024.242065,375.505951 
	C1012.973755,365.173218 1001.817505,354.697174 990.168884,344.804962 
	C970.361023,327.983856 950.533630,311.155640 930.114563,295.093109 
	C911.854980,280.729340 893.176208,266.821838 873.979614,253.744476 
	C846.951111,235.331711 819.551453,217.426666 791.809875,200.106201 
	C748.795837,173.250351 703.963928,149.647141 658.210022,127.811157 
	C616.730469,108.015068 574.725464,89.428864 531.457520,73.830299 
	C508.243317,65.461334 485.198181,56.532028 461.675110,49.132359 
	C424.234680,37.354694 386.501617,26.495335 348.795197,15.583352 
	C339.000031,12.748699 328.914764,10.709470 318.833282,9.132557 
	C309.797852,7.719263 309.138733,10.945856 307.240875,17.868793 
	C301.747101,37.908863 297.066437,58.170418 291.927582,78.309563 
	C285.085480,105.123985 278.115509,131.905762 271.194305,158.699997 
	C265.878448,179.279465 260.463409,199.834091 255.316757,220.455750 
	C254.417740,224.057892 252.945892,224.391998 249.724243,223.579712 
	C200.142044,211.078552 150.539261,198.658783 100.928162,186.272491 
	C68.402786,178.151978 35.856831,170.113892 3.315405,162.057816 
	C2.849204,161.942383 2.322070,162.073105 1.411686,162.044479 
	C1.000000,108.343193 1.000000,54.686390 1.000000,1.046990 
	C683.666687,1.046990 1366.333374,1.046990 2049.000000,1.046990 
	C2049.000000,55.416882 2049.000000,109.739784 2048.711914,164.567169 
	C2048.249756,165.155563 2048.075439,165.239487 2047.901123,165.323425 
z"/>
<path fill="#464481" opacity="1.000000" stroke="none" 
	d="
M2048.118164,758.802185 
	C2048.290771,758.721497 2048.463135,758.640808 2048.817871,758.780029 
	C2049.000000,839.687561 2049.000000,920.375122 2049.000000,1001.531372 
	C2048.822266,1001.969788 2048.644531,1001.939514 2048.212158,1001.405273 
	C2047.971680,941.498779 2047.977173,882.096313 2048.004639,822.693787 
	C2048.014648,801.396606 2048.078857,780.099365 2048.118164,758.802185 
z"/>
<path fill="#464481" opacity="1.000000" stroke="none" 
	d="
M2.030515,1594.923462 
	C1.860238,1594.956177 1.689962,1594.988770 1.259843,1595.010620 
	C1.000000,1514.312378 1.000000,1433.624878 1.000000,1352.468628 
	C1.183033,1351.985718 1.366067,1351.971313 1.791018,1352.518311 
	C2.032129,1433.694092 2.031322,1514.308838 2.030515,1594.923462 
z"/>
<path fill="#464481" opacity="1.000000" stroke="none" 
	d="
M1.000000,759.468628 
	C1.117870,758.853027 1.235740,758.706055 1.656049,759.156189 
	C1.955099,839.197998 1.951708,918.642822 1.948318,998.087585 
	C1.785144,998.128418 1.621969,998.169312 1.229398,998.105103 
	C1.000000,918.645752 1.000000,839.291565 1.000000,759.468628 
z"/>
<path fill="#484682" opacity="1.000000" stroke="none" 
	d="
M2049.000000,1594.531372 
	C2048.827148,1595.007812 2048.654297,1595.015625 2048.237305,1594.512695 
	C2047.995239,1516.824341 2047.993774,1439.646606 2048.018555,1362.468994 
	C2048.019287,1360.156372 2048.294434,1357.843750 2048.441650,1355.531128 
	C2048.441650,1355.531128 2048.875000,1355.581909 2048.937500,1355.791016 
	C2049.000000,1435.354248 2049.000000,1514.708496 2049.000000,1594.531372 
z"/>
<path fill="#464481" opacity="1.000000" stroke="none" 
	d="
M2047.909424,165.771423 
	C2048.075439,165.239487 2048.249756,165.155563 2048.711914,165.035828 
	C2049.000000,185.687561 2049.000000,206.375122 2049.000000,227.531342 
	C2048.666748,226.294891 2048.051758,224.591232 2048.042969,222.884491 
	C2047.947144,203.996414 2047.945190,185.107864 2047.909424,165.771423 
z"/>
<path fill="#030053" opacity="1.000000" stroke="none" 
	d="
M2.236401,998.326904 
	C1.951708,918.642822 1.955099,839.197998 1.914386,759.270691 
	C18.014681,762.688904 34.184296,766.488525 50.299076,770.507996 
	C117.385323,787.241272 184.454849,804.041626 251.533508,820.805359 
	C252.329987,821.004456 253.165970,821.045471 254.588821,821.245239 
	C273.547089,748.263367 292.491302,675.335571 311.588837,601.817566 
	C320.380768,604.009766 329.026184,606.093628 337.634003,608.322632 
	C443.863129,635.830994 547.191406,671.567810 646.697144,717.979370 
	C760.308960,770.970276 866.355347,836.077087 962.364929,916.978577 
	C983.121460,934.468750 1002.969727,953.036865 1023.237244,971.107483 
	C1024.464355,972.201538 1025.699707,973.286560 1027.496338,974.875732 
	C1038.048096,965.862976 1048.804810,957.236206 1058.937622,947.929932 
	C1131.760010,881.048523 1212.482788,825.181091 1298.094238,776.137695 
	C1392.269775,722.188293 1491.249878,678.986328 1594.316772,645.207520 
	C1636.918091,631.245422 1679.931274,618.531372 1722.852295,605.564331 
	C1728.770508,603.776428 1735.251709,603.897156 1741.447754,602.969849 
	C1745.775879,602.322205 1747.274170,604.633423 1748.197510,608.348938 
	C1752.687500,626.414612 1757.353638,644.436462 1761.896851,662.489075 
	C1774.998047,714.546997 1788.069336,766.612549 1801.164551,818.671997 
	C1801.365112,819.469727 1801.723022,820.227905 1802.227173,821.603760 
	C1810.185913,819.593994 1818.153931,817.616394 1826.104126,815.568970 
	C1899.176147,796.750305 1972.244873,777.919312 2045.316406,759.098511 
	C2045.958984,758.932922 2046.624756,758.856812 2047.698975,758.770630 
	C2048.078857,780.099365 2048.014648,801.396606 2048.004639,822.693787 
	C2047.977173,882.096313 2047.971680,941.498779 2047.945801,1001.357971 
	C2030.670166,1005.883789 2013.387695,1009.876343 1996.146973,1014.041687 
	C1975.401611,1019.053650 1954.700195,1024.247192 1933.964355,1029.299194 
	C1908.712402,1035.451538 1883.444946,1041.540649 1858.180542,1047.642456 
	C1857.394653,1047.832275 1856.569214,1047.858765 1855.435425,1048.002930 
	C1836.521973,974.880798 1817.639160,901.877441 1798.606689,828.295410 
	C1787.187012,831.252075 1775.962891,834.046143 1764.799805,837.066040 
	C1672.066406,862.152771 1581.795654,894.066040 1494.950317,935.282166 
	C1404.942383,977.999268 1321.123291,1030.462646 1245.235352,1095.262329 
	C1188.881958,1143.381836 1136.683228,1195.770996 1086.281616,1250.002319 
	C1068.358643,1269.287109 1050.546265,1288.674683 1032.686646,1308.018433 
	C1028.641724,1312.399536 1026.800415,1312.565918 1022.589661,1308.107666 
	C1004.628052,1289.090698 986.526184,1270.198242 968.913757,1250.861084 
	C937.166809,1216.005737 907.052063,1179.622437 872.533325,1147.367554 
	C814.449829,1093.093506 751.620300,1044.976929 684.118225,1002.974426 
	C582.225037,939.572266 473.536713,891.132751 358.867676,856.111572 
	C326.305878,846.166809 293.227783,837.912598 260.385101,828.888062 
	C259.774536,828.720276 259.147186,828.613770 258.032684,828.370789 
	C238.462128,901.477478 218.920792,974.474976 199.238754,1047.998169 
	C133.527557,1031.485718 68.026024,1015.025940 2.236401,998.326904 
z"/>
<path fill="#030053" opacity="1.000000" stroke="none" 
	d="
M2047.992676,1355.425293 
	C2048.294434,1357.843750 2048.019287,1360.156372 2048.018555,1362.468994 
	C2047.993774,1439.646606 2047.995239,1516.824341 2047.981934,1594.465942 
	C2030.390747,1599.285400 2012.819458,1603.677856 1995.228271,1607.988892 
	C1953.382812,1618.243408 1911.530273,1628.469116 1869.673218,1638.676636 
	C1865.696289,1639.646484 1861.668213,1640.406860 1857.395508,1641.322021 
	C1837.688354,1569.356201 1818.083984,1497.765747 1798.319580,1425.590332 
	C1788.941040,1427.844604 1779.767578,1429.948364 1770.646118,1432.257446 
	C1669.826660,1457.779907 1572.390991,1492.619873 1479.086792,1538.692749 
	C1371.799805,1591.669922 1274.148926,1658.502686 1187.678955,1741.474365 
	C1142.186768,1785.125854 1099.183960,1831.100830 1057.566528,1878.412598 
	C1052.174805,1884.542114 1046.986328,1890.866089 1041.330688,1896.740845 
	C1038.509521,1899.671387 1035.097534,1902.329956 1031.450317,1904.038330 
	C1029.729980,1904.844116 1026.107788,1903.877930 1024.574097,1902.422241 
	C1014.552490,1892.910400 1004.361145,1883.496826 995.160950,1873.214111 
	C959.386108,1833.228516 923.652039,1793.247803 884.620056,1756.319702 
	C841.257996,1715.295044 796.640991,1675.802246 748.328491,1640.639038 
	C696.836304,1603.161743 642.169128,1570.899292 585.379272,1542.224609 
	C520.302307,1509.365601 452.900391,1482.022705 383.372894,1460.198730 
	C342.189178,1447.271606 300.458435,1436.087280 258.467010,1423.973145 
	C240.329681,1497.199951 222.551865,1568.975220 204.662247,1641.201782 
	C199.553955,1640.425903 194.608887,1640.009766 189.827301,1638.893433 
	C160.558289,1632.060059 131.344467,1624.990601 102.076492,1618.152954 
	C76.550667,1612.189453 50.975246,1606.438477 25.426783,1600.571655 
	C17.853121,1598.832642 10.296474,1597.019409 2.381277,1595.081787 
	C2.031322,1514.308838 2.032129,1433.694092 2.046296,1352.621582 
	C35.653072,1360.947754 69.256142,1369.695190 102.837608,1378.524902 
	C152.342850,1391.541504 201.832321,1404.618042 251.331833,1417.656250 
	C252.287460,1417.907837 253.284958,1418.000488 254.677032,1418.238037 
	C258.443390,1403.390991 262.211029,1388.616821 265.938141,1373.832520 
	C279.954773,1318.232788 293.954865,1262.628784 307.970673,1207.028931 
	C309.671082,1200.283691 312.755737,1198.376831 319.257812,1199.946655 
	C445.038940,1230.315186 566.461243,1272.908447 682.536499,1330.259399 
	C784.700012,1380.736816 879.997314,1441.796509 966.648621,1516.072998 
	C986.247253,1532.872681 1006.398071,1549.028198 1026.304443,1565.468384 
	C1027.312500,1566.300781 1028.412598,1567.021851 1028.984375,1567.439941 
	C1060.694214,1541.313599 1091.950317,1515.080811 1123.712524,1489.475830 
	C1249.935303,1387.721802 1391.414307,1313.541504 1543.162354,1257.983887 
	C1603.132324,1236.027832 1664.212036,1217.727295 1726.098511,1202.061890 
	C1730.832642,1200.863647 1735.721802,1200.287354 1740.523804,1199.344727 
	C1743.828125,1198.696167 1745.454346,1199.480347 1746.406616,1203.229980 
	C1755.773926,1240.115845 1765.415283,1276.932251 1774.943481,1313.777344 
	C1783.681030,1347.565674 1792.372925,1381.365845 1801.098267,1415.157349 
	C1801.341553,1416.099121 1801.738892,1417.000977 1802.241943,1418.424194 
	C1884.107544,1397.364014 1965.825684,1376.341675 2047.992676,1355.425293 
z"/>
</svg>