<svg version="1.1" id="Layer_1" xmlns="http://www.w3.org/2000/svg" xmlns:xlink="http://www.w3.org/1999/xlink" x="0px" y="0px"
	 width="100%" viewBox="0 0 2048 1912" enable-background="new 0 0 2048 1912" xml:space="preserve">
<path fill="#FFFFFF" opacity="1.000000" stroke="none" 
	d="
M1.000000,865.000000 
	C1.000000,739.310669 1.000000,613.621399 1.252134,487.654541 
	C1.669881,487.248108 1.835494,487.119202 2.366436,486.983032 
	C93.969902,444.804840 190.061279,423.833008 290.887512,420.503510 
	C290.887512,496.006317 290.887512,570.882019 290.887512,645.955261 
	C434.491760,645.942993 569.529846,612.480713 696.915283,548.044495 
	C824.187134,483.665833 931.588989,394.785278 1019.790161,282.307465 
	C1021.091431,283.885681 1021.901367,284.917847 1022.762695,285.905121 
	C1043.893799,310.125397 1064.085327,335.248810 1086.329956,358.399475 
	C1180.065186,455.952606 1289.381958,530.927246 1414.815430,582.040283 
	C1475.883057,606.924805 1539.264893,623.640442 1604.161743,634.800171 
	C1640.132202,640.985840 1676.300781,645.502991 1712.831177,646.704102 
	C1723.177856,647.044312 1733.467896,647.321106 1743.482910,644.003540 
	C1747.352417,642.721741 1749.140503,640.733337 1749.128174,636.112976 
	C1748.941528,566.115784 1748.997070,496.117950 1748.996216,426.120239 
	C1748.996216,424.333405 1748.996338,422.546570 1748.996338,420.571777 
	C1792.722534,422.407135 1835.580811,426.915436 1877.973267,435.251892 
	C1920.962769,443.705719 1963.006470,455.487274 2003.236694,473.085022 
	C2018.283569,479.666962 2033.045044,486.901489 2048.187500,493.977264 
	C2048.625732,494.077393 2048.812744,494.038696 2049.000000,494.000000 
	C2049.000000,618.355957 2049.000000,742.711914 2048.732910,867.577759 
	C2048.287842,868.117310 2048.110107,868.146973 2047.571533,868.044434 
	C2028.814697,862.749939 2010.437744,857.517090 1992.018188,852.439636 
	C1949.153320,840.623840 1905.819702,830.945374 1861.599976,825.940552 
	C1831.172241,822.496765 1800.651733,819.811096 1770.129272,817.315796 
	C1763.139160,816.744263 1755.916382,817.994446 1748.904053,819.076050 
	C1744.207275,819.800476 1741.998413,822.706055 1742.015381,828.214050 
	C1742.229736,897.873108 1742.156860,967.533142 1742.157349,1037.192871 
	C1742.157471,1039.145020 1742.157593,1041.097168 1742.157593,1043.266479 
	C1724.209595,1041.883179 1706.816040,1040.352295 1689.396118,1039.235107 
	C1634.046143,1035.685181 1580.557739,1023.410217 1528.426270,1004.909302 
	C1432.528198,970.875916 1348.562500,917.583008 1275.895874,846.609558 
	C1214.645142,786.785828 1166.145874,717.885742 1131.727783,639.298096 
	C1130.475220,636.438110 1129.634644,634.010986 1125.254395,633.990051 
	C1057.429443,633.665771 989.605652,633.098083 921.782288,632.506348 
	C916.746338,632.462341 912.338623,633.853149 909.525696,637.910339 
	C905.669434,643.472534 902.005920,649.255249 899.030457,655.321411 
	C894.211060,665.147278 890.750854,675.688416 885.443542,685.218506 
	C846.455383,755.227112 797.054993,816.965271 737.088257,870.166992 
	C695.584351,906.988708 650.504456,938.699402 601.415405,964.660339 
	C550.762085,991.448669 497.557587,1011.442688 441.783752,1024.498535 
	C408.036957,1032.398071 373.862732,1037.864380 339.315796,1040.782959 
	C325.567474,1041.944458 311.776794,1042.604614 297.398987,1043.532104 
	C297.398987,1041.184814 297.398956,1039.401855 297.398987,1037.618896 
	C297.400482,968.292480 297.402283,898.966003 297.403046,829.639587 
	C297.403107,821.650085 296.169098,819.912476 288.325989,818.078308 
	C285.272644,817.364258 282.055786,817.041687 278.917450,817.065735 
	C273.261230,817.109009 267.609619,817.586914 261.953308,817.815002 
	C212.103348,819.825378 162.606262,825.357178 113.951454,836.238464 
	C76.368507,844.643677 39.303288,855.363831 1.757925,865.004395 
	C1.338635,864.969299 1.169318,864.984680 1.000000,865.000000 
z"/>
<path fill="#FFFFFF" opacity="1.000000" stroke="none" 
	d="
M0.999995,1498.000000 
	C1.000000,1372.644043 1.000000,1247.287964 1.230164,1121.404541 
	C1.812222,1120.787354 2.012088,1120.562378 2.427264,1120.158447 
	C93.710815,1076.741577 189.929153,1056.419678 290.927551,1053.515137 
	C290.927551,1129.008057 290.927551,1204.026733 290.927551,1279.340332 
	C405.714355,1278.645752 515.792175,1257.086426 621.669739,1214.753052 
	C780.587708,1151.212646 912.783813,1052.098999 1016.962158,915.149414 
	C1019.543274,917.132690 1022.126892,918.674438 1024.150391,920.759827 
	C1029.250244,926.015625 1034.307129,931.341125 1039.006226,936.952576 
	C1051.934692,952.390625 1063.917969,968.690002 1077.609375,983.407410 
	C1147.388428,1058.415405 1227.763184,1119.803589 1317.897827,1168.449829 
	C1395.433105,1210.296143 1477.133301,1241.029053 1563.231079,1259.805786 
	C1605.246826,1268.968994 1647.830078,1274.638428 1690.698853,1277.787231 
	C1707.246704,1279.002808 1723.910767,1278.944702 1740.519409,1278.876831 
	C1747.179688,1278.849609 1748.998413,1276.045410 1748.998535,1269.321899 
	C1748.999146,1199.328247 1748.999268,1129.334473 1748.999634,1059.340820 
	C1748.999634,1057.542603 1748.999512,1055.744385 1748.999512,1053.812622 
	C1750.730591,1053.812622 1752.025757,1053.769165 1753.317261,1053.818970 
	C1791.807861,1055.301270 1830.046997,1059.164062 1867.967041,1066.007935 
	C1914.405884,1074.389038 1959.663330,1086.870483 2002.991699,1105.742065 
	C2018.190796,1112.361938 2033.001587,1119.873657 2048.238770,1127.148438 
	C2048.658447,1127.212402 2048.829346,1127.106201 2049.000000,1127.000000 
	C2049.000000,1251.355957 2049.000000,1375.712036 2048.618408,1500.706299 
	C2038.462158,1498.669067 2028.603394,1496.265137 2018.927246,1493.271484 
	C1975.506592,1479.838257 1931.460815,1469.127563 1886.582642,1461.795654 
	C1849.555054,1455.746216 1812.346191,1451.495239 1774.846802,1450.408691 
	C1765.990845,1450.152100 1757.042725,1451.862671 1748.194092,1453.082764 
	C1743.726318,1453.698608 1742.008179,1456.500854 1742.021851,1461.464600 
	C1742.211304,1530.125000 1742.149902,1598.786011 1742.149902,1667.446899 
	C1742.149902,1669.227173 1742.149902,1671.007446 1742.149902,1673.162964 
	C1740.869385,1673.162964 1740.075806,1673.150757 1739.282593,1673.164795 
	C1711.244995,1673.663574 1683.360107,1671.704956 1655.566284,1668.105591 
	C1614.693726,1662.812866 1574.787231,1653.374390 1535.845215,1639.961548 
	C1421.184814,1600.469116 1323.884888,1534.821289 1243.099121,1444.615967 
	C1196.695068,1392.801147 1159.332031,1335.033447 1131.249878,1271.341431 
	C1130.101318,1268.736450 1129.139404,1267.061279 1125.682129,1267.040771 
	C1057.523071,1266.636230 989.364929,1266.087036 921.207031,1265.518188 
	C915.348633,1265.469238 910.798523,1268.024902 907.600403,1272.548340 
	C904.647522,1276.724854 902.087097,1281.262695 899.952881,1285.916138 
	C895.940674,1294.664062 893.089905,1304.009766 888.488098,1312.412354 
	C839.974060,1400.997070 775.528137,1475.985474 695.186401,1537.195923 
	C619.043396,1595.207520 534.629456,1636.032837 441.265411,1657.738281 
	C404.063873,1666.386963 366.281860,1671.432983 328.084595,1672.901245 
	C318.002045,1673.288940 307.891968,1672.959961 297.401611,1672.959961 
	C297.401611,1670.787598 297.401611,1668.980957 297.401611,1667.174316 
	C297.401031,1598.346802 297.357086,1529.519287 297.508667,1460.692139 
	C297.517670,1456.604858 296.175171,1454.183838 292.511719,1453.453491 
	C285.862244,1452.127930 279.038147,1449.935669 272.441437,1450.383179 
	C239.725571,1452.602051 206.964066,1454.731201 174.402298,1458.485107 
	C137.026947,1462.793823 100.349091,1471.241821 64.001129,1480.952881 
	C42.982899,1486.568481 21.999226,1492.313354 0.999995,1498.000000 
z"/>
<path fill="#030053" opacity="1.000000" stroke="none" 
	d="
M0.999995,1498.333252 
	C21.999226,1492.313354 42.982899,1486.568481 64.001129,1480.952881 
	C100.349091,1471.241821 137.026947,1462.793823 174.402298,1458.485107 
	C206.964066,1454.731201 239.725571,1452.602051 272.441437,1450.383179 
	C279.038147,1449.935669 285.862244,1452.127930 292.511719,1453.453491 
	C296.175171,1454.183838 297.517670,1456.604858 297.508667,1460.692139 
	C297.357086,1529.519287 297.401031,1598.346802 297.401611,1667.174316 
	C297.401611,1668.980957 297.401611,1670.787598 297.401611,1672.959961 
	C307.891968,1672.959961 318.002045,1673.288940 328.084595,1672.901245 
	C366.281860,1671.432983 404.063873,1666.386963 441.265411,1657.738281 
	C534.629456,1636.032837 619.043396,1595.207520 695.186401,1537.195923 
	C775.528137,1475.985474 839.974060,1400.997070 888.488098,1312.412354 
	C893.089905,1304.009766 895.940674,1294.664062 899.952881,1285.916138 
	C902.087097,1281.262695 904.647522,1276.724854 907.600403,1272.548340 
	C910.798523,1268.024902 915.348633,1265.469238 921.207031,1265.518188 
	C989.364929,1266.087036 1057.523071,1266.636230 1125.682129,1267.040771 
	C1129.139404,1267.061279 1130.101318,1268.736450 1131.249878,1271.341431 
	C1159.332031,1335.033447 1196.695068,1392.801147 1243.099121,1444.615967 
	C1323.884888,1534.821289 1421.184814,1600.469116 1535.845215,1639.961548 
	C1574.787231,1653.374390 1614.693726,1662.812866 1655.566284,1668.105591 
	C1683.360107,1671.704956 1711.244995,1673.663574 1739.282593,1673.164795 
	C1740.075806,1673.150757 1740.869385,1673.162964 1742.149902,1673.162964 
	C1742.149902,1671.007446 1742.149902,1669.227173 1742.149902,1667.446899 
	C1742.149902,1598.786011 1742.211304,1530.125000 1742.021851,1461.464600 
	C1742.008179,1456.500854 1743.726318,1453.698608 1748.194092,1453.082764 
	C1757.042725,1451.862671 1765.990845,1450.152100 1774.846802,1450.408691 
	C1812.346191,1451.495239 1849.555054,1455.746216 1886.582642,1461.795654 
	C1931.460815,1469.127563 1975.506592,1479.838257 2018.927246,1493.271484 
	C2028.603394,1496.265137 2038.462158,1498.669067 2048.618408,1501.172363 
	C2049.000000,1501.444458 2049.000000,1501.888916 2048.662109,1502.920654 
	C2048.216064,1505.492920 2048.014160,1507.478149 2048.013428,1509.463257 
	C2047.980347,1591.933228 2047.965332,1674.403198 2047.589722,1756.869629 
	C1952.540283,1713.803711 1853.937378,1687.545288 1748.988892,1686.864624 
	C1748.988892,1689.468384 1748.988892,1691.447266 1748.989014,1693.426025 
	C1748.990967,1763.395020 1748.993896,1833.363892 1748.993164,1903.332886 
	C1748.993042,1908.882324 1747.200562,1910.997070 1741.731689,1912.077637 
	C1740.796875,1912.262573 1739.909424,1912.686523 1739.000000,1913.000000 
	C1731.979004,1913.000000 1724.958130,1913.000000 1717.231689,1912.643066 
	C1706.903809,1911.562744 1697.284058,1910.799194 1687.658325,1910.123291 
	C1646.754761,1907.251221 1606.268921,1901.556274 1566.122314,1893.126465 
	C1481.458740,1875.349121 1401.145996,1845.734253 1324.941162,1804.952148 
	C1215.609009,1746.441528 1121.101440,1669.576416 1041.152832,1574.803101 
	C1033.982910,1566.303711 1026.981934,1557.661865 1020.272278,1549.534058 
	C1002.872009,1569.359863 986.063904,1589.380127 968.337097,1608.550903 
	C908.057007,1673.742310 840.005676,1729.590576 764.276917,1775.952759 
	C634.087952,1855.656494 492.995850,1901.353760 340.473175,1911.167969 
	C335.961487,1911.458374 331.490143,1912.375244 327.000000,1913.000000 
	C317.979095,1913.000000 308.958221,1913.000000 299.305084,1912.669556 
	C291.911194,1910.762939 290.802429,1909.393188 290.802307,1902.572266 
	C290.801025,1832.604980 290.801453,1762.637695 290.801361,1692.670410 
	C290.801361,1690.883423 290.801361,1689.096558 290.801361,1686.922852 
	C289.033752,1686.922852 287.731171,1686.831909 286.444427,1686.936279 
	C256.592682,1689.355591 226.580978,1690.578979 196.930161,1694.517456 
	C152.194672,1700.459351 108.425323,1711.308105 66.078796,1727.094604 
	C44.803970,1735.025757 24.044325,1744.338745 2.746176,1752.736084 
	C2.293638,1750.472168 2.018588,1748.498901 2.018049,1746.525635 
	C1.996182,1666.409546 2.006517,1586.293579 1.957001,1506.177490 
	C1.955728,1504.118164 1.332940,1502.059204 1.000003,1500.000000 
	C1.000000,1499.555542 1.000000,1499.111084 0.999995,1498.333252 
z"/>
<path fill="#030053" opacity="1.000000" stroke="none" 
	d="
M2047.936646,493.838440 
	C2033.045044,486.901489 2018.283569,479.666962 2003.236694,473.085022 
	C1963.006470,455.487274 1920.962769,443.705719 1877.973267,435.251892 
	C1835.580811,426.915436 1792.722534,422.407135 1748.996338,420.571777 
	C1748.996338,422.546570 1748.996216,424.333405 1748.996216,426.120239 
	C1748.997070,496.117950 1748.941528,566.115784 1749.128174,636.112976 
	C1749.140503,640.733337 1747.352417,642.721741 1743.482910,644.003540 
	C1733.467896,647.321106 1723.177856,647.044312 1712.831177,646.704102 
	C1676.300781,645.502991 1640.132202,640.985840 1604.161743,634.800171 
	C1539.264893,623.640442 1475.883057,606.924805 1414.815430,582.040283 
	C1289.381958,530.927246 1180.065186,455.952606 1086.329956,358.399475 
	C1064.085327,335.248810 1043.893799,310.125397 1022.762695,285.905121 
	C1021.901367,284.917847 1021.091431,283.885681 1019.790161,282.307465 
	C931.588989,394.785278 824.187134,483.665833 696.915283,548.044495 
	C569.529846,612.480713 434.491760,645.942993 290.887512,645.955261 
	C290.887512,570.882019 290.887512,496.006317 290.887512,420.503510 
	C190.061279,423.833008 93.969902,444.804840 2.365988,486.514984 
	C2.003175,401.400818 2.006139,316.747406 2.359120,231.957764 
	C4.059092,231.247345 5.360863,230.482956 6.766103,230.127060 
	C36.726185,222.538803 66.535049,214.258850 96.701324,207.599106 
	C158.962906,193.853699 222.039337,186.283127 285.844574,185.243027 
	C295.109863,185.091995 297.401703,187.299591 297.401764,196.313217 
	C297.402344,265.635376 297.401215,334.957520 297.400604,404.279663 
	C297.400574,406.076630 297.400574,407.873596 297.400574,410.077576 
	C299.475281,410.077576 301.110504,410.186768 302.727509,410.061279 
	C329.278198,408.000305 355.990326,407.123657 382.340973,403.569641 
	C434.936859,396.475800 485.926544,382.504883 534.992981,362.256866 
	C681.347168,301.861511 795.841064,204.246841 876.261536,67.555618 
	C888.849426,46.159809 898.819458,23.223820 910.000000,0.999998 
	C924.020874,1.000000 938.041809,1.000000 952.842346,1.271989 
	C954.435120,1.659456 955.248230,1.875708 956.061340,1.875894 
	C989.404968,1.883543 1022.748535,1.871759 1056.552979,1.879859 
	C1081.284302,1.968579 1105.554810,2.039872 1129.976440,2.435519 
	C1130.358643,3.202363 1130.619873,3.631964 1130.817017,4.089125 
	C1173.786011,103.710037 1238.341431,186.962082 1322.086060,255.508469 
	C1378.486572,301.673248 1440.765991,337.945953 1508.678833,364.467468 
	C1571.063599,388.830078 1635.583740,403.915680 1702.444458,408.605286 
	C1715.510864,409.521790 1728.619385,409.839783 1742.144531,410.453613 
	C1742.144531,407.897766 1742.144531,406.107361 1742.144531,404.316925 
	C1742.144287,334.333252 1742.143066,264.349548 1742.145386,194.365875 
	C1742.145508,188.234634 1743.790405,186.146759 1749.892822,184.876160 
	C1751.994873,184.438507 1754.190186,184.113739 1756.321899,184.208450 
	C1770.466064,184.836838 1784.626709,185.300430 1798.741089,186.361603 
	C1845.264404,189.859451 1891.392334,196.234833 1937.031006,206.014236 
	C1974.763062,214.099411 2012.126099,223.444489 2047.908936,238.713959 
	C2047.924927,324.056793 2047.930786,408.947632 2047.936646,493.838440 
z"/>
<path fill="#FFFFFF" opacity="1.000000" stroke="none" 
	d="
M2047.898804,238.261948 
	C2012.126099,223.444489 1974.763062,214.099411 1937.031006,206.014236 
	C1891.392334,196.234833 1845.264404,189.859451 1798.741089,186.361603 
	C1784.626709,185.300430 1770.466064,184.836838 1756.321899,184.208450 
	C1754.190186,184.113739 1751.994873,184.438507 1749.892822,184.876160 
	C1743.790405,186.146759 1742.145508,188.234634 1742.145386,194.365875 
	C1742.143066,264.349548 1742.144287,334.333252 1742.144531,404.316925 
	C1742.144531,406.107361 1742.144531,407.897766 1742.144531,410.453613 
	C1728.619385,409.839783 1715.510864,409.521790 1702.444458,408.605286 
	C1635.583740,403.915680 1571.063599,388.830078 1508.678833,364.467468 
	C1440.765991,337.945953 1378.486572,301.673248 1322.086060,255.508469 
	C1238.341431,186.962082 1173.786011,103.710037 1130.817017,4.089125 
	C1130.619873,3.631964 1130.358643,3.202363 1129.986084,2.152380 
	C1129.896484,1.363258 1129.948242,1.181629 1130.000000,1.000000 
	C1436.217407,1.000000 1742.434937,1.000000 2049.000000,1.000000 
	C2049.000000,79.687218 2049.000000,158.374954 2048.735352,237.641510 
	C2048.280273,238.234192 2048.089600,238.248077 2047.898804,238.261948 
z"/>
<path fill="#FFFFFF" opacity="1.000000" stroke="none" 
	d="
M909.531372,0.999998 
	C898.819458,23.223820 888.849426,46.159809 876.261536,67.555618 
	C795.841064,204.246841 681.347168,301.861511 534.992981,362.256866 
	C485.926544,382.504883 434.936859,396.475800 382.340973,403.569641 
	C355.990326,407.123657 329.278198,408.000305 302.727509,410.061279 
	C301.110504,410.186768 299.475281,410.077576 297.400574,410.077576 
	C297.400574,407.873596 297.400574,406.076630 297.400604,404.279663 
	C297.401215,334.957520 297.402344,265.635376 297.401764,196.313217 
	C297.401703,187.299591 295.109863,185.091995 285.844574,185.243027 
	C222.039337,186.283127 158.962906,193.853699 96.701324,207.599106 
	C66.535049,214.258850 36.726185,222.538803 6.766103,230.127060 
	C5.360863,230.482956 4.059092,231.247345 2.118034,231.814178 
	C1.351287,231.871216 1.175643,231.935608 1.000000,232.000000 
	C1.000000,155.029541 1.000000,78.059097 1.000000,1.000000 
	C303.687561,1.000000 606.375122,1.000000 909.531372,0.999998 
z"/>
<path fill="#FFFFFF" opacity="1.000000" stroke="none" 
	d="
M327.468658,1913.000000 
	C331.490143,1912.375244 335.961487,1911.458374 340.473175,1911.167969 
	C492.995850,1901.353760 634.087952,1855.656494 764.276917,1775.952759 
	C840.005676,1729.590576 908.057007,1673.742310 968.337097,1608.550903 
	C986.063904,1589.380127 1002.872009,1569.359863 1020.272278,1549.534058 
	C1026.981934,1557.661865 1033.982910,1566.303711 1041.152832,1574.803101 
	C1121.101440,1669.576416 1215.609009,1746.441528 1324.941162,1804.952148 
	C1401.145996,1845.734253 1481.458740,1875.349121 1566.122314,1893.126465 
	C1606.268921,1901.556274 1646.754761,1907.251221 1687.658325,1910.123291 
	C1697.284058,1910.799194 1706.903809,1911.562744 1716.763184,1912.643066 
	C1253.979126,1913.000000 790.958191,1913.000000 327.468658,1913.000000 
z"/>
<path fill="#FFFFFF" opacity="1.000000" stroke="none" 
	d="
M1739.468628,1913.000000 
	C1739.909424,1912.686523 1740.796875,1912.262573 1741.731689,1912.077637 
	C1747.200562,1910.997070 1748.993042,1908.882324 1748.993164,1903.332886 
	C1748.993896,1833.363892 1748.990967,1763.395020 1748.989014,1693.426025 
	C1748.988892,1691.447266 1748.988892,1689.468384 1748.988892,1686.864624 
	C1853.937378,1687.545288 1952.540283,1713.803711 2047.840820,1757.000244 
	C2048.633545,1757.089478 2048.816650,1757.044800 2049.000000,1757.000000 
	C2049.000000,1808.951172 2049.000000,1860.902344 2049.000000,1913.000000 
	C1945.979126,1913.000000 1842.958252,1913.000000 1739.468628,1913.000000 
z"/>
<path fill="#FFFFFF" opacity="1.000000" stroke="none" 
	d="
M3.051702,1753.026733 
	C24.044325,1744.338745 44.803970,1735.025757 66.078796,1727.094604 
	C108.425323,1711.308105 152.194672,1700.459351 196.930161,1694.517456 
	C226.580978,1690.578979 256.592682,1689.355591 286.444427,1686.936279 
	C287.731171,1686.831909 289.033752,1686.922852 290.801361,1686.922852 
	C290.801361,1689.096558 290.801361,1690.883423 290.801361,1692.670410 
	C290.801453,1762.637695 290.801025,1832.604980 290.802307,1902.572266 
	C290.802429,1909.393188 291.911194,1910.762939 298.836426,1912.669556 
	C199.761795,1913.000000 100.523605,1913.000000 1.000000,1913.000000 
	C1.000000,1860.312744 1.000000,1807.625000 1.298927,1754.456055 
	C2.082472,1753.658813 2.567092,1753.342773 3.051702,1753.026733 
z"/>
<path fill="#4B4985" opacity="1.000000" stroke="none" 
	d="
M2049.000000,1126.531372 
	C2048.829346,1127.106201 2048.658447,1127.212402 2048.241699,1126.681152 
	C2047.974609,1040.088013 2047.953369,954.132324 2047.932129,868.176636 
	C2048.110107,868.146973 2048.287842,868.117310 2048.732910,868.043823 
	C2049.000000,954.020935 2049.000000,1040.041870 2049.000000,1126.531372 
z"/>
<path fill="#4F4D87" opacity="1.000000" stroke="none" 
	d="
M2047.908936,238.713959 
	C2048.089600,238.248077 2048.280273,238.234192 2048.735352,238.110168 
	C2049.000000,323.020905 2049.000000,408.041779 2049.000000,493.531342 
	C2048.812744,494.038696 2048.625732,494.077393 2048.187500,493.977295 
	C2047.930786,408.947632 2047.924927,324.056793 2047.908936,238.713959 
z"/>
<path fill="#1C1964" opacity="1.000000" stroke="none" 
	d="
M2.059924,1120.202393 
	C2.012088,1120.562378 1.812222,1120.787354 1.230164,1120.938599 
	C1.000000,1035.979126 1.000000,950.958191 1.000000,865.468628 
	C1.169318,864.984680 1.338635,864.969299 1.754955,865.469543 
	C2.021279,950.724182 2.040602,1035.463257 2.059924,1120.202393 
z"/>
<path fill="#181561" opacity="1.000000" stroke="none" 
	d="
M1.000000,232.468658 
	C1.175643,231.935608 1.351287,231.871216 1.768016,231.950439 
	C2.006139,316.747406 2.003175,401.400818 2.000660,486.522217 
	C1.835494,487.119202 1.669881,487.248108 1.252134,487.188538 
	C1.000000,402.312439 1.000000,317.624878 1.000000,232.468658 
z"/>
<path fill="#181561" opacity="1.000000" stroke="none" 
	d="
M2.746186,1752.736084 
	C2.567092,1753.342773 2.082472,1753.658813 1.298927,1753.987427 
	C1.000000,1669.645752 1.000000,1585.291504 1.000003,1500.468628 
	C1.332940,1502.059204 1.955728,1504.118164 1.957001,1506.177490 
	C2.006517,1586.293579 1.996182,1666.409546 2.018049,1746.525635 
	C2.018588,1748.498901 2.293638,1750.472168 2.746186,1752.736084 
z"/>
<path fill="#4F4D87" opacity="1.000000" stroke="none" 
	d="
M2049.000000,1756.531372 
	C2048.816650,1757.044800 2048.633545,1757.089478 2048.199219,1757.003662 
	C2047.965332,1674.403198 2047.980347,1591.933228 2048.013428,1509.463257 
	C2048.014160,1507.478149 2048.216064,1505.492920 2048.662109,1503.253906 
	C2049.000000,1587.354248 2049.000000,1671.708496 2049.000000,1756.531372 
z"/>
<path fill="#3C3A7A" opacity="1.000000" stroke="none" 
	d="
M1056.092163,1.862434 
	C1022.748535,1.871759 989.404968,1.883543 956.061340,1.875894 
	C955.248230,1.875708 954.435120,1.659456 953.311035,1.271989 
	C987.020935,1.000000 1021.041809,1.000000 1055.543945,1.216727 
	C1056.025146,1.433455 1056.092163,1.862434 1056.092163,1.862434 
z"/>
<path fill="#6C6A9B" opacity="1.000000" stroke="none" 
	d="
M1056.552979,1.879859 
	C1056.092163,1.862434 1056.025146,1.433455 1056.012573,1.216727 
	C1080.354248,1.000000 1104.708496,1.000000 1129.531372,1.000000 
	C1129.948242,1.181629 1129.896484,1.363258 1129.834961,1.828026 
	C1105.554810,2.039872 1081.284302,1.968579 1056.552979,1.879859 
z"/>
<path fill="#030053" opacity="1.000000" stroke="none" 
	d="
M2.427264,1120.158447 
	C2.040602,1035.463257 2.021279,950.724182 2.004927,865.520020 
	C39.303288,855.363831 76.368507,844.643677 113.951454,836.238464 
	C162.606262,825.357178 212.103348,819.825378 261.953308,817.815002 
	C267.609619,817.586914 273.261230,817.109009 278.917450,817.065735 
	C282.055786,817.041687 285.272644,817.364258 288.325989,818.078308 
	C296.169098,819.912476 297.403107,821.650085 297.403046,829.639587 
	C297.402283,898.966003 297.400482,968.292480 297.398987,1037.618896 
	C297.398956,1039.401855 297.398987,1041.184814 297.398987,1043.532104 
	C311.776794,1042.604614 325.567474,1041.944458 339.315796,1040.782959 
	C373.862732,1037.864380 408.036957,1032.398071 441.783752,1024.498535 
	C497.557587,1011.442688 550.762085,991.448669 601.415405,964.660339 
	C650.504456,938.699402 695.584351,906.988708 737.088257,870.166992 
	C797.054993,816.965271 846.455383,755.227112 885.443542,685.218506 
	C890.750854,675.688416 894.211060,665.147278 899.030457,655.321411 
	C902.005920,649.255249 905.669434,643.472534 909.525696,637.910339 
	C912.338623,633.853149 916.746338,632.462341 921.782288,632.506348 
	C989.605652,633.098083 1057.429443,633.665771 1125.254395,633.990051 
	C1129.634644,634.010986 1130.475220,636.438110 1131.727783,639.298096 
	C1166.145874,717.885742 1214.645142,786.785828 1275.895874,846.609558 
	C1348.562500,917.583008 1432.528198,970.875916 1528.426270,1004.909302 
	C1580.557739,1023.410217 1634.046143,1035.685181 1689.396118,1039.235107 
	C1706.816040,1040.352295 1724.209595,1041.883179 1742.157593,1043.266479 
	C1742.157593,1041.097168 1742.157471,1039.145020 1742.157349,1037.192871 
	C1742.156860,967.533142 1742.229736,897.873108 1742.015381,828.214050 
	C1741.998413,822.706055 1744.207275,819.800476 1748.904053,819.076050 
	C1755.916382,817.994446 1763.139160,816.744263 1770.129272,817.315796 
	C1800.651733,819.811096 1831.172241,822.496765 1861.599976,825.940552 
	C1905.819702,830.945374 1949.153320,840.623840 1992.018188,852.439636 
	C2010.437744,857.517090 2028.814697,862.749939 2047.571533,868.044434 
	C2047.953369,954.132324 2047.974609,1040.088013 2047.992676,1126.510986 
	C2033.001587,1119.873657 2018.190796,1112.361938 2002.991699,1105.742065 
	C1959.663330,1086.870483 1914.405884,1074.389038 1867.967041,1066.007935 
	C1830.046997,1059.164062 1791.807861,1055.301270 1753.317261,1053.818970 
	C1752.025757,1053.769165 1750.730591,1053.812622 1748.999512,1053.812622 
	C1748.999512,1055.744385 1748.999634,1057.542603 1748.999634,1059.340820 
	C1748.999268,1129.334473 1748.999146,1199.328247 1748.998535,1269.321899 
	C1748.998413,1276.045410 1747.179688,1278.849609 1740.519409,1278.876831 
	C1723.910767,1278.944702 1707.246704,1279.002808 1690.698853,1277.787231 
	C1647.830078,1274.638428 1605.246826,1268.968994 1563.231079,1259.805786 
	C1477.133301,1241.029053 1395.433105,1210.296143 1317.897827,1168.449829 
	C1227.763184,1119.803589 1147.388428,1058.415405 1077.609375,983.407410 
	C1063.917969,968.690002 1051.934692,952.390625 1039.006226,936.952576 
	C1034.307129,931.341125 1029.250244,926.015625 1024.150391,920.759827 
	C1022.126892,918.674438 1019.543274,917.132690 1016.962158,915.149414 
	C912.783813,1052.098999 780.587708,1151.212646 621.669739,1214.753052 
	C515.792175,1257.086426 405.714355,1278.645752 290.927551,1279.340332 
	C290.927551,1204.026733 290.927551,1129.008057 290.927551,1053.515137 
	C189.929153,1056.419678 93.710815,1076.741577 2.427264,1120.158447 
z"/>
</svg>