<svg version="1.1" id="Layer_1" xmlns="http://www.w3.org/2000/svg" xmlns:xlink="http://www.w3.org/1999/xlink" x="0px" y="0px"
	 width="100%" viewBox="0 0 962 404" enable-background="new 0 0 962 404" xml:space="preserve">
<path fill="#FEFEFE" opacity="1.000000" stroke="none" 
	d="
M720.000000,405.000000 
	C480.000092,405.000000 240.500168,405.000000 1.000193,405.000000 
	C1.000129,270.333466 1.000129,135.666931 1.000064,1.000301 
	C321.666412,1.000201 642.332825,1.000201 962.999451,1.000100 
	C962.999634,135.666367 962.999634,270.332733 962.999817,404.999573 
	C882.166687,405.000000 801.333313,405.000000 720.000000,405.000000 
M605.121094,201.572662 
	C606.456726,198.899948 607.964355,196.298218 609.100891,193.543365 
	C618.743652,170.170593 619.022278,146.150757 612.978699,122.031174 
	C607.783630,101.298363 595.352173,85.846680 576.430420,75.644165 
	C557.295898,65.326942 536.640076,61.976406 515.244019,61.951473 
	C475.082153,61.904671 434.920197,61.934334 394.758301,61.945312 
	C393.308136,61.945709 391.858063,62.084797 390.057068,62.177261 
	C390.057068,73.622780 389.948181,84.750832 390.227539,95.869118 
	C390.255127,96.966553 392.568085,98.761215 393.977753,98.931854 
	C398.760529,99.510826 403.614227,99.501755 408.440460,99.724823 
	C414.949677,100.025673 414.962372,100.028671 414.962708,106.622185 
	C414.965973,170.281281 414.964844,233.940384 414.962769,297.599487 
	C414.962738,298.932465 415.098846,300.290924 414.895020,301.594238 
	C413.741241,308.971619 411.376678,312.395721 404.758881,313.118744 
	C400.299744,313.605865 395.832184,314.130768 391.432312,314.972717 
	C390.192627,315.209930 388.224854,316.605743 388.206085,317.503845 
	C387.981201,328.265564 388.060822,339.033630 388.060822,349.823151 
	C428.786987,349.823151 469.001617,349.823151 509.308136,349.823151 
	C509.308136,338.786041 509.181946,328.120544 509.377960,317.460999 
	C509.444733,313.828857 507.999847,313.005859 504.676758,312.983521 
	C494.180847,312.913055 483.687317,312.400482 473.192078,312.375366 
	C469.151093,312.365692 467.780121,311.174408 467.840363,306.932220 
	C468.086395,289.604462 468.095428,272.268921 467.840302,254.941391 
	C467.773560,250.409866 468.913300,249.045639 473.625397,248.955307 
	C492.917053,248.585388 512.350891,248.993347 531.449890,246.730240 
	C562.246094,243.081055 587.662415,229.104736 605.121094,201.572662 
M144.646255,47.129505 
	C117.537216,55.596645 94.133339,69.950539 74.607613,90.683907 
	C39.121677,128.364609 24.028345,172.898590 29.969202,224.269211 
	C34.703281,265.204834 52.745495,299.589417 83.867844,326.543274 
	C132.532700,368.690002 188.024841,379.765900 248.783554,358.800171 
	C288.095520,345.234955 317.307343,318.650421 337.487000,282.184753 
	C355.347443,249.909988 360.828491,215.177765 355.554962,179.236969 
	C350.308838,143.482590 334.294281,112.091339 307.915283,87.268044 
	C261.561401,43.647903 207.115494,30.054964 144.646255,47.129505 
M649.470337,130.499771 
	C649.471008,149.499252 649.351746,168.499680 649.503174,187.497955 
	C649.685730,210.411697 659.734497,225.451355 679.355530,231.461319 
	C696.174194,236.612900 713.291138,236.539032 730.052856,231.280731 
	C751.680786,224.495834 762.308716,209.439651 762.317932,186.887894 
	C762.320129,181.388031 762.318420,175.888184 762.318237,170.388321 
	C762.317505,150.055511 762.332520,129.722656 762.302856,109.389900 
	C762.296814,105.261841 762.904541,101.789536 767.898743,100.822693 
	C776.291016,99.197998 776.272278,99.100594 776.271851,90.557343 
	C776.271729,89.057381 776.110901,87.536888 776.300781,86.061455 
	C776.795593,82.216072 775.055054,81.232315 771.427368,81.287354 
	C759.430420,81.469330 747.429016,81.354774 735.429321,81.354485 
	C722.737610,81.354179 722.927063,81.358574 722.644409,94.236794 
	C722.537781,99.098221 723.288086,101.925797 729.025391,101.059196 
	C731.062073,100.751556 733.250793,101.450340 735.249329,101.676033 
	C735.517090,102.576012 735.777710,103.044037 735.778259,103.512352 
	C735.808655,131.510696 736.050354,159.511841 735.716248,187.506088 
	C735.579224,198.989136 728.935852,207.445572 717.947754,210.010895 
	C711.625916,211.486816 704.742371,211.518845 698.217896,210.960236 
	C685.509827,209.872177 677.538147,201.829254 677.299622,189.090912 
	C676.787842,161.770203 677.023376,134.435593 676.934326,107.106728 
	C676.921753,103.258446 678.891907,101.304604 682.589661,100.830360 
	C685.332153,100.478638 688.068481,100.079102 691.132446,99.655998 
	C691.132446,97.031860 691.131897,94.888802 691.132507,92.745735 
	C691.135803,81.354424 691.135925,81.354431 679.987183,81.354424 
	C670.320740,81.354424 660.654358,81.354424 650.987915,81.354424 
	C635.247437,81.354424 635.333069,81.350876 635.982483,97.060097 
	C636.112305,100.200836 637.309692,101.069153 640.201965,101.023972 
	C643.132080,100.978203 646.069092,101.366844 649.470398,101.596809 
	C649.470398,111.239830 649.470398,120.369797 649.470337,130.499771 
M905.042419,225.169754 
	C905.151550,213.352402 905.318115,201.534851 905.279053,189.717972 
	C905.275208,188.561539 904.092834,186.474350 903.310303,186.401566 
	C896.444580,185.762909 889.545532,185.483826 882.195129,185.072357 
	C882.195129,191.327972 882.038818,196.963852 882.242615,202.586670 
	C882.418274,207.434158 880.227783,210.328400 875.600952,210.933640 
	C870.026428,211.662842 864.388306,212.237976 858.774048,212.272049 
	C838.988403,212.392197 826.090576,202.036896 820.819702,182.779968 
	C817.322510,170.003265 817.309021,157.052185 818.380066,144.115372 
	C819.222717,133.937729 822.124634,124.149292 828.375549,115.747711 
	C839.933533,100.213310 859.989868,99.279587 875.055115,102.922195 
	C878.426086,103.737236 879.845764,106.220947 879.812317,109.647751 
	C879.765259,114.478882 879.935730,119.315971 879.751831,124.140549 
	C879.633728,127.238632 880.799500,128.327744 883.841980,128.047882 
	C888.810120,127.590889 893.793823,127.222084 898.778870,127.061760 
	C901.901367,126.961349 903.152283,125.839928 903.096680,122.555702 
	C902.924744,112.395622 902.911438,102.228386 903.106873,92.069138 
	C903.169922,88.793526 901.785278,87.427612 898.939697,86.298767 
	C881.870117,79.527290 864.232544,76.677734 846.140503,80.088768 
	C822.629944,84.521400 804.575500,96.483208 795.871765,119.878716 
	C787.651733,141.973877 787.577393,164.495956 792.961853,187.149567 
	C796.985840,204.079681 805.658752,218.151779 821.628479,225.989502 
	C849.132324,239.488022 876.955505,237.550751 905.042419,225.169754 
M757.407349,288.952362 
	C756.212585,289.983337 755.017822,291.014313 753.297668,292.498688 
	C753.164185,289.687134 753.065796,287.613861 752.959290,285.369995 
	C745.747803,285.369995 738.695312,285.369995 731.525269,285.369995 
	C731.525269,288.774109 731.525269,291.862305 731.525269,295.067291 
	C732.338440,295.303375 732.974670,295.682922 733.573975,295.631653 
	C739.003418,295.167175 740.266418,297.926819 740.097595,302.882874 
	C739.774536,312.364716 740.004639,321.865417 740.003357,331.358276 
	C740.002258,339.305450 740.001099,339.305450 732.245483,340.438354 
	C732.245483,343.478394 732.245483,346.548553 732.245483,349.603638 
	C742.518311,349.603638 752.544128,349.603638 762.548950,349.603638 
	C762.548950,346.229706 762.548950,343.260254 762.548950,340.112823 
	C760.156189,339.718414 757.898682,339.346313 755.315979,338.920593 
	C755.315979,328.077454 754.941772,317.271973 755.445862,306.507599 
	C755.789368,299.174164 762.209229,294.536591 769.762878,295.025604 
	C776.138611,295.438354 778.939087,298.968445 779.093811,307.276764 
	C779.236389,314.935089 779.129883,322.598022 779.130737,330.258942 
	C779.131653,338.820831 779.130432,338.820831 771.335327,340.730255 
	C771.335327,343.643463 771.335327,346.577484 771.335327,349.667206 
	C781.577087,349.667206 791.611694,349.667206 801.593750,349.667206 
	C801.593750,346.234222 801.593750,343.149384 801.593750,340.109192 
	C799.090698,339.655609 796.860840,339.251526 794.458557,338.816223 
	C794.458557,335.331390 794.485229,332.183624 794.453552,329.036469 
	C794.358032,319.548431 794.625916,310.036041 794.023254,300.579590 
	C793.405640,290.890747 788.166687,285.575378 778.665955,283.611755 
	C771.019897,282.031403 764.228149,284.101471 757.407349,288.952362 
M655.764648,285.066772 
	C654.918213,288.327301 654.071716,291.587860 653.228760,294.835175 
	C662.543152,296.909424 662.543213,296.909424 662.543274,305.685272 
	C662.543335,313.844421 662.543518,322.003540 662.543274,330.162689 
	C662.543030,338.785095 662.542786,338.785095 654.752441,340.728577 
	C654.752441,343.666534 654.752441,346.618134 654.752441,349.630737 
	C664.982666,349.630737 674.999207,349.630737 684.805298,349.630737 
	C684.805298,346.156677 684.805298,343.066376 684.805298,340.019989 
	C682.399780,339.649170 680.298218,339.325165 677.868347,338.950592 
	C677.868347,328.840546 677.823242,318.872314 677.882263,308.904724 
	C677.932068,300.489258 683.010010,295.120819 690.873962,295.007935 
	C698.480286,294.898743 701.588318,298.613068 701.748901,308.376770 
	C701.874756,316.034332 701.776550,323.695557 701.775818,331.355164 
	C701.775024,339.303894 701.773865,339.303894 694.005005,340.458038 
	C694.005005,343.493195 694.005005,346.560455 694.005005,349.748108 
	C704.142029,349.748108 714.048523,349.748108 724.018799,349.748108 
	C724.018799,346.381287 724.018799,343.273834 724.018799,340.084076 
	C721.620300,339.676056 719.405457,339.299286 716.986206,338.887726 
	C716.986206,326.986450 717.199524,315.339661 716.932983,303.703888 
	C716.588318,288.653534 706.155457,280.348541 691.523438,283.920380 
	C685.996399,285.269592 680.950928,288.591034 675.848267,290.938782 
	C675.751953,289.589905 675.601990,287.490997 675.428223,285.059113 
	C668.986267,285.059113 662.853638,285.059113 655.764648,285.066772 
M621.966797,283.426880 
	C602.826904,281.238770 588.901428,288.703583 584.884033,305.010986 
	C582.871399,313.180695 582.446106,322.296112 583.735107,330.606598 
	C586.252014,346.833374 598.525940,354.727997 613.728699,350.825226 
	C618.174622,349.683868 622.058411,346.353088 626.390808,343.918549 
	C626.390808,345.685425 626.390808,347.626984 626.390808,349.761292 
	C633.299072,349.761292 639.873840,349.761292 646.867188,349.761292 
	C646.867188,348.399963 646.867188,347.277954 646.867188,346.155945 
	C646.867188,344.172852 646.867188,342.189728 646.867188,340.287018 
	C639.456543,338.471222 639.456421,338.471222 639.456299,330.752655 
	C639.456177,317.593079 639.355774,304.432159 639.534607,291.275024 
	C639.573853,288.387573 638.650330,286.975098 635.946411,286.423279 
	C631.569580,285.530090 627.207336,284.565125 621.966797,283.426880 
M817.626221,294.182739 
	C809.103699,305.639191 808.259277,318.455170 811.422913,331.756104 
	C813.090698,338.768005 816.962402,344.519287 823.550903,348.092163 
	C834.686829,354.131042 852.577148,352.463745 862.833008,344.230804 
	C861.219360,340.936218 859.579834,337.588593 857.908813,334.176819 
	C849.752563,339.321991 841.670532,341.999847 833.006836,337.612701 
	C827.974304,335.064270 826.307861,330.163239 825.958191,324.414307 
	C828.947388,324.270721 831.699280,324.592712 834.189880,323.931091 
	C840.844177,322.163330 847.903809,320.927643 853.841553,317.708282 
	C861.185791,313.726288 863.473816,306.268951 862.351746,297.936798 
	C861.331665,290.361267 856.583069,285.877411 849.660339,284.216888 
	C837.504395,281.301025 826.583374,283.708710 817.626221,294.182739 
M898.307068,287.747681 
	C896.497314,289.320618 894.687561,290.893524 892.884827,292.460327 
	C892.754883,290.201569 892.615906,287.786835 892.475403,285.344971 
	C885.175110,285.344971 878.261108,285.344971 871.318481,285.344971 
	C871.318481,288.874542 871.318481,292.111206 871.318481,295.274292 
	C879.543457,296.888672 879.543457,296.888672 879.543457,305.273560 
	C879.543457,313.606506 879.543518,321.939484 879.543457,330.272430 
	C879.543457,338.796173 879.543396,338.796173 871.755188,340.730988 
	C871.755188,343.671021 871.755188,346.624481 871.755188,349.790405 
	C883.211365,349.790405 894.455811,349.790405 905.903564,349.790405 
	C905.903564,346.497650 905.903564,343.420227 905.903564,340.141357 
	C902.285828,339.791046 898.850098,339.458374 895.052124,339.090637 
	C895.052124,328.363129 894.775024,317.714294 895.174683,307.090912 
	C895.360779,302.145721 898.243225,298.389832 903.358337,296.887848 
	C909.230042,295.163605 911.351074,296.651306 911.557983,302.631989 
	C911.595337,303.713715 911.817566,304.789062 912.001404,306.237518 
	C915.932861,305.823090 919.531616,305.443726 923.454712,305.030151 
	C923.454712,299.225555 923.615417,293.742920 923.326416,288.284119 
	C923.264648,287.116913 921.792297,285.487579 920.593750,285.004730 
	C913.013428,281.951050 905.669495,282.335083 898.307068,287.747681 
M551.005737,273.845306 
	C551.006287,292.646637 551.007019,311.447998 551.007141,330.249329 
	C551.007202,338.765015 551.006653,338.765015 543.199463,340.739014 
	C543.199463,343.661133 543.199463,346.596436 543.199463,349.659332 
	C553.416138,349.659332 563.437317,349.659332 573.413330,349.659332 
	C573.413330,346.235443 573.413330,343.163483 573.413330,340.095764 
	C570.890442,339.658844 568.659363,339.272461 566.148560,338.837646 
	C566.148560,311.878815 566.148560,285.151001 566.148560,258.393250 
	C558.286865,258.393250 550.765991,258.393250 543.416626,258.393250 
	C543.416626,262.070587 543.416626,265.342651 543.416626,268.551239 
	C546.324402,269.720795 551.047302,267.291473 551.005737,273.845306 
z"/>
<path fill="#040154" opacity="1.000000" stroke="none" 
	d="
M604.969238,201.906708 
	C587.662415,229.104736 562.246094,243.081055 531.449890,246.730240 
	C512.350891,248.993347 492.917053,248.585388 473.625397,248.955307 
	C468.913300,249.045639 467.773560,250.409866 467.840302,254.941391 
	C468.095428,272.268921 468.086395,289.604462 467.840363,306.932220 
	C467.780121,311.174408 469.151093,312.365692 473.192078,312.375366 
	C483.687317,312.400482 494.180847,312.913055 504.676758,312.983521 
	C507.999847,313.005859 509.444733,313.828857 509.377960,317.460999 
	C509.181946,328.120544 509.308136,338.786041 509.308136,349.823151 
	C469.001617,349.823151 428.786987,349.823151 388.060822,349.823151 
	C388.060822,339.033630 387.981201,328.265564 388.206085,317.503845 
	C388.224854,316.605743 390.192627,315.209930 391.432312,314.972717 
	C395.832184,314.130768 400.299744,313.605865 404.758881,313.118744 
	C411.376678,312.395721 413.741241,308.971619 414.895020,301.594238 
	C415.098846,300.290924 414.962738,298.932465 414.962769,297.599487 
	C414.964844,233.940384 414.965973,170.281281 414.962708,106.622185 
	C414.962372,100.028671 414.949677,100.025673 408.440460,99.724823 
	C403.614227,99.501755 398.760529,99.510826 393.977753,98.931854 
	C392.568085,98.761215 390.255127,96.966553 390.227539,95.869118 
	C389.948181,84.750832 390.057068,73.622780 390.057068,62.177261 
	C391.858063,62.084797 393.308136,61.945709 394.758301,61.945312 
	C434.920197,61.934334 475.082153,61.904671 515.244019,61.951473 
	C536.640076,61.976406 557.295898,65.326942 576.430420,75.644165 
	C595.352173,85.846680 607.783630,101.298363 612.978699,122.031174 
	C619.022278,146.150757 618.743652,170.170593 609.100891,193.543365 
	C607.964355,196.298218 606.456726,198.899948 604.969238,201.906708 
M479.527710,206.862823 
	C485.526581,206.863388 491.529816,207.011765 497.523438,206.834625 
	C511.181244,206.430939 524.795593,205.923889 537.393860,199.443466 
	C548.279602,193.843918 555.830994,185.738358 559.426147,173.822678 
	C563.041504,161.840393 562.966431,149.776581 560.659363,137.755463 
	C558.161621,124.740837 551.739258,114.230354 538.053467,110.583397 
	C528.618408,108.069176 518.971924,105.772484 509.284760,104.926537 
	C497.202148,103.871391 484.974121,104.589371 472.822723,104.154366 
	C468.753571,104.008682 467.823639,105.178741 467.847382,109.138435 
	C468.021301,138.131622 467.941162,167.126328 467.941132,196.120560 
	C467.941101,206.862869 467.941071,206.862869 479.527710,206.862823 
z"/>
<path fill="#FFB633" opacity="1.000000" stroke="none" 
	d="
M145.035629,47.037231 
	C207.115494,30.054964 261.561401,43.647903 307.915283,87.268044 
	C334.294281,112.091339 350.308838,143.482590 355.554962,179.236969 
	C360.828491,215.177765 355.347443,249.909988 337.487000,282.184753 
	C317.307343,318.650421 288.095520,345.234955 248.783554,358.800171 
	C188.024841,379.765900 132.532700,368.690002 83.867844,326.543274 
	C52.745495,299.589417 34.703281,265.204834 29.969202,224.269211 
	C24.028345,172.898590 39.121677,128.364609 74.607613,90.683907 
	C94.133339,69.950539 117.537216,55.596645 145.035629,47.037231 
M66.351768,122.905098 
	C48.116093,151.856888 39.445732,183.229706 42.902260,217.507538 
	C47.953930,267.604218 72.008041,306.794159 114.776688,332.498108 
	C168.465042,364.764801 223.889664,364.029510 275.948822,329.309387 
	C328.814270,294.051453 350.621918,242.733215 341.449158,179.571060 
	C336.443665,145.103943 319.790405,116.222870 293.816498,92.949226 
	C255.996567,59.061058 211.703339,47.144981 162.254929,56.938320 
	C121.492599,65.011368 89.728355,87.558784 66.351768,122.905098 
z"/>
<path fill="#070456" opacity="1.000000" stroke="none" 
	d="
M649.470337,129.999756 
	C649.470398,120.369797 649.470398,111.239830 649.470398,101.596809 
	C646.069092,101.366844 643.132080,100.978203 640.201965,101.023972 
	C637.309692,101.069153 636.112305,100.200836 635.982483,97.060097 
	C635.333069,81.350876 635.247437,81.354424 650.987915,81.354424 
	C660.654358,81.354424 670.320740,81.354424 679.987183,81.354424 
	C691.135925,81.354431 691.135803,81.354424 691.132507,92.745735 
	C691.131897,94.888802 691.132446,97.031860 691.132446,99.655998 
	C688.068481,100.079102 685.332153,100.478638 682.589661,100.830360 
	C678.891907,101.304604 676.921753,103.258446 676.934326,107.106728 
	C677.023376,134.435593 676.787842,161.770203 677.299622,189.090912 
	C677.538147,201.829254 685.509827,209.872177 698.217896,210.960236 
	C704.742371,211.518845 711.625916,211.486816 717.947754,210.010895 
	C728.935852,207.445572 735.579224,198.989136 735.716248,187.506088 
	C736.050354,159.511841 735.808655,131.510696 735.778259,103.512352 
	C735.777710,103.044037 735.517090,102.576012 735.249329,101.676033 
	C733.250793,101.450340 731.062073,100.751556 729.025391,101.059196 
	C723.288086,101.925797 722.537781,99.098221 722.644409,94.236794 
	C722.927063,81.358574 722.737610,81.354179 735.429321,81.354485 
	C747.429016,81.354774 759.430420,81.469330 771.427368,81.287354 
	C775.055054,81.232315 776.795593,82.216072 776.300781,86.061455 
	C776.110901,87.536888 776.271729,89.057381 776.271851,90.557343 
	C776.272278,99.100594 776.291016,99.197998 767.898743,100.822693 
	C762.904541,101.789536 762.296814,105.261841 762.302856,109.389900 
	C762.332520,129.722656 762.317505,150.055511 762.318237,170.388321 
	C762.318420,175.888184 762.320129,181.388031 762.317932,186.887894 
	C762.308716,209.439651 751.680786,224.495834 730.052856,231.280731 
	C713.291138,236.539032 696.174194,236.612900 679.355530,231.461319 
	C659.734497,225.451355 649.685730,210.411697 649.503174,187.497955 
	C649.351746,168.499680 649.471008,149.499252 649.470337,129.999756 
z"/>
<path fill="#060355" opacity="1.000000" stroke="none" 
	d="
M904.816528,225.501831 
	C876.955505,237.550751 849.132324,239.488022 821.628479,225.989502 
	C805.658752,218.151779 796.985840,204.079681 792.961853,187.149567 
	C787.577393,164.495956 787.651733,141.973877 795.871765,119.878716 
	C804.575500,96.483208 822.629944,84.521400 846.140503,80.088768 
	C864.232544,76.677734 881.870117,79.527290 898.939697,86.298767 
	C901.785278,87.427612 903.169922,88.793526 903.106873,92.069138 
	C902.911438,102.228386 902.924744,112.395622 903.096680,122.555702 
	C903.152283,125.839928 901.901367,126.961349 898.778870,127.061760 
	C893.793823,127.222084 888.810120,127.590889 883.841980,128.047882 
	C880.799500,128.327744 879.633728,127.238632 879.751831,124.140549 
	C879.935730,119.315971 879.765259,114.478882 879.812317,109.647751 
	C879.845764,106.220947 878.426086,103.737236 875.055115,102.922195 
	C859.989868,99.279587 839.933533,100.213310 828.375549,115.747711 
	C822.124634,124.149292 819.222717,133.937729 818.380066,144.115372 
	C817.309021,157.052185 817.322510,170.003265 820.819702,182.779968 
	C826.090576,202.036896 838.988403,212.392197 858.774048,212.272049 
	C864.388306,212.237976 870.026428,211.662842 875.600952,210.933640 
	C880.227783,210.328400 882.418274,207.434158 882.242615,202.586670 
	C882.038818,196.963852 882.195129,191.327972 882.195129,185.072357 
	C889.545532,185.483826 896.444580,185.762909 903.310303,186.401566 
	C904.092834,186.474350 905.275208,188.561539 905.279053,189.717972 
	C905.318115,201.534851 905.151550,213.352402 904.816528,225.501831 
z"/>
<path fill="#070456" opacity="1.000000" stroke="none" 
	d="
M757.696045,288.719177 
	C764.228149,284.101471 771.019897,282.031403 778.665955,283.611755 
	C788.166687,285.575378 793.405640,290.890747 794.023254,300.579590 
	C794.625916,310.036041 794.358032,319.548431 794.453552,329.036469 
	C794.485229,332.183624 794.458557,335.331390 794.458557,338.816223 
	C796.860840,339.251526 799.090698,339.655609 801.593750,340.109192 
	C801.593750,343.149384 801.593750,346.234222 801.593750,349.667206 
	C791.611694,349.667206 781.577087,349.667206 771.335327,349.667206 
	C771.335327,346.577484 771.335327,343.643463 771.335327,340.730255 
	C779.130432,338.820831 779.131653,338.820831 779.130737,330.258942 
	C779.129883,322.598022 779.236389,314.935089 779.093811,307.276764 
	C778.939087,298.968445 776.138611,295.438354 769.762878,295.025604 
	C762.209229,294.536591 755.789368,299.174164 755.445862,306.507599 
	C754.941772,317.271973 755.315979,328.077454 755.315979,338.920593 
	C757.898682,339.346313 760.156189,339.718414 762.548950,340.112823 
	C762.548950,343.260254 762.548950,346.229706 762.548950,349.603638 
	C752.544128,349.603638 742.518311,349.603638 732.245483,349.603638 
	C732.245483,346.548553 732.245483,343.478394 732.245483,340.438354 
	C740.001099,339.305450 740.002258,339.305450 740.003357,331.358276 
	C740.004639,321.865417 739.774536,312.364716 740.097595,302.882874 
	C740.266418,297.926819 739.003418,295.167175 733.573975,295.631653 
	C732.974670,295.682922 732.338440,295.303375 731.525269,295.067291 
	C731.525269,291.862305 731.525269,288.774109 731.525269,285.369995 
	C738.695312,285.369995 745.747803,285.369995 752.959290,285.369995 
	C753.065796,287.613861 753.164185,289.687134 753.297668,292.498688 
	C755.017822,291.014313 756.212585,289.983337 757.696045,288.719177 
z"/>
<path fill="#070455" opacity="1.000000" stroke="none" 
	d="
M656.242859,285.062927 
	C662.853638,285.059113 668.986267,285.059113 675.428223,285.059113 
	C675.601990,287.490997 675.751953,289.589905 675.848267,290.938782 
	C680.950928,288.591034 685.996399,285.269592 691.523438,283.920380 
	C706.155457,280.348541 716.588318,288.653534 716.932983,303.703888 
	C717.199524,315.339661 716.986206,326.986450 716.986206,338.887726 
	C719.405457,339.299286 721.620300,339.676056 724.018799,340.084076 
	C724.018799,343.273834 724.018799,346.381287 724.018799,349.748108 
	C714.048523,349.748108 704.142029,349.748108 694.005005,349.748108 
	C694.005005,346.560455 694.005005,343.493195 694.005005,340.458038 
	C701.773865,339.303894 701.775024,339.303894 701.775818,331.355164 
	C701.776550,323.695557 701.874756,316.034332 701.748901,308.376770 
	C701.588318,298.613068 698.480286,294.898743 690.873962,295.007935 
	C683.010010,295.120819 677.932068,300.489258 677.882263,308.904724 
	C677.823242,318.872314 677.868347,328.840546 677.868347,338.950592 
	C680.298218,339.325165 682.399780,339.649170 684.805298,340.019989 
	C684.805298,343.066376 684.805298,346.156677 684.805298,349.630737 
	C674.999207,349.630737 664.982666,349.630737 654.752441,349.630737 
	C654.752441,346.618134 654.752441,343.666534 654.752441,340.728577 
	C662.542786,338.785095 662.543030,338.785095 662.543274,330.162689 
	C662.543518,322.003540 662.543335,313.844421 662.543274,305.685272 
	C662.543213,296.909424 662.543152,296.909424 653.228760,294.835175 
	C654.071716,291.587860 654.918213,288.327301 656.242859,285.062927 
z"/>
<path fill="#070455" opacity="1.000000" stroke="none" 
	d="
M622.402832,283.528687 
	C627.207336,284.565125 631.569580,285.530090 635.946411,286.423279 
	C638.650330,286.975098 639.573853,288.387573 639.534607,291.275024 
	C639.355774,304.432159 639.456177,317.593079 639.456299,330.752655 
	C639.456421,338.471222 639.456543,338.471222 646.867188,340.287018 
	C646.867188,342.189728 646.867188,344.172852 646.867188,346.155945 
	C646.867188,347.277954 646.867188,348.399963 646.867188,349.761292 
	C639.873840,349.761292 633.299072,349.761292 626.390808,349.761292 
	C626.390808,347.626984 626.390808,345.685425 626.390808,343.918549 
	C622.058411,346.353088 618.174622,349.683868 613.728699,350.825226 
	C598.525940,354.727997 586.252014,346.833374 583.735107,330.606598 
	C582.446106,322.296112 582.871399,313.180695 584.884033,305.010986 
	C588.901428,288.703583 602.826904,281.238770 622.402832,283.528687 
M600.352722,305.066711 
	C597.584900,314.524628 596.824829,324.030823 600.509888,333.388672 
	C602.729980,339.026428 608.096985,341.742889 613.746277,340.687897 
	C620.238464,339.475525 624.413879,335.415405 624.522644,329.512573 
	C624.712341,319.218018 624.644653,308.916443 624.485962,298.620880 
	C624.468506,297.484192 623.347961,295.597107 622.411621,295.362000 
	C613.996155,293.248993 604.610413,293.491211 600.352722,305.066711 
z"/>
<path fill="#080556" opacity="1.000000" stroke="none" 
	d="
M817.849976,293.901001 
	C826.583374,283.708710 837.504395,281.301025 849.660339,284.216888 
	C856.583069,285.877411 861.331665,290.361267 862.351746,297.936798 
	C863.473816,306.268951 861.185791,313.726288 853.841553,317.708282 
	C847.903809,320.927643 840.844177,322.163330 834.189880,323.931091 
	C831.699280,324.592712 828.947388,324.270721 825.958191,324.414307 
	C826.307861,330.163239 827.974304,335.064270 833.006836,337.612701 
	C841.670532,341.999847 849.752563,339.321991 857.908813,334.176819 
	C859.579834,337.588593 861.219360,340.936218 862.833008,344.230804 
	C852.577148,352.463745 834.686829,354.131042 823.550903,348.092163 
	C816.962402,344.519287 813.090698,338.768005 811.422913,331.756104 
	C808.259277,318.455170 809.103699,305.639191 817.849976,293.901001 
M836.673279,312.467682 
	C839.229187,311.326355 841.986938,310.492615 844.296814,308.976440 
	C848.461609,306.242737 849.819763,301.463104 847.588745,297.679443 
	C845.131165,293.511597 841.150818,293.428284 837.047119,294.605042 
	C829.791138,296.685638 824.994812,304.994934 826.061462,313.718781 
	C829.332214,313.399750 832.613708,313.079681 836.673279,312.467682 
z"/>
<path fill="#070455" opacity="1.000000" stroke="none" 
	d="
M898.583435,287.505188 
	C905.669495,282.335083 913.013428,281.951050 920.593750,285.004730 
	C921.792297,285.487579 923.264648,287.116913 923.326416,288.284119 
	C923.615417,293.742920 923.454712,299.225555 923.454712,305.030151 
	C919.531616,305.443726 915.932861,305.823090 912.001404,306.237518 
	C911.817566,304.789062 911.595337,303.713715 911.557983,302.631989 
	C911.351074,296.651306 909.230042,295.163605 903.358337,296.887848 
	C898.243225,298.389832 895.360779,302.145721 895.174683,307.090912 
	C894.775024,317.714294 895.052124,328.363129 895.052124,339.090637 
	C898.850098,339.458374 902.285828,339.791046 905.903564,340.141357 
	C905.903564,343.420227 905.903564,346.497650 905.903564,349.790405 
	C894.455811,349.790405 883.211365,349.790405 871.755188,349.790405 
	C871.755188,346.624481 871.755188,343.671021 871.755188,340.730988 
	C879.543396,338.796173 879.543457,338.796173 879.543457,330.272430 
	C879.543518,321.939484 879.543457,313.606506 879.543457,305.273560 
	C879.543457,296.888672 879.543457,296.888672 871.318481,295.274292 
	C871.318481,292.111206 871.318481,288.874542 871.318481,285.344971 
	C878.261108,285.344971 885.175110,285.344971 892.475403,285.344971 
	C892.615906,287.786835 892.754883,290.201569 892.884827,292.460327 
	C894.687561,290.893524 896.497314,289.320618 898.583435,287.505188 
z"/>
<path fill="#060355" opacity="1.000000" stroke="none" 
	d="
M551.004578,273.384521 
	C551.047302,267.291473 546.324402,269.720795 543.416626,268.551239 
	C543.416626,265.342651 543.416626,262.070587 543.416626,258.393250 
	C550.765991,258.393250 558.286865,258.393250 566.148560,258.393250 
	C566.148560,285.151001 566.148560,311.878815 566.148560,338.837646 
	C568.659363,339.272461 570.890442,339.658844 573.413330,340.095764 
	C573.413330,343.163483 573.413330,346.235443 573.413330,349.659332 
	C563.437317,349.659332 553.416138,349.659332 543.199463,349.659332 
	C543.199463,346.596436 543.199463,343.661133 543.199463,340.739014 
	C551.006653,338.765015 551.007202,338.765015 551.007141,330.249329 
	C551.007019,311.447998 551.006287,292.646637 551.004578,273.384521 
z"/>
<path fill="#FDFDFE" opacity="1.000000" stroke="none" 
	d="
M479.033234,206.862823 
	C467.941071,206.862869 467.941101,206.862869 467.941132,196.120560 
	C467.941162,167.126328 468.021301,138.131622 467.847382,109.138435 
	C467.823639,105.178741 468.753571,104.008682 472.822723,104.154366 
	C484.974121,104.589371 497.202148,103.871391 509.284760,104.926537 
	C518.971924,105.772484 528.618408,108.069176 538.053467,110.583397 
	C551.739258,114.230354 558.161621,124.740837 560.659363,137.755463 
	C562.966431,149.776581 563.041504,161.840393 559.426147,173.822678 
	C555.830994,185.738358 548.279602,193.843918 537.393860,199.443466 
	C524.795593,205.923889 511.181244,206.430939 497.523438,206.834625 
	C491.529816,207.011765 485.526581,206.863388 479.033234,206.862823 
z"/>
<path fill="#FFFFFE" opacity="1.000000" stroke="none" 
	d="
M66.568375,122.613678 
	C89.728355,87.558784 121.492599,65.011368 162.254929,56.938320 
	C211.703339,47.144981 255.996567,59.061058 293.816498,92.949226 
	C319.790405,116.222870 336.443665,145.103943 341.449158,179.571060 
	C350.621918,242.733215 328.814270,294.051453 275.948822,329.309387 
	C223.889664,364.029510 168.465042,364.764801 114.776688,332.498108 
	C72.008041,306.794159 47.953930,267.604218 42.902260,217.507538 
	C39.445732,183.229706 48.116093,151.856888 66.568375,122.613678 
M180.562729,184.967514 
	C193.541580,175.700912 209.884384,182.489243 212.662796,198.673080 
	C213.407806,203.012787 215.099091,204.221863 219.051239,204.243164 
	C224.154404,204.270630 229.255371,204.708633 234.506241,204.977478 
	C234.741699,207.233795 234.944061,209.173065 235.174393,211.380203 
	C240.739029,211.380203 246.157379,211.380203 251.866577,211.380203 
	C251.866577,204.721252 251.866577,198.320557 251.866577,191.625900 
	C246.218704,191.625900 240.799835,191.625900 235.203140,191.625900 
	C234.957275,193.752747 234.736145,195.665558 234.502731,197.684677 
	C229.297607,197.684677 224.365784,197.684677 219.351379,197.684677 
	C217.161316,188.799820 212.656967,181.776718 204.685013,177.526276 
	C190.540649,169.984894 172.844055,177.514389 167.859482,192.871475 
	C167.303741,194.583664 165.744003,196.974991 164.334106,197.217789 
	C159.986710,197.966461 155.486282,197.826477 151.005157,198.033539 
	C150.731628,195.461411 150.526932,193.536682 150.332870,191.711792 
	C123.754646,191.711792 97.520500,191.711792 71.276703,191.711792 
	C71.276703,198.191010 71.276703,204.287399 71.276703,210.736206 
	C97.928444,210.736206 124.290222,210.736206 150.586121,210.736206 
	C150.948318,208.554001 151.240845,206.791580 151.542191,204.975967 
	C157.094864,204.669418 162.449387,204.719391 167.668808,203.904205 
	C169.577789,203.606049 172.529556,201.368454 172.659088,199.819412 
	C173.157959,193.853027 176.322556,189.589874 180.562729,184.967514 
M260.500000,132.135422 
	C252.079071,132.135422 243.658157,132.135422 235.262711,132.135422 
	C235.262711,139.042572 235.262711,145.259399 235.262711,151.797302 
	C261.675751,151.797302 287.678833,151.797302 313.725281,151.797302 
	C313.725281,145.143967 313.725281,138.794800 313.725281,132.135559 
	C296.036652,132.135559 278.768341,132.135559 260.500000,132.135422 
M148.312714,270.071869 
	C148.949326,269.465393 150.122711,268.872681 150.138672,268.250305 
	C150.282242,262.652985 150.222549,257.050446 150.222549,251.225708 
	C123.603447,251.225708 97.552040,251.225708 71.264526,251.225708 
	C71.264526,257.529999 71.264526,263.583740 71.264526,270.103333 
	C96.812515,270.103333 122.077637,270.103333 148.312714,270.071869 
M258.500000,250.976059 
	C250.736511,250.976059 242.973038,250.976059 235.212341,250.976059 
	C235.212341,257.683167 235.212341,263.728821 235.212341,269.768982 
	C261.630829,269.768982 287.665253,269.768982 313.722900,269.768982 
	C313.722900,263.376099 313.722900,257.330048 313.722900,250.976044 
	C295.403839,250.976044 277.451904,250.976044 258.500000,250.976059 
M133.498276,132.068039 
	C112.765427,132.068039 92.032585,132.068039 70.772598,132.068039 
	C71.076683,138.745560 71.351830,144.787415 71.627350,150.837677 
	C98.280312,150.837677 124.108017,150.837677 150.047821,150.837677 
	C150.047821,144.477585 150.047821,138.546585 150.047821,132.068100 
	C144.716614,132.068100 139.606735,132.068100 133.498276,132.068039 
M258.020752,200.527893 
	C258.053467,206.352463 257.732910,212.211990 258.303772,217.983322 
	C258.513428,220.102844 260.757385,223.692230 262.199829,223.756073 
	C274.467926,224.299194 286.765106,224.222534 299.053680,224.235809 
	C301.778870,224.238754 303.188934,222.863190 303.204041,219.864365 
	C303.255951,209.559692 303.614197,199.255203 303.547424,188.952652 
	C303.536133,187.212296 302.422424,184.975998 301.078583,183.856430 
	C298.598053,181.789856 295.569550,180.380981 292.331940,178.435226 
	C290.700348,184.803574 285.009155,182.161285 280.606537,182.787903 
	C275.856262,183.463989 271.196655,183.389435 269.133148,177.608276 
	C267.257965,179.750687 266.033325,182.361542 264.779816,182.375504 
	C258.857422,182.441406 258.782623,186.625076 258.365692,190.569290 
	C258.051849,193.538361 258.127563,196.548599 258.020752,200.527893 
M163.435516,239.037750 
	C165.549454,239.037750 167.663391,239.037750 170.342163,239.037750 
	C170.342163,253.975143 170.342163,268.351227 170.342163,283.102966 
	C172.690460,282.996155 174.449844,282.916138 176.082016,282.841888 
	C176.082016,265.812958 176.082016,249.200775 176.082016,232.036224 
	C167.191467,232.036224 159.115982,232.036224 151.232468,232.036224 
	C150.918976,230.062302 150.698044,228.671234 150.194855,225.503067 
	C145.768768,229.293167 142.299927,232.263580 138.239304,235.740723 
	C142.171799,239.194183 145.564377,242.173508 149.731934,245.833389 
	C150.464645,242.810928 150.899597,241.016815 151.379364,239.037766 
	C155.161911,239.037766 158.809555,239.037766 163.435516,239.037750 
M215.691528,247.537964 
	C215.691528,244.797516 215.691528,242.057053 215.691528,239.308838 
	C222.627563,239.308838 228.716019,239.308838 234.691895,239.308838 
	C235.081314,241.011719 235.403748,242.421707 236.137848,245.631805 
	C240.282471,242.050323 243.612061,239.173126 246.353302,236.804337 
	C243.109024,232.851883 240.219559,229.331665 237.330078,225.811462 
	C236.863342,225.994797 236.396622,226.178146 235.929901,226.361481 
	C235.509506,228.220490 235.089127,230.079483 234.559128,232.423248 
	C226.251694,232.423248 217.816391,232.423248 209.259949,232.423248 
	C209.259949,249.509903 209.259949,266.068848 209.259949,282.704041 
	C211.451065,282.704041 213.343460,282.704041 215.691071,282.704041 
	C215.691071,271.103668 215.691071,259.817169 215.691528,247.537964 
M175.435852,123.410286 
	C174.503784,122.475632 173.571716,121.540985 172.639648,120.606339 
	C171.856842,121.811249 170.416763,123.004295 170.394775,124.222939 
	C170.211746,134.361603 170.290207,144.504974 170.289764,154.646927 
	C170.289642,157.393707 170.289764,160.140472 170.289764,162.961960 
	C163.379486,162.961960 157.308411,162.961960 151.336929,162.961960 
	C150.888947,161.112762 150.521576,159.596344 149.801651,156.624527 
	C145.682404,160.385605 142.391937,163.389969 138.501968,166.941727 
	C142.376556,170.468491 145.657898,173.455246 148.939240,176.442017 
	C149.386795,176.182526 149.834351,175.923019 150.281921,175.663528 
	C150.424042,173.838043 150.566177,172.012558 150.730225,169.905533 
	C157.392471,169.905533 164.206894,169.700272 171.001114,169.982132 
	C175.110504,170.152603 176.713196,168.715805 176.586517,164.611710 
	C176.171310,151.158859 175.925323,137.700775 175.435852,123.410286 
M233.118912,169.909866 
	C234.169739,171.498947 235.220581,173.088028 236.964935,175.725876 
	C240.356140,172.831223 243.819931,169.874634 247.693802,166.567993 
	C243.539474,163.188721 240.063156,160.360947 235.887573,156.964386 
	C235.302170,159.861359 234.988602,161.413132 234.675446,162.962860 
	C228.332535,162.962860 222.268158,162.962860 215.224304,162.962860 
	C215.224304,148.585617 215.224304,134.550522 215.224304,120.112061 
	C212.661591,120.263847 211.111008,120.355682 209.377457,120.458359 
	C209.377457,137.158752 209.377457,153.366394 209.377457,169.889618 
	C217.245453,169.889618 224.718674,169.889618 233.118912,169.909866 
M314.911652,203.418854 
	C314.929352,200.927780 315.018188,198.434708 314.947754,195.946121 
	C314.846069,192.353119 312.913025,191.068161 309.364960,191.646317 
	C309.364960,198.440399 309.364960,205.015366 309.364960,211.547012 
	C316.444794,212.844360 314.476440,207.738663 314.911652,203.418854 
z"/>
<path fill="#F7F7FA" opacity="1.000000" stroke="none" 
	d="
M600.517212,304.713379 
	C604.610413,293.491211 613.996155,293.248993 622.411621,295.362000 
	C623.347961,295.597107 624.468506,297.484192 624.485962,298.620880 
	C624.644653,308.916443 624.712341,319.218018 624.522644,329.512573 
	C624.413879,335.415405 620.238464,339.475525 613.746277,340.687897 
	C608.096985,341.742889 602.729980,339.026428 600.509888,333.388672 
	C596.824829,324.030823 597.584900,314.524628 600.517212,304.713379 
z"/>
<path fill="#F7F7FA" opacity="1.000000" stroke="none" 
	d="
M836.284241,312.613647 
	C832.613708,313.079681 829.332214,313.399750 826.061462,313.718781 
	C824.994812,304.994934 829.791138,296.685638 837.047119,294.605042 
	C841.150818,293.428284 845.131165,293.511597 847.588745,297.679443 
	C849.819763,301.463104 848.461609,306.242737 844.296814,308.976440 
	C841.986938,310.492615 839.229187,311.326355 836.284241,312.613647 
z"/>
<path fill="#FFB836" opacity="1.000000" stroke="none" 
	d="
M180.282715,185.201752 
	C176.322556,189.589874 173.157959,193.853027 172.659088,199.819412 
	C172.529556,201.368454 169.577789,203.606049 167.668808,203.904205 
	C162.449387,204.719391 157.094864,204.669418 151.542191,204.975967 
	C151.240845,206.791580 150.948318,208.554001 150.586121,210.736206 
	C124.290222,210.736206 97.928444,210.736206 71.276703,210.736206 
	C71.276703,204.287399 71.276703,198.191010 71.276703,191.711792 
	C97.520500,191.711792 123.754646,191.711792 150.332870,191.711792 
	C150.526932,193.536682 150.731628,195.461411 151.005157,198.033539 
	C155.486282,197.826477 159.986710,197.966461 164.334106,197.217789 
	C165.744003,196.974991 167.303741,194.583664 167.859482,192.871475 
	C172.844055,177.514389 190.540649,169.984894 204.685013,177.526276 
	C212.656967,181.776718 217.161316,188.799820 219.351379,197.684677 
	C224.365784,197.684677 229.297607,197.684677 234.502731,197.684677 
	C234.736145,195.665558 234.957275,193.752747 235.203140,191.625900 
	C240.799835,191.625900 246.218704,191.625900 251.866577,191.625900 
	C251.866577,198.320557 251.866577,204.721252 251.866577,211.380203 
	C246.157379,211.380203 240.739029,211.380203 235.174393,211.380203 
	C234.944061,209.173065 234.741699,207.233795 234.506241,204.977478 
	C229.255371,204.708633 224.154404,204.270630 219.051239,204.243164 
	C215.099091,204.221863 213.407806,203.012787 212.662796,198.673080 
	C209.884384,182.489243 193.541580,175.700912 180.282715,185.201752 
z"/>
<path fill="#FFB632" opacity="1.000000" stroke="none" 
	d="
M261.000000,132.135498 
	C278.768341,132.135559 296.036652,132.135559 313.725281,132.135559 
	C313.725281,138.794800 313.725281,145.143967 313.725281,151.797302 
	C287.678833,151.797302 261.675751,151.797302 235.262711,151.797302 
	C235.262711,145.259399 235.262711,139.042572 235.262711,132.135422 
	C243.658157,132.135422 252.079071,132.135422 261.000000,132.135498 
z"/>
<path fill="#FFB52F" opacity="1.000000" stroke="none" 
	d="
M147.827728,270.087585 
	C122.077637,270.103333 96.812515,270.103333 71.264526,270.103333 
	C71.264526,263.583740 71.264526,257.529999 71.264526,251.225708 
	C97.552040,251.225708 123.603447,251.225708 150.222549,251.225708 
	C150.222549,257.050446 150.282242,262.652985 150.138672,268.250305 
	C150.122711,268.872681 148.949326,269.465393 147.827728,270.087585 
z"/>
<path fill="#FFB52F" opacity="1.000000" stroke="none" 
	d="
M259.000000,250.976044 
	C277.451904,250.976044 295.403839,250.976044 313.722900,250.976044 
	C313.722900,257.330048 313.722900,263.376099 313.722900,269.768982 
	C287.665253,269.768982 261.630829,269.768982 235.212341,269.768982 
	C235.212341,263.728821 235.212341,257.683167 235.212341,250.976059 
	C242.973038,250.976059 250.736511,250.976059 259.000000,250.976044 
z"/>
<path fill="#FFB631" opacity="1.000000" stroke="none" 
	d="
M133.997559,132.068069 
	C139.606735,132.068100 144.716614,132.068100 150.047821,132.068100 
	C150.047821,138.546585 150.047821,144.477585 150.047821,150.837677 
	C124.108017,150.837677 98.280312,150.837677 71.627350,150.837677 
	C71.351830,144.787415 71.076683,138.745560 70.772598,132.068039 
	C92.032585,132.068039 112.765427,132.068039 133.997559,132.068069 
z"/>
<path fill="#FFB838" opacity="1.000000" stroke="none" 
	d="
M258.025330,200.034210 
	C258.127563,196.548599 258.051849,193.538361 258.365692,190.569290 
	C258.782623,186.625076 258.857422,182.441406 264.779816,182.375504 
	C266.033325,182.361542 267.257965,179.750687 269.133148,177.608276 
	C271.196655,183.389435 275.856262,183.463989 280.606537,182.787903 
	C285.009155,182.161285 290.700348,184.803574 292.331940,178.435226 
	C295.569550,180.380981 298.598053,181.789856 301.078583,183.856430 
	C302.422424,184.975998 303.536133,187.212296 303.547424,188.952652 
	C303.614197,199.255203 303.255951,209.559692 303.204041,219.864365 
	C303.188934,222.863190 301.778870,224.238754 299.053680,224.235809 
	C286.765106,224.222534 274.467926,224.299194 262.199829,223.756073 
	C260.757385,223.692230 258.513428,220.102844 258.303772,217.983322 
	C257.732910,212.211990 258.053467,206.352463 258.025330,200.034210 
M269.656769,220.900055 
	C279.398499,220.900055 289.140259,220.900055 299.329224,220.900055 
	C299.329224,213.033768 299.241364,206.045654 299.369781,199.061539 
	C299.425964,196.004913 298.208618,195.002762 295.219391,195.073914 
	C289.059204,195.220490 282.892090,195.065811 276.727753,195.049728 
	C271.975372,195.037323 267.222931,195.047256 262.083649,195.047256 
	C262.083649,202.309296 262.046722,208.290237 262.093536,214.270508 
	C262.144653,220.802963 262.178467,220.802704 269.656769,220.900055 
z"/>
<path fill="#FFBC42" opacity="1.000000" stroke="none" 
	d="
M162.946365,239.037750 
	C158.809555,239.037766 155.161911,239.037766 151.379364,239.037766 
	C150.899597,241.016815 150.464645,242.810928 149.731934,245.833389 
	C145.564377,242.173508 142.171799,239.194183 138.239304,235.740723 
	C142.299927,232.263580 145.768768,229.293167 150.194855,225.503067 
	C150.698044,228.671234 150.918976,230.062302 151.232468,232.036224 
	C159.115982,232.036224 167.191467,232.036224 176.082016,232.036224 
	C176.082016,249.200775 176.082016,265.812958 176.082016,282.841888 
	C174.449844,282.916138 172.690460,282.996155 170.342163,283.102966 
	C170.342163,268.351227 170.342163,253.975143 170.342163,239.037750 
	C167.663391,239.037750 165.549454,239.037750 162.946365,239.037750 
z"/>
<path fill="#FFBA3C" opacity="1.000000" stroke="none" 
	d="
M215.691299,248.034317 
	C215.691071,259.817169 215.691071,271.103668 215.691071,282.704041 
	C213.343460,282.704041 211.451065,282.704041 209.259949,282.704041 
	C209.259949,266.068848 209.259949,249.509903 209.259949,232.423248 
	C217.816391,232.423248 226.251694,232.423248 234.559128,232.423248 
	C235.089127,230.079483 235.509506,228.220490 235.929901,226.361481 
	C236.396622,226.178146 236.863342,225.994797 237.330078,225.811462 
	C240.219559,229.331665 243.109024,232.851883 246.353302,236.804337 
	C243.612061,239.173126 240.282471,242.050323 236.137848,245.631805 
	C235.403748,242.421707 235.081314,241.011719 234.691895,239.308838 
	C228.716019,239.308838 222.627563,239.308838 215.691528,239.308838 
	C215.691528,242.057053 215.691528,244.797516 215.691299,248.034317 
z"/>
<path fill="#FFBB40" opacity="1.000000" stroke="none" 
	d="
M175.525070,123.827499 
	C175.925323,137.700775 176.171310,151.158859 176.586517,164.611710 
	C176.713196,168.715805 175.110504,170.152603 171.001114,169.982132 
	C164.206894,169.700272 157.392471,169.905533 150.730225,169.905533 
	C150.566177,172.012558 150.424042,173.838043 150.281921,175.663528 
	C149.834351,175.923019 149.386795,176.182526 148.939240,176.442017 
	C145.657898,173.455246 142.376556,170.468491 138.501968,166.941727 
	C142.391937,163.389969 145.682404,160.385605 149.801651,156.624527 
	C150.521576,159.596344 150.888947,161.112762 151.336929,162.961960 
	C157.308411,162.961960 163.379486,162.961960 170.289764,162.961960 
	C170.289764,160.140472 170.289642,157.393707 170.289764,154.646927 
	C170.290207,144.504974 170.211746,134.361603 170.394775,124.222939 
	C170.416763,123.004295 171.856842,121.811249 172.639648,120.606339 
	C173.571716,121.540985 174.503784,122.475632 175.525070,123.827499 
z"/>
<path fill="#FFB93A" opacity="1.000000" stroke="none" 
	d="
M232.655411,169.899750 
	C224.718674,169.889618 217.245453,169.889618 209.377457,169.889618 
	C209.377457,153.366394 209.377457,137.158752 209.377457,120.458359 
	C211.111008,120.355682 212.661591,120.263847 215.224304,120.112061 
	C215.224304,134.550522 215.224304,148.585617 215.224304,162.962860 
	C222.268158,162.962860 228.332535,162.962860 234.675446,162.962860 
	C234.988602,161.413132 235.302170,159.861359 235.887573,156.964386 
	C240.063156,160.360947 243.539474,163.188721 247.693802,166.567993 
	C243.819931,169.874634 240.356140,172.831223 236.964935,175.725876 
	C235.220581,173.088028 234.169739,171.498947 232.655411,169.899750 
z"/>
<path fill="#FFBD45" opacity="1.000000" stroke="none" 
	d="
M314.901276,203.890839 
	C314.476440,207.738663 316.444794,212.844360 309.364960,211.547012 
	C309.364960,205.015366 309.364960,198.440399 309.364960,191.646317 
	C312.913025,191.068161 314.846069,192.353119 314.947754,195.946121 
	C315.018188,198.434708 314.929352,200.927780 314.901276,203.890839 
z"/>
<path fill="#FFFDFA" opacity="1.000000" stroke="none" 
	d="
M269.181641,220.895996 
	C262.178467,220.802704 262.144653,220.802963 262.093536,214.270508 
	C262.046722,208.290237 262.083649,202.309296 262.083649,195.047256 
	C267.222931,195.047256 271.975372,195.037323 276.727753,195.049728 
	C282.892090,195.065811 289.059204,195.220490 295.219391,195.073914 
	C298.208618,195.002762 299.425964,196.004913 299.369781,199.061539 
	C299.241364,206.045654 299.329224,213.033768 299.329224,220.900055 
	C289.140259,220.900055 279.398499,220.900055 269.181641,220.895996 
M288.014191,201.180283 
	C284.869354,203.818832 281.724548,206.457382 278.545593,209.124588 
	C277.231537,208.207779 276.239899,207.214340 275.044403,206.772842 
	C274.001129,206.387512 272.728180,206.624069 271.556702,206.585861 
	C271.860382,207.602371 271.949554,208.760361 272.508850,209.608261 
	C274.047638,211.941071 275.783447,214.143936 277.835632,216.934341 
	C282.739655,211.439545 286.392334,207.424896 289.946320,203.324631 
	C291.283112,201.782379 291.360779,200.573593 288.014191,201.180283 
z"/>
<path fill="#FFBB3F" opacity="1.000000" stroke="none" 
	d="
M288.364014,201.048065 
	C291.360779,200.573593 291.283112,201.782379 289.946320,203.324631 
	C286.392334,207.424896 282.739655,211.439545 277.835632,216.934341 
	C275.783447,214.143936 274.047638,211.941071 272.508850,209.608261 
	C271.949554,208.760361 271.860382,207.602371 271.556702,206.585861 
	C272.728180,206.624069 274.001129,206.387512 275.044403,206.772842 
	C276.239899,207.214340 277.231537,208.207779 278.545593,209.124588 
	C281.724548,206.457382 284.869354,203.818832 288.364014,201.048065 
z"/>
</svg>