<svg version="1.1" id="Layer_1" xmlns="http://www.w3.org/2000/svg" xmlns:xlink="http://www.w3.org/1999/xlink" x="0px" y="0px"
	 width="100%" viewBox="0 0 976 391" enable-background="new 0 0 976 391" xml:space="preserve">
<path fill="#040153" opacity="1.000000" stroke="none" 
	d="
M734.000000,392.000000 
	C489.333435,392.000000 245.166840,392.000000 1.000196,392.000000 
	C1.000131,261.666809 1.000131,131.333603 1.000066,1.000301 
	C326.333099,1.000201 651.666199,1.000201 976.999451,1.000100 
	C976.999634,131.333038 976.999634,261.666077 976.999817,391.999573 
	C896.166687,392.000000 815.333313,392.000000 734.000000,392.000000 
M541.050842,48.633335 
	C497.494263,48.633335 453.937683,48.633335 410.431061,48.633335 
	C410.431061,59.332790 410.431061,69.288979 410.431061,79.489250 
	C415.447296,80.571144 420.296112,81.599213 425.136749,82.664444 
	C437.248169,85.329674 440.005798,88.572365 440.640869,100.887802 
	C440.709442,102.217926 440.687561,103.553284 440.688629,104.886230 
	C440.734222,161.714005 440.778320,218.541794 440.818115,275.369568 
	C440.819305,277.035522 440.862183,278.708527 440.732910,280.366333 
	C440.101044,288.471466 436.695740,292.794220 428.864319,295.085358 
	C423.922394,296.531158 418.863800,297.578003 413.920624,299.019989 
	C412.730072,299.367310 410.890076,300.552582 410.871735,301.386047 
	C410.657349,311.121704 410.734375,320.863800 410.734375,330.499725 
	C450.924500,330.499725 490.325928,330.499725 529.846191,330.499725 
	C529.846191,320.182953 529.846191,310.206818 529.846191,299.800690 
	C522.468933,298.551941 515.132263,297.216064 507.764252,296.083954 
	C495.237183,294.159149 492.231293,290.821838 492.169891,278.050079 
	C492.101807,263.885101 492.144928,249.719543 492.169617,235.554306 
	C492.171814,234.298935 492.395081,233.043976 492.542542,231.509308 
	C507.055084,231.509308 521.224854,231.960968 535.350403,231.364929 
	C546.444275,230.896835 557.778442,230.340347 568.491516,227.720184 
	C600.420471,219.911179 622.817383,201.022141 631.646057,168.455475 
	C636.936096,148.941742 636.475647,129.221085 631.064392,109.721474 
	C625.628845,90.134331 614.376038,74.767784 597.022766,64.030869 
	C580.169617,53.603443 561.675537,48.970047 541.050842,48.633335 
M63.409103,256.117706 
	C73.812820,284.868744 91.058395,308.771271 114.934151,327.761353 
	C155.523834,360.045166 201.460297,371.909210 252.261459,360.967133 
	C304.395142,349.737976 342.314209,319.115173 365.802704,271.503845 
	C386.872131,228.795929 388.245117,184.546402 370.794891,140.319901 
	C356.241913,103.436249 331.276093,75.114281 296.272949,56.033844 
	C261.261200,36.948692 223.927856,31.322927 185.067505,39.276207 
	C137.453552,49.021027 100.995216,75.692398 76.487953,117.382339 
	C50.855652,160.986130 46.702541,207.362305 63.409103,256.117706 
M776.492065,70.842873 
	C761.403137,70.842873 746.314148,70.842873 731.190308,70.842873 
	C731.190308,76.605072 731.190308,81.703880 731.190308,86.946541 
	C733.338745,87.389465 735.303345,87.729958 737.235168,88.203766 
	C746.336548,90.436073 746.944763,91.236969 746.946167,100.788269 
	C746.948975,119.947403 746.995117,139.106735 746.918518,158.265564 
	C746.894592,164.252335 747.002869,170.298584 746.236511,176.212082 
	C744.199890,191.927536 734.280945,199.576660 717.272156,199.104370 
	C702.823059,198.703156 692.548157,189.533463 692.160767,174.694153 
	C691.478394,148.556290 691.819031,122.391655 691.740112,96.238213 
	C691.728271,92.314110 693.836365,90.081551 697.527771,89.189285 
	C700.861267,88.383537 704.202148,87.607933 707.277466,86.881027 
	C707.277466,81.249619 707.277466,76.170578 707.277466,71.229996 
	C687.360474,71.229996 667.805054,71.229996 648.052856,71.229996 
	C648.052856,74.099846 648.052856,76.583931 648.052856,79.068016 
	C648.052856,81.666031 648.052856,84.264053 648.052856,86.894081 
	C650.576050,87.417084 652.541504,87.757851 654.472900,88.236145 
	C663.538147,90.481125 663.995239,91.077965 663.997803,100.386307 
	C664.004456,124.210258 663.690613,148.039764 664.108337,171.856476 
	C664.468506,192.388535 673.119019,208.097000 692.908691,216.211655 
	C703.116150,220.397156 713.878540,221.412506 724.773254,220.695618 
	C756.534241,218.605637 775.413635,200.299149 774.640015,166.956741 
	C774.133850,145.143738 774.544434,123.309448 774.545166,101.484695 
	C774.545227,100.151909 774.590271,98.817940 774.549194,97.486534 
	C774.396851,92.545929 776.599121,89.703529 781.628418,88.937347 
	C784.542725,88.493378 787.381226,87.552071 790.173828,86.854561 
	C790.173828,81.406891 790.173828,76.290413 790.173828,70.842865 
	C785.788391,70.842865 781.637695,70.842865 776.492065,70.842873 
M915.153625,87.921814 
	C915.404846,85.453499 915.656067,82.985184 915.899658,80.592171 
	C898.579773,70.294556 880.029785,66.886612 860.505310,69.364723 
	C836.199280,72.449715 818.760620,85.067955 810.104126,108.372246 
	C801.978638,130.246979 801.475220,152.759796 807.297180,175.154388 
	C813.139465,197.627213 827.051086,213.143814 850.247925,218.411102 
	C871.413574,223.217148 891.901245,219.652298 911.547180,210.888199 
	C912.401367,210.507156 913.134766,208.508743 912.967041,207.409897 
	C912.117310,201.844131 910.950928,196.326706 909.959839,191.129807 
	C900.937500,193.340454 892.374451,196.170380 883.585815,197.443268 
	C863.818604,200.306274 845.468079,194.280472 838.117554,174.542694 
	C829.686646,151.903809 830.642151,128.807159 839.587463,106.334518 
	C842.615295,98.727921 848.734802,93.826324 856.735962,91.480209 
	C866.973755,88.478279 876.843567,90.306297 886.511475,93.859985 
	C887.649719,94.278366 888.638977,96.162201 888.965088,97.540031 
	C890.151123,102.550873 890.923950,107.659119 892.092102,112.674858 
	C892.372375,113.878441 893.536194,115.773170 894.361633,115.809608 
	C900.432556,116.077591 906.520752,115.954369 912.686768,115.954369 
	C913.538757,106.384979 914.320435,97.605408 915.153625,87.921814 
M732.298767,270.720276 
	C732.298767,273.021454 732.298767,275.322632 732.298767,277.550751 
	C740.295898,278.755524 740.296143,278.755524 740.296448,286.496338 
	C740.296753,294.827118 739.959290,303.176605 740.418945,311.481934 
	C740.709167,316.724731 739.473022,319.756287 733.792175,319.785370 
	C733.568298,319.786499 733.346680,320.212982 733.139526,320.425354 
	C733.139526,323.186859 733.139526,325.934448 733.139526,328.674255 
	C742.964294,328.674255 752.505127,328.674255 762.094482,328.674255 
	C762.094482,325.372742 762.094482,322.411499 762.094482,319.287109 
	C759.841553,319.078400 757.768738,318.886353 755.555786,318.681335 
	C755.555786,308.524750 755.385864,298.700623 755.613892,288.885712 
	C755.772766,282.050446 760.804871,277.694702 767.768799,277.759918 
	C774.215820,277.820282 776.891418,280.754608 777.101501,288.592468 
	C777.293457,295.751862 777.156433,302.920135 777.159363,310.084503 
	C777.162598,317.936096 777.160095,317.936096 769.999023,320.143707 
	C769.999023,323.004944 769.999023,325.902496 769.999023,328.645966 
	C779.871704,328.645966 789.448669,328.645966 798.874084,328.645966 
	C798.874084,325.329163 798.874084,322.381470 798.874084,319.227325 
	C796.561035,319.064972 794.493103,318.919800 792.140442,318.754669 
	C792.140442,316.562317 792.141235,314.756714 792.140381,312.951111 
	C792.135864,303.620667 792.413879,294.279449 792.059570,284.962311 
	C791.532349,271.096832 781.336548,263.325836 767.869141,266.731537 
	C762.906921,267.986420 758.341736,270.811127 753.568726,272.931671 
	C753.389282,271.664398 753.142761,269.923218 752.872498,268.014618 
	C746.812134,268.014618 740.985046,267.932770 735.164795,268.095459 
	C734.198730,268.122437 733.262573,269.216461 732.298767,270.720276 
M722.313660,329.010437 
	C723.748291,328.917511 725.182983,328.824585 726.435425,328.743439 
	C726.435425,325.283234 726.435425,322.239563 726.435425,319.141815 
	C724.090881,319.039215 722.143555,318.953979 719.835205,318.852966 
	C719.835205,307.596283 719.970520,296.641968 719.800232,285.692444 
	C719.596741,272.605072 711.700195,265.343170 698.697388,266.123749 
	C692.025635,266.524261 686.377930,269.428253 681.093628,274.575745 
	C680.960266,271.966919 680.865845,270.118958 680.769836,268.241486 
	C673.723999,268.241486 667.126953,268.241486 660.316162,268.241486 
	C660.316162,271.546234 660.316162,274.625061 660.316162,277.674774 
	C668.085754,278.648499 668.086060,278.648499 668.086243,286.605713 
	C668.086487,295.764709 668.004395,304.924835 668.130859,314.082092 
	C668.174744,317.260590 667.415222,319.301575 663.799744,319.220398 
	C661.311218,319.164520 660.187927,320.325165 660.424805,322.916748 
	C660.601074,324.845581 660.459534,326.803497 660.459534,328.661499 
	C670.624146,328.661499 680.190002,328.661499 689.696533,328.661499 
	C689.696533,325.363281 689.696533,322.417053 689.696533,319.310089 
	C687.453735,319.078369 685.404602,318.866638 683.150085,318.633698 
	C683.150085,308.489807 682.955750,298.680237 683.216614,288.882843 
	C683.398499,282.050964 688.489380,277.691071 695.415222,277.749939 
	C701.735229,277.803650 704.429749,280.448700 704.715027,288.072083 
	C705.051025,297.052063 704.799744,306.053070 704.876343,315.044312 
	C704.901855,318.040924 703.422913,319.278961 700.591370,319.217651 
	C698.015259,319.161896 697.054138,320.413513 697.268616,322.940826 
	C697.431458,324.859589 697.300903,326.803223 697.300903,329.010437 
	C705.731262,329.010437 713.539368,329.010437 722.313660,329.010437 
M608.335876,329.372314 
	C617.943115,332.464874 626.573425,331.089630 633.994446,323.048218 
	C634.117310,325.391663 634.202087,327.008636 634.290771,328.699646 
	C640.896057,328.699646 647.289856,328.699646 653.589111,328.699646 
	C653.589111,325.312317 653.589111,322.247711 653.589111,318.955292 
	C648.301514,319.894287 646.899475,317.580811 647.052734,312.845276 
	C647.354004,303.539398 647.141052,294.216858 647.140991,284.901215 
	C647.140930,269.124268 647.197693,268.706024 631.428894,266.568451 
	C613.106812,264.084808 598.533447,270.533234 594.674805,288.618652 
	C593.056213,296.205048 593.470825,304.499634 594.444092,312.286865 
	C595.403870,319.965332 599.734985,326.215576 608.335876,329.372314 
M812.788147,322.681152 
	C822.091309,334.140991 847.485229,332.771667 855.936890,323.256531 
	C854.468201,320.201141 852.982727,317.110901 851.407593,313.834045 
	C843.418945,318.695831 835.486084,321.683685 827.143677,316.668793 
	C823.180847,314.286652 821.424011,310.103210 821.739136,306.726837 
	C830.462463,304.328247 838.726379,302.978180 846.176575,299.750214 
	C853.755615,296.466400 856.507385,289.257751 855.791565,281.043976 
	C855.191711,274.160645 851.250610,269.768097 844.883545,267.514343 
	C832.682495,263.195526 818.578796,267.966797 811.483093,278.722198 
	C803.399353,290.975098 803.765869,310.101135 812.788147,322.681152 
M912.913269,279.424194 
	C912.543274,275.739929 913.484863,270.171997 911.507935,268.795502 
	C908.220093,266.506134 903.080139,266.613373 898.678589,266.305054 
	C896.680359,266.165100 894.369080,267.090088 892.578491,268.163574 
	C889.689087,269.895905 887.112793,272.150574 884.277893,274.279480 
	C884.163025,272.206146 884.056519,270.282318 883.945068,268.270874 
	C876.967834,268.270874 870.219116,268.270874 863.318176,268.270874 
	C863.318176,271.612396 863.318176,274.696777 863.318176,277.735931 
	C871.372986,279.258331 871.200867,277.322357 871.169495,286.547028 
	C871.142883,294.367767 871.164001,302.188660 871.163940,310.009491 
	C871.163940,318.002106 871.163879,318.002106 864.001343,320.099548 
	C864.001343,322.929443 864.001343,325.811493 864.001343,328.730591 
	C875.023682,328.730591 885.756958,328.730591 896.458374,328.730591 
	C896.458374,325.393768 896.458374,322.353455 896.458374,319.230194 
	C892.837097,319.070312 889.588440,318.926910 886.183594,318.776581 
	C886.183594,308.985321 886.025085,299.683380 886.242126,290.390167 
	C886.375732,284.668640 889.521301,280.470001 893.868591,279.200531 
	C898.916931,277.726349 900.962463,279.227356 901.097473,284.462646 
	C901.125916,285.564117 901.288940,286.662109 901.425720,288.151459 
	C905.356018,287.776031 908.957153,287.432007 912.913269,287.054108 
	C912.913269,284.652893 912.913269,282.514130 912.913269,279.424194 
M563.710693,279.499420 
	C563.710693,289.989380 563.477112,300.486755 563.809998,310.966156 
	C563.974365,316.139801 563.219971,319.792145 557.076965,319.794861 
	C556.838501,319.794952 556.600159,320.192657 556.448364,320.327972 
	C556.448364,323.177704 556.448364,325.932922 556.448364,328.685089 
	C566.292664,328.685089 575.848022,328.685089 585.309570,328.685089 
	C585.309570,325.298187 585.309570,322.255432 585.309570,319.177002 
	C582.988098,319.045166 581.054260,318.935333 578.829346,318.808960 
	C578.829346,293.378326 578.829346,268.287048 578.829346,242.990509 
	C571.269836,242.990509 564.030701,242.990509 556.692749,242.990509 
	C556.692749,246.396744 556.692749,249.504868 556.692749,252.579742 
	C563.708679,253.515961 563.709229,253.515961 563.710388,260.516602 
	C563.711365,266.510864 563.710693,272.505127 563.710693,279.499420 
z"/>
<path fill="#FDFDFE" opacity="1.000000" stroke="none" 
	d="
M541.517456,48.651047 
	C561.675537,48.970047 580.169617,53.603443 597.022766,64.030869 
	C614.376038,74.767784 625.628845,90.134331 631.064392,109.721474 
	C636.475647,129.221085 636.936096,148.941742 631.646057,168.455475 
	C622.817383,201.022141 600.420471,219.911179 568.491516,227.720184 
	C557.778442,230.340347 546.444275,230.896835 535.350403,231.364929 
	C521.224854,231.960968 507.055084,231.509308 492.542542,231.509308 
	C492.395081,233.043976 492.171814,234.298935 492.169617,235.554306 
	C492.144928,249.719543 492.101807,263.885101 492.169891,278.050079 
	C492.231293,290.821838 495.237183,294.159149 507.764252,296.083954 
	C515.132263,297.216064 522.468933,298.551941 529.846191,299.800690 
	C529.846191,310.206818 529.846191,320.182953 529.846191,330.499725 
	C490.325928,330.499725 450.924500,330.499725 410.734375,330.499725 
	C410.734375,320.863800 410.657349,311.121704 410.871735,301.386047 
	C410.890076,300.552582 412.730072,299.367310 413.920624,299.019989 
	C418.863800,297.578003 423.922394,296.531158 428.864319,295.085358 
	C436.695740,292.794220 440.101044,288.471466 440.732910,280.366333 
	C440.862183,278.708527 440.819305,277.035522 440.818115,275.369568 
	C440.778320,218.541794 440.734222,161.714005 440.688629,104.886230 
	C440.687561,103.553284 440.709442,102.217926 440.640869,100.887802 
	C440.005798,88.572365 437.248169,85.329674 425.136749,82.664444 
	C420.296112,81.599213 415.447296,80.571144 410.431061,79.489250 
	C410.431061,69.288979 410.431061,59.332790 410.431061,48.633335 
	C453.937683,48.633335 497.494263,48.633335 541.517456,48.651047 
M573.147949,170.551407 
	C581.752869,152.439026 581.664368,133.773956 575.612793,115.169647 
	C570.807678,100.396896 560.083191,90.419479 544.777649,88.617012 
	C527.697510,86.605560 510.309326,87.210655 492.905548,86.672287 
	C492.905548,122.511887 492.905548,157.357590 492.905548,192.170502 
	C508.104584,192.170502 522.914307,192.464737 537.707031,192.089493 
	C553.143616,191.697922 565.046082,184.743805 573.147949,170.551407 
z"/>
<path fill="#FAB230" opacity="1.000000" stroke="none" 
	d="
M63.278873,255.750214 
	C46.702541,207.362305 50.855652,160.986130 76.487953,117.382339 
	C100.995216,75.692398 137.453552,49.021027 185.067505,39.276207 
	C223.927856,31.322927 261.261200,36.948692 296.272949,56.033844 
	C331.276093,75.114281 356.241913,103.436249 370.794891,140.319901 
	C388.245117,184.546402 386.872131,228.795929 365.802704,271.503845 
	C342.314209,319.115173 304.395142,349.737976 252.261459,360.967133 
	C201.460297,371.909210 155.523834,360.045166 114.934151,327.761353 
	C91.058395,308.771271 73.812820,284.868744 63.278873,255.750214 
M75.338692,151.939560 
	C62.884190,189.100693 64.216003,225.778687 80.490242,261.421143 
	C100.766808,305.829163 135.012207,335.412231 182.217819,346.399719 
	C244.108780,360.805359 297.391113,342.506195 336.615448,292.462830 
	C375.410919,242.966629 379.946136,187.400208 351.733643,131.465866 
	C322.700012,73.903587 262.389709,41.567810 196.830460,51.353199 
	C137.212891,60.251732 97.235863,95.096184 75.338692,151.939560 
z"/>
<path fill="#FCFCFD" opacity="1.000000" stroke="none" 
	d="
M776.989502,70.842865 
	C781.637695,70.842865 785.788391,70.842865 790.173828,70.842865 
	C790.173828,76.290413 790.173828,81.406891 790.173828,86.854561 
	C787.381226,87.552071 784.542725,88.493378 781.628418,88.937347 
	C776.599121,89.703529 774.396851,92.545929 774.549194,97.486534 
	C774.590271,98.817940 774.545227,100.151909 774.545166,101.484695 
	C774.544434,123.309448 774.133850,145.143738 774.640015,166.956741 
	C775.413635,200.299149 756.534241,218.605637 724.773254,220.695618 
	C713.878540,221.412506 703.116150,220.397156 692.908691,216.211655 
	C673.119019,208.097000 664.468506,192.388535 664.108337,171.856476 
	C663.690613,148.039764 664.004456,124.210258 663.997803,100.386307 
	C663.995239,91.077965 663.538147,90.481125 654.472900,88.236145 
	C652.541504,87.757851 650.576050,87.417084 648.052856,86.894081 
	C648.052856,84.264053 648.052856,81.666031 648.052856,79.068016 
	C648.052856,76.583931 648.052856,74.099846 648.052856,71.229996 
	C667.805054,71.229996 687.360474,71.229996 707.277466,71.229996 
	C707.277466,76.170578 707.277466,81.249619 707.277466,86.881027 
	C704.202148,87.607933 700.861267,88.383537 697.527771,89.189285 
	C693.836365,90.081551 691.728271,92.314110 691.740112,96.238213 
	C691.819031,122.391655 691.478394,148.556290 692.160767,174.694153 
	C692.548157,189.533463 702.823059,198.703156 717.272156,199.104370 
	C734.280945,199.576660 744.199890,191.927536 746.236511,176.212082 
	C747.002869,170.298584 746.894592,164.252335 746.918518,158.265564 
	C746.995117,139.106735 746.948975,119.947403 746.946167,100.788269 
	C746.944763,91.236969 746.336548,90.436073 737.235168,88.203766 
	C735.303345,87.729958 733.338745,87.389465 731.190308,86.946541 
	C731.190308,81.703880 731.190308,76.605072 731.190308,70.842873 
	C746.314148,70.842873 761.403137,70.842873 776.989502,70.842865 
z"/>
<path fill="#FCFCFD" opacity="1.000000" stroke="none" 
	d="
M915.127869,88.373825 
	C914.320435,97.605408 913.538757,106.384979 912.686768,115.954369 
	C906.520752,115.954369 900.432556,116.077591 894.361633,115.809608 
	C893.536194,115.773170 892.372375,113.878441 892.092102,112.674858 
	C890.923950,107.659119 890.151123,102.550873 888.965088,97.540031 
	C888.638977,96.162201 887.649719,94.278366 886.511475,93.859985 
	C876.843567,90.306297 866.973755,88.478279 856.735962,91.480209 
	C848.734802,93.826324 842.615295,98.727921 839.587463,106.334518 
	C830.642151,128.807159 829.686646,151.903809 838.117554,174.542694 
	C845.468079,194.280472 863.818604,200.306274 883.585815,197.443268 
	C892.374451,196.170380 900.937500,193.340454 909.959839,191.129807 
	C910.950928,196.326706 912.117310,201.844131 912.967041,207.409897 
	C913.134766,208.508743 912.401367,210.507156 911.547180,210.888199 
	C891.901245,219.652298 871.413574,223.217148 850.247925,218.411102 
	C827.051086,213.143814 813.139465,197.627213 807.297180,175.154388 
	C801.475220,152.759796 801.978638,130.246979 810.104126,108.372246 
	C818.760620,85.067955 836.199280,72.449715 860.505310,69.364723 
	C880.029785,66.886612 898.579773,70.294556 915.899658,80.592171 
	C915.656067,82.985184 915.404846,85.453499 915.127869,88.373825 
z"/>
<path fill="#F8F8FA" opacity="1.000000" stroke="none" 
	d="
M732.305664,270.268829 
	C733.262573,269.216461 734.198730,268.122437 735.164795,268.095459 
	C740.985046,267.932770 746.812134,268.014618 752.872498,268.014618 
	C753.142761,269.923218 753.389282,271.664398 753.568726,272.931671 
	C758.341736,270.811127 762.906921,267.986420 767.869141,266.731537 
	C781.336548,263.325836 791.532349,271.096832 792.059570,284.962311 
	C792.413879,294.279449 792.135864,303.620667 792.140381,312.951111 
	C792.141235,314.756714 792.140442,316.562317 792.140442,318.754669 
	C794.493103,318.919800 796.561035,319.064972 798.874084,319.227325 
	C798.874084,322.381470 798.874084,325.329163 798.874084,328.645966 
	C789.448669,328.645966 779.871704,328.645966 769.999023,328.645966 
	C769.999023,325.902496 769.999023,323.004944 769.999023,320.143707 
	C777.160095,317.936096 777.162598,317.936096 777.159363,310.084503 
	C777.156433,302.920135 777.293457,295.751862 777.101501,288.592468 
	C776.891418,280.754608 774.215820,277.820282 767.768799,277.759918 
	C760.804871,277.694702 755.772766,282.050446 755.613892,288.885712 
	C755.385864,298.700623 755.555786,308.524750 755.555786,318.681335 
	C757.768738,318.886353 759.841553,319.078400 762.094482,319.287109 
	C762.094482,322.411499 762.094482,325.372742 762.094482,328.674255 
	C752.505127,328.674255 742.964294,328.674255 733.139526,328.674255 
	C733.139526,325.934448 733.139526,323.186859 733.139526,320.425354 
	C733.346680,320.212982 733.568298,319.786499 733.792175,319.785370 
	C739.473022,319.756287 740.709167,316.724731 740.418945,311.481934 
	C739.959290,303.176605 740.296753,294.827118 740.296448,286.496338 
	C740.296143,278.755524 740.295898,278.755524 732.298767,277.550751 
	C732.298767,275.322632 732.298767,273.021454 732.305664,270.268829 
z"/>
<path fill="#F9F9FB" opacity="1.000000" stroke="none" 
	d="
M721.830566,329.010437 
	C713.539368,329.010437 705.731262,329.010437 697.300903,329.010437 
	C697.300903,326.803223 697.431458,324.859589 697.268616,322.940826 
	C697.054138,320.413513 698.015259,319.161896 700.591370,319.217651 
	C703.422913,319.278961 704.901855,318.040924 704.876343,315.044312 
	C704.799744,306.053070 705.051025,297.052063 704.715027,288.072083 
	C704.429749,280.448700 701.735229,277.803650 695.415222,277.749939 
	C688.489380,277.691071 683.398499,282.050964 683.216614,288.882843 
	C682.955750,298.680237 683.150085,308.489807 683.150085,318.633698 
	C685.404602,318.866638 687.453735,319.078369 689.696533,319.310089 
	C689.696533,322.417053 689.696533,325.363281 689.696533,328.661499 
	C680.190002,328.661499 670.624146,328.661499 660.459534,328.661499 
	C660.459534,326.803497 660.601074,324.845581 660.424805,322.916748 
	C660.187927,320.325165 661.311218,319.164520 663.799744,319.220398 
	C667.415222,319.301575 668.174744,317.260590 668.130859,314.082092 
	C668.004395,304.924835 668.086487,295.764709 668.086243,286.605713 
	C668.086060,278.648499 668.085754,278.648499 660.316162,277.674774 
	C660.316162,274.625061 660.316162,271.546234 660.316162,268.241486 
	C667.126953,268.241486 673.723999,268.241486 680.769836,268.241486 
	C680.865845,270.118958 680.960266,271.966919 681.093628,274.575745 
	C686.377930,269.428253 692.025635,266.524261 698.697388,266.123749 
	C711.700195,265.343170 719.596741,272.605072 719.800232,285.692444 
	C719.970520,296.641968 719.835205,307.596283 719.835205,318.852966 
	C722.143555,318.953979 724.090881,319.039215 726.435425,319.141815 
	C726.435425,322.239563 726.435425,325.283234 726.435425,328.743439 
	C725.182983,328.824585 723.748291,328.917511 721.830566,329.010437 
z"/>
<path fill="#F8F8FA" opacity="1.000000" stroke="none" 
	d="
M607.967407,329.233337 
	C599.734985,326.215576 595.403870,319.965332 594.444092,312.286865 
	C593.470825,304.499634 593.056213,296.205048 594.674805,288.618652 
	C598.533447,270.533234 613.106812,264.084808 631.428894,266.568451 
	C647.197693,268.706024 647.140930,269.124268 647.140991,284.901215 
	C647.141052,294.216858 647.354004,303.539398 647.052734,312.845276 
	C646.899475,317.580811 648.301514,319.894287 653.589111,318.955292 
	C653.589111,322.247711 653.589111,325.312317 653.589111,328.699646 
	C647.289856,328.699646 640.896057,328.699646 634.290771,328.699646 
	C634.202087,327.008636 634.117310,325.391663 633.994446,323.048218 
	C626.573425,331.089630 617.943115,332.464874 607.967407,329.233337 
M632.459595,307.291748 
	C632.459412,298.814056 632.539612,290.334839 632.375366,281.860321 
	C632.349731,280.538818 631.543335,278.504089 630.532532,278.045593 
	C622.677612,274.482666 613.963379,278.034058 610.872803,286.050018 
	C607.791809,294.040955 607.681213,302.343292 609.632812,310.571594 
	C611.332886,317.739838 615.894409,320.789398 622.669128,319.992859 
	C628.531067,319.303619 631.988342,315.148132 632.459595,307.291748 
z"/>
<path fill="#F9F8FB" opacity="1.000000" stroke="none" 
	d="
M812.551636,322.410461 
	C803.765869,310.101135 803.399353,290.975098 811.483093,278.722198 
	C818.578796,267.966797 832.682495,263.195526 844.883545,267.514343 
	C851.250610,269.768097 855.191711,274.160645 855.791565,281.043976 
	C856.507385,289.257751 853.755615,296.466400 846.176575,299.750214 
	C838.726379,302.978180 830.462463,304.328247 821.739136,306.726837 
	C821.424011,310.103210 823.180847,314.286652 827.143677,316.668793 
	C835.486084,321.683685 843.418945,318.695831 851.407593,313.834045 
	C852.982727,317.110901 854.468201,320.201141 855.936890,323.256531 
	C847.485229,332.771667 822.091309,334.140991 812.551636,322.410461 
M825.072021,294.340942 
	C829.829834,292.720398 834.867188,291.627167 839.251587,289.302368 
	C842.414795,287.625122 843.219727,283.497223 841.157654,280.524933 
	C839.854492,278.646545 836.724731,277.170135 834.346497,277.066406 
	C827.429260,276.764740 820.254456,285.632660 821.185059,292.929718 
	C821.266602,293.568817 823.186401,293.973480 825.072021,294.340942 
z"/>
<path fill="#F9F9FB" opacity="1.000000" stroke="none" 
	d="
M912.913269,279.899780 
	C912.913269,282.514130 912.913269,284.652893 912.913269,287.054108 
	C908.957153,287.432007 905.356018,287.776031 901.425720,288.151459 
	C901.288940,286.662109 901.125916,285.564117 901.097473,284.462646 
	C900.962463,279.227356 898.916931,277.726349 893.868591,279.200531 
	C889.521301,280.470001 886.375732,284.668640 886.242126,290.390167 
	C886.025085,299.683380 886.183594,308.985321 886.183594,318.776581 
	C889.588440,318.926910 892.837097,319.070312 896.458374,319.230194 
	C896.458374,322.353455 896.458374,325.393768 896.458374,328.730591 
	C885.756958,328.730591 875.023682,328.730591 864.001343,328.730591 
	C864.001343,325.811493 864.001343,322.929443 864.001343,320.099548 
	C871.163879,318.002106 871.163940,318.002106 871.163940,310.009491 
	C871.164001,302.188660 871.142883,294.367767 871.169495,286.547028 
	C871.200867,277.322357 871.372986,279.258331 863.318176,277.735931 
	C863.318176,274.696777 863.318176,271.612396 863.318176,268.270874 
	C870.219116,268.270874 876.967834,268.270874 883.945068,268.270874 
	C884.056519,270.282318 884.163025,272.206146 884.277893,274.279480 
	C887.112793,272.150574 889.689087,269.895905 892.578491,268.163574 
	C894.369080,267.090088 896.680359,266.165100 898.678589,266.305054 
	C903.080139,266.613373 908.220093,266.506134 911.507935,268.795502 
	C913.484863,270.171997 912.543274,275.739929 912.913269,279.899780 
z"/>
<path fill="#F9F9FB" opacity="1.000000" stroke="none" 
	d="
M563.710693,278.999390 
	C563.710693,272.505127 563.711365,266.510864 563.710388,260.516602 
	C563.709229,253.515961 563.708679,253.515961 556.692749,252.579742 
	C556.692749,249.504868 556.692749,246.396744 556.692749,242.990509 
	C564.030701,242.990509 571.269836,242.990509 578.829346,242.990509 
	C578.829346,268.287048 578.829346,293.378326 578.829346,318.808960 
	C581.054260,318.935333 582.988098,319.045166 585.309570,319.177002 
	C585.309570,322.255432 585.309570,325.298187 585.309570,328.685089 
	C575.848022,328.685089 566.292664,328.685089 556.448364,328.685089 
	C556.448364,325.932922 556.448364,323.177704 556.448364,320.327972 
	C556.600159,320.192657 556.838501,319.794952 557.076965,319.794861 
	C563.219971,319.792145 563.974365,316.139801 563.809998,310.966156 
	C563.477112,300.486755 563.710693,289.989380 563.710693,278.999390 
z"/>
<path fill="#040154" opacity="1.000000" stroke="none" 
	d="
M573.024414,170.901016 
	C565.046082,184.743805 553.143616,191.697922 537.707031,192.089493 
	C522.914307,192.464737 508.104584,192.170502 492.905548,192.170502 
	C492.905548,157.357590 492.905548,122.511887 492.905548,86.672287 
	C510.309326,87.210655 527.697510,86.605560 544.777649,88.617012 
	C560.083191,90.419479 570.807678,100.396896 575.612793,115.169647 
	C581.664368,133.773956 581.752869,152.439026 573.024414,170.901016 
z"/>
<path fill="#050153" opacity="1.000000" stroke="none" 
	d="
M75.496506,151.576904 
	C97.235863,95.096184 137.212891,60.251732 196.830460,51.353199 
	C262.389709,41.567810 322.700012,73.903587 351.733643,131.465866 
	C379.946136,187.400208 375.410919,242.966629 336.615448,292.462830 
	C297.391113,342.506195 244.108780,360.805359 182.217819,346.399719 
	C135.012207,335.412231 100.766808,305.829163 80.490242,261.421143 
	C64.216003,225.778687 62.884190,189.100693 75.496506,151.576904 
M157.499359,207.106735 
	C163.611282,207.106735 169.723206,207.106735 175.770721,207.106735 
	C176.093979,204.630600 176.344803,202.709457 176.690002,200.065323 
	C182.240234,200.065323 187.545486,200.086121 192.850479,200.057449 
	C196.002487,200.040405 197.538696,198.555298 198.004517,195.269867 
	C199.572723,184.209122 207.455505,176.896805 217.462082,176.873077 
	C228.306488,176.847366 236.101349,183.752914 237.918121,195.377731 
	C238.426758,198.632248 239.792114,200.143890 243.037796,200.120605 
	C248.498077,200.081406 253.958847,200.109863 259.482513,200.109863 
	C259.770294,203.042099 259.973541,205.113068 260.164001,207.053955 
	C266.089264,207.053955 271.643066,207.053955 277.100098,207.053955 
	C277.100098,200.382996 277.100098,194.143143 277.100098,187.922195 
	C271.162933,187.922195 265.613495,187.922195 260.063049,187.922195 
	C259.879211,190.091278 259.729095,191.862473 259.572479,193.710327 
	C254.323166,193.710327 249.384109,193.710327 244.555710,193.710327 
	C238.579269,177.702438 230.044510,170.407104 217.728363,170.581863 
	C205.388153,170.756989 196.855652,178.129196 191.384979,193.596191 
	C186.289780,193.596191 181.063690,193.596191 175.736755,193.596191 
	C175.535492,191.579529 175.358505,189.806137 175.165756,187.874786 
	C148.712540,187.874786 122.515060,187.874786 96.302734,187.874786 
	C96.302734,194.310501 96.302734,200.388611 96.302734,207.102448 
	C116.567810,207.102448 136.533630,207.102448 157.499359,207.106735 
M314.500000,148.056107 
	C322.597443,148.056107 330.694885,148.056107 338.795532,148.056107 
	C338.795532,141.200974 338.795532,134.830322 338.795532,128.453644 
	C312.362122,128.453644 286.305267,128.453644 260.284607,128.453644 
	C260.284607,134.994720 260.284607,141.233597 260.284607,148.052429 
	C278.279266,148.052429 295.889648,148.052429 314.500000,148.056107 
M121.499985,266.124329 
	C139.401352,266.124329 157.302719,266.124329 175.123657,266.124329 
	C175.123657,259.402893 175.123657,253.349350 175.123657,247.302505 
	C148.602356,247.302505 122.431183,247.302505 96.319473,247.302505 
	C96.319473,253.706726 96.319473,259.776398 96.319473,266.124359 
	C104.581688,266.124359 112.540840,266.124359 121.499985,266.124329 
M281.500122,246.972076 
	C274.397095,246.972076 267.294037,246.972076 260.156433,246.972076 
	C260.156433,253.617493 260.156433,259.684570 260.156433,265.737671 
	C286.629761,265.737671 312.813293,265.737671 338.785126,265.737671 
	C338.785126,259.282104 338.785126,253.217926 338.785126,246.972076 
	C319.768555,246.972076 301.134277,246.972076 281.500122,246.972076 
M127.500000,128.077744 
	C117.067963,128.077744 106.635925,128.077744 95.781601,128.077744 
	C96.125748,134.776535 96.437904,140.852600 96.752861,146.983139 
	C123.313011,146.983139 149.207870,146.983139 175.195511,146.983139 
	C175.195511,140.560745 175.195511,134.487823 175.195511,128.077759 
	C159.442474,128.077759 143.971237,128.077759 127.500000,128.077744 
M302.544708,220.789841 
	C309.856903,220.568237 317.181885,220.517227 324.469757,219.970978 
	C325.813995,219.870209 328.063934,217.801865 328.105835,216.580292 
	C328.470734,205.937378 328.540863,195.278885 328.390991,184.629349 
	C328.366882,182.916122 327.226044,180.730698 325.888214,179.631775 
	C323.551422,177.712265 320.660706,176.467117 317.554504,174.682159 
	C316.113129,180.319839 310.709564,178.620682 306.180847,178.752472 
	C301.648926,178.884338 296.381042,180.414597 294.836884,174.740143 
	C291.681000,176.383133 288.785675,177.650742 286.181458,179.361465 
	C285.104431,180.068985 284.054077,181.704361 284.008331,182.954971 
	C283.619141,193.587784 283.350525,204.228683 283.304169,214.868271 
	C283.289001,218.344070 285.331818,220.239975 289.085419,220.239395 
	C293.244751,220.238739 297.404175,220.570770 302.544708,220.789841 
M250.489563,235.026566 
	C253.636047,235.026566 256.782532,235.026566 259.744568,235.026566 
	C260.226135,236.944412 260.617432,238.502655 261.411835,241.666061 
	C265.537109,237.981659 268.861481,235.012558 272.901031,231.404709 
	C270.228027,229.062439 268.069183,226.999130 265.720917,225.180420 
	C264.411804,224.166534 262.787598,223.559525 261.305359,222.769150 
	C260.715210,224.434906 260.125031,226.100662 259.252655,228.562912 
	C251.281845,228.562912 242.724075,228.562912 234.332092,228.562912 
	C234.332092,245.798920 234.332092,262.350952 234.332092,278.819489 
	C236.487900,278.819489 238.283356,278.819489 240.599411,278.819489 
	C240.599411,264.230835 240.599411,249.836731 240.599411,235.026566 
	C243.913635,235.026566 246.710861,235.026566 250.489563,235.026566 
M170.350998,238.127975 
	C171.669540,239.041351 172.988083,239.954727 174.956879,241.318542 
	C175.471191,238.768311 175.832214,236.978134 176.162003,235.342926 
	C182.589508,235.342926 188.853088,235.342926 195.577911,235.342926 
	C195.577911,250.031967 195.577911,264.424957 195.577911,279.039001 
	C196.866791,279.039001 197.685928,279.092834 198.494858,279.024933 
	C199.435806,278.945953 200.367813,278.760345 201.214462,278.634338 
	C201.214462,261.767944 201.214462,245.236954 201.214462,228.258316 
	C192.426392,228.258316 184.303864,228.258316 176.165649,228.258316 
	C175.905151,226.310715 175.703659,224.804306 175.270630,221.566849 
	C170.871597,225.361511 167.424255,228.335236 163.679596,231.565430 
	C166.087921,233.947479 167.961044,235.800156 170.350998,238.127975 
M165.280807,161.481110 
	C165.156021,162.242554 164.647476,163.385025 164.966248,163.706085 
	C167.921478,166.682571 171.019257,169.517517 175.158371,173.412338 
	C175.529465,169.807068 175.725128,167.906128 175.932358,165.892746 
	C182.963089,165.892746 189.952240,165.841400 196.939987,165.917313 
	C199.849319,165.948883 201.842697,165.273056 201.715851,161.810089 
	C201.180023,147.181564 200.695053,132.551178 200.164612,117.922447 
	C200.148071,117.466492 199.836975,117.021233 199.573273,116.337990 
	C198.153839,116.707367 196.810135,117.057037 195.106506,117.500374 
	C195.106506,131.494400 195.106506,145.241501 195.106506,159.140701 
	C188.567825,159.140701 182.480408,159.140701 176.277542,159.140701 
	C175.944000,157.372437 175.649765,155.812561 175.035950,152.558502 
	C171.370300,155.893829 168.559875,158.451004 165.280807,161.481110 
M263.629944,170.490265 
	C266.525909,167.894073 269.421875,165.297882 272.634979,162.417404 
	C268.619751,159.133438 265.145325,156.291779 260.945862,152.857117 
	C260.350952,155.930054 260.025299,157.612122 259.729553,159.139862 
	C253.254547,159.139862 247.168976,159.139862 240.282074,159.139862 
	C240.282074,144.811081 240.282074,130.763702 240.282074,116.451355 
	C238.062668,116.451355 236.650177,116.451355 234.608459,116.451355 
	C234.608459,132.986908 234.608459,149.307068 234.608459,165.887817 
	C243.050034,165.887817 251.338470,165.887817 258.313660,165.887817 
	C260.346313,168.072342 261.641510,169.464325 263.629944,170.490265 
M334.366028,193.710312 
	C334.366028,198.313934 334.366028,202.917572 334.366028,207.950790 
	C336.524811,207.610123 338.103088,207.361053 340.015656,207.059219 
	C340.015656,201.816376 339.987976,196.861237 340.024628,191.906555 
	C340.052673,188.115799 338.078247,187.078568 334.366211,187.717865 
	C334.366211,189.508667 334.366211,191.149261 334.366028,193.710312 
z"/>
<path fill="#050255" opacity="1.000000" stroke="none" 
	d="
M632.459229,307.758972 
	C631.988342,315.148132 628.531067,319.303619 622.669128,319.992859 
	C615.894409,320.789398 611.332886,317.739838 609.632812,310.571594 
	C607.681213,302.343292 607.791809,294.040955 610.872803,286.050018 
	C613.963379,278.034058 622.677612,274.482666 630.532532,278.045593 
	C631.543335,278.504089 632.349731,280.538818 632.375366,281.860321 
	C632.539612,290.334839 632.459412,298.814056 632.459229,307.758972 
z"/>
<path fill="#0A0758" opacity="1.000000" stroke="none" 
	d="
M824.662170,294.414001 
	C823.186401,293.973480 821.266602,293.568817 821.185059,292.929718 
	C820.254456,285.632660 827.429260,276.764740 834.346497,277.066406 
	C836.724731,277.170135 839.854492,278.646545 841.157654,280.524933 
	C843.219727,283.497223 842.414795,287.625122 839.251587,289.302368 
	C834.867188,291.627167 829.829834,292.720398 824.662170,294.414001 
z"/>
<path fill="#FDB42F" opacity="1.000000" stroke="none" 
	d="
M156.999405,207.104584 
	C136.533630,207.102448 116.567810,207.102448 96.302734,207.102448 
	C96.302734,200.388611 96.302734,194.310501 96.302734,187.874786 
	C122.515060,187.874786 148.712540,187.874786 175.165756,187.874786 
	C175.358505,189.806137 175.535492,191.579529 175.736755,193.596191 
	C181.063690,193.596191 186.289780,193.596191 191.384979,193.596191 
	C196.855652,178.129196 205.388153,170.756989 217.728363,170.581863 
	C230.044510,170.407104 238.579269,177.702438 244.555710,193.710327 
	C249.384109,193.710327 254.323166,193.710327 259.572479,193.710327 
	C259.729095,191.862473 259.879211,190.091278 260.063049,187.922195 
	C265.613495,187.922195 271.162933,187.922195 277.100098,187.922195 
	C277.100098,194.143143 277.100098,200.382996 277.100098,207.053955 
	C271.643066,207.053955 266.089264,207.053955 260.164001,207.053955 
	C259.973541,205.113068 259.770294,203.042099 259.482513,200.109863 
	C253.958847,200.109863 248.498077,200.081406 243.037796,200.120605 
	C239.792114,200.143890 238.426758,198.632248 237.918121,195.377731 
	C236.101349,183.752914 228.306488,176.847366 217.462082,176.873077 
	C207.455505,176.896805 199.572723,184.209122 198.004517,195.269867 
	C197.538696,198.555298 196.002487,200.040405 192.850479,200.057449 
	C187.545486,200.086121 182.240234,200.065323 176.690002,200.065323 
	C176.344803,202.709457 176.093979,204.630600 175.770721,207.106735 
	C169.723206,207.106735 163.611282,207.106735 156.999405,207.104584 
z"/>
<path fill="#FBB230" opacity="1.000000" stroke="none" 
	d="
M314.000000,148.054260 
	C295.889648,148.052429 278.279266,148.052429 260.284607,148.052429 
	C260.284607,141.233597 260.284607,134.994720 260.284607,128.453644 
	C286.305267,128.453644 312.362122,128.453644 338.795532,128.453644 
	C338.795532,134.830322 338.795532,141.200974 338.795532,148.056107 
	C330.694885,148.056107 322.597443,148.056107 314.000000,148.054260 
z"/>
<path fill="#FFB52F" opacity="1.000000" stroke="none" 
	d="
M120.999985,266.124329 
	C112.540840,266.124359 104.581688,266.124359 96.319473,266.124359 
	C96.319473,259.776398 96.319473,253.706726 96.319473,247.302505 
	C122.431183,247.302505 148.602356,247.302505 175.123657,247.302505 
	C175.123657,253.349350 175.123657,259.402893 175.123657,266.124329 
	C157.302719,266.124329 139.401352,266.124329 120.999985,266.124329 
z"/>
<path fill="#FFB52F" opacity="1.000000" stroke="none" 
	d="
M282.000061,246.972076 
	C301.134277,246.972076 319.768555,246.972076 338.785126,246.972076 
	C338.785126,253.217926 338.785126,259.282104 338.785126,265.737671 
	C312.813293,265.737671 286.629761,265.737671 260.156433,265.737671 
	C260.156433,259.684570 260.156433,253.617493 260.156433,246.972076 
	C267.294037,246.972076 274.397095,246.972076 282.000061,246.972076 
z"/>
<path fill="#FDB32F" opacity="1.000000" stroke="none" 
	d="
M128.000000,128.077759 
	C143.971237,128.077759 159.442474,128.077759 175.195511,128.077759 
	C175.195511,134.487823 175.195511,140.560745 175.195511,146.983139 
	C149.207870,146.983139 123.313011,146.983139 96.752861,146.983139 
	C96.437904,140.852600 96.125748,134.776535 95.781601,128.077744 
	C106.635925,128.077744 117.067963,128.077744 128.000000,128.077759 
z"/>
<path fill="#F6AF30" opacity="1.000000" stroke="none" 
	d="
M302.054138,220.773880 
	C297.404175,220.570770 293.244751,220.238739 289.085419,220.239395 
	C285.331818,220.239975 283.289001,218.344070 283.304169,214.868271 
	C283.350525,204.228683 283.619141,193.587784 284.008331,182.954971 
	C284.054077,181.704361 285.104431,180.068985 286.181458,179.361465 
	C288.785675,177.650742 291.681000,176.383133 294.836884,174.740143 
	C296.381042,180.414597 301.648926,178.884338 306.180847,178.752472 
	C310.709564,178.620682 316.113129,180.319839 317.554504,174.682159 
	C320.660706,176.467117 323.551422,177.712265 325.888214,179.631775 
	C327.226044,180.730698 328.366882,182.916122 328.390991,184.629349 
	C328.540863,195.278885 328.470734,205.937378 328.105835,216.580292 
	C328.063934,217.801865 325.813995,219.870209 324.469757,219.970978 
	C317.181885,220.517227 309.856903,220.568237 302.054138,220.773880 
M324.408966,193.254608 
	C323.632385,192.559860 322.862610,191.268921 322.078186,191.259949 
	C310.661774,191.129379 299.243408,191.170349 287.154205,191.170349 
	C287.154205,199.225998 287.031677,206.505722 287.290009,213.771912 
	C287.327576,214.828293 289.170410,216.688583 290.205719,216.708176 
	C301.473022,216.921356 312.745850,216.841522 324.544891,216.841522 
	C324.544891,209.016663 324.544891,201.581543 324.408966,193.254608 
z"/>
<path fill="#F0AA31" opacity="1.000000" stroke="none" 
	d="
M249.998840,235.026566 
	C246.710861,235.026566 243.913635,235.026566 240.599411,235.026566 
	C240.599411,249.836731 240.599411,264.230835 240.599411,278.819489 
	C238.283356,278.819489 236.487900,278.819489 234.332092,278.819489 
	C234.332092,262.350952 234.332092,245.798920 234.332092,228.562912 
	C242.724075,228.562912 251.281845,228.562912 259.252655,228.562912 
	C260.125031,226.100662 260.715210,224.434906 261.305359,222.769150 
	C262.787598,223.559525 264.411804,224.166534 265.720917,225.180420 
	C268.069183,226.999130 270.228027,229.062439 272.901031,231.404709 
	C268.861481,235.012558 265.537109,237.981659 261.411835,241.666061 
	C260.617432,238.502655 260.226135,236.944412 259.744568,235.026566 
	C256.782532,235.026566 253.636047,235.026566 249.998840,235.026566 
z"/>
<path fill="#E8A532" opacity="1.000000" stroke="none" 
	d="
M170.092590,237.890411 
	C167.961044,235.800156 166.087921,233.947479 163.679596,231.565430 
	C167.424255,228.335236 170.871597,225.361511 175.270630,221.566849 
	C175.703659,224.804306 175.905151,226.310715 176.165649,228.258316 
	C184.303864,228.258316 192.426392,228.258316 201.214462,228.258316 
	C201.214462,245.236954 201.214462,261.767944 201.214462,278.634338 
	C200.367813,278.760345 199.435806,278.945953 198.494858,279.024933 
	C197.685928,279.092834 196.866791,279.039001 195.577911,279.039001 
	C195.577911,264.424957 195.577911,250.031967 195.577911,235.342926 
	C188.853088,235.342926 182.589508,235.342926 176.162003,235.342926 
	C175.832214,236.978134 175.471191,238.768311 174.956879,241.318542 
	C172.988083,239.954727 171.669540,239.041351 170.092590,237.890411 
z"/>
<path fill="#E7A432" opacity="1.000000" stroke="none" 
	d="
M165.515121,161.244644 
	C168.559875,158.451004 171.370300,155.893829 175.035950,152.558502 
	C175.649765,155.812561 175.944000,157.372437 176.277542,159.140701 
	C182.480408,159.140701 188.567825,159.140701 195.106506,159.140701 
	C195.106506,145.241501 195.106506,131.494400 195.106506,117.500374 
	C196.810135,117.057037 198.153839,116.707367 199.573273,116.337990 
	C199.836975,117.021233 200.148071,117.466492 200.164612,117.922447 
	C200.695053,132.551178 201.180023,147.181564 201.715851,161.810089 
	C201.842697,165.273056 199.849319,165.948883 196.939987,165.917313 
	C189.952240,165.841400 182.963089,165.892746 175.932358,165.892746 
	C175.725128,167.906128 175.529465,169.807068 175.158371,173.412338 
	C171.019257,169.517517 167.921478,166.682571 164.966248,163.706085 
	C164.647476,163.385025 165.156021,162.242554 165.515121,161.244644 
z"/>
<path fill="#F3AC31" opacity="1.000000" stroke="none" 
	d="
M263.283325,170.673279 
	C261.641510,169.464325 260.346313,168.072342 258.313660,165.887817 
	C251.338470,165.887817 243.050034,165.887817 234.608459,165.887817 
	C234.608459,149.307068 234.608459,132.986908 234.608459,116.451355 
	C236.650177,116.451355 238.062668,116.451355 240.282074,116.451355 
	C240.282074,130.763702 240.282074,144.811081 240.282074,159.139862 
	C247.168976,159.139862 253.254547,159.139862 259.729553,159.139862 
	C260.025299,157.612122 260.350952,155.930054 260.945862,152.857117 
	C265.145325,156.291779 268.619751,159.133438 272.634979,162.417404 
	C269.421875,165.297882 266.525909,167.894073 263.283325,170.673279 
z"/>
<path fill="#E19F33" opacity="1.000000" stroke="none" 
	d="
M334.366119,193.250092 
	C334.366211,191.149261 334.366211,189.508667 334.366211,187.717865 
	C338.078247,187.078568 340.052673,188.115799 340.024628,191.906555 
	C339.987976,196.861237 340.015656,201.816376 340.015656,207.059219 
	C338.103088,207.361053 336.524811,207.610123 334.366028,207.950790 
	C334.366028,202.917572 334.366028,198.313934 334.366119,193.250092 
z"/>
<path fill="#0C0752" opacity="1.000000" stroke="none" 
	d="
M324.476929,193.700531 
	C324.544891,201.581543 324.544891,209.016663 324.544891,216.841522 
	C312.745850,216.841522 301.473022,216.921356 290.205719,216.708176 
	C289.170410,216.688583 287.327576,214.828293 287.290009,213.771912 
	C287.031677,206.505722 287.154205,199.225998 287.154205,191.170349 
	C299.243408,191.170349 310.661774,191.129379 322.078186,191.259949 
	C322.862610,191.268921 323.632385,192.559860 324.476929,193.700531 
M302.176361,204.162674 
	C301.637634,203.773438 301.150665,203.226288 300.549011,203.029099 
	C299.425507,202.660873 298.235413,202.495941 297.073029,202.246414 
	C297.382477,203.501160 297.367767,204.989075 298.068054,205.962708 
	C299.583649,208.069855 301.465424,209.913589 303.603424,212.322495 
	C308.308838,206.916504 312.324982,202.302399 316.341125,197.688309 
	C315.887268,197.184464 315.433441,196.680634 314.979614,196.176804 
	C312.618439,197.965790 310.301727,199.817978 307.880524,201.521652 
	C306.253937,202.666199 304.479431,203.600540 302.176361,204.162674 
z"/>
<path fill="#EEA931" opacity="1.000000" stroke="none" 
	d="
M302.473755,204.395782 
	C304.479431,203.600540 306.253937,202.666199 307.880524,201.521652 
	C310.301727,199.817978 312.618439,197.965790 314.979614,196.176804 
	C315.433441,196.680634 315.887268,197.184464 316.341125,197.688309 
	C312.324982,202.302399 308.308838,206.916504 303.603424,212.322495 
	C301.465424,209.913589 299.583649,208.069855 298.068054,205.962708 
	C297.367767,204.989075 297.382477,203.501160 297.073029,202.246414 
	C298.235413,202.495941 299.425507,202.660873 300.549011,203.029099 
	C301.150665,203.226288 301.637634,203.773438 302.473755,204.395782 
z"/>
</svg>