<svg version="1.1" id="Layer_1" xmlns="http://www.w3.org/2000/svg" xmlns:xlink="http://www.w3.org/1999/xlink" x="0px" y="0px"
	 width="100%" viewBox="0 0 1024 576" enable-background="new 0 0 1024 576" xml:space="preserve">
<path fill="#000000" opacity="1.000000" stroke="none" 
	d="
M1025.000000,338.531342 
	C1007.719543,329.090271 992.265930,316.706757 977.211792,303.773071 
	C970.231506,297.776062 968.743469,297.668091 961.981873,303.711609 
	C936.954895,326.080505 909.143005,344.224670 878.854553,358.576050 
	C853.357605,370.657074 826.924194,380.200531 799.593140,387.278046 
	C794.911926,388.490265 792.320679,387.410950 791.095764,382.610352 
	C787.557861,368.745026 783.719238,354.955322 780.293945,341.063110 
	C779.181458,336.551331 776.869751,335.502716 772.705994,336.538116 
	C758.323730,340.114380 743.916626,343.590576 729.519836,347.108643 
	C728.225159,347.425018 726.947510,347.817688 725.644531,348.092255 
	C717.514160,349.805420 716.251892,348.953857 714.109009,340.865723 
	C710.783936,328.315704 707.401855,315.780518 703.981201,303.256195 
	C702.299377,297.098358 701.429565,296.572693 695.136780,298.143616 
	C645.532227,310.526978 600.712708,332.354523 561.929138,365.968048 
	C547.805359,378.209167 535.122070,391.890900 523.024353,406.103882 
	C515.304138,415.173981 514.048157,415.498840 506.251801,406.888306 
	C492.040863,391.193268 477.563080,375.795135 461.402435,362.051605 
	C449.184021,351.660645 436.116516,342.509521 422.298553,334.383118 
	C400.958069,321.832794 378.337006,312.181488 354.861023,304.475311 
	C348.378448,302.347351 341.813538,300.437225 335.210724,298.717834 
	C328.359894,296.933807 325.143433,298.748260 323.341034,305.569275 
	C320.195557,317.472839 317.225830,329.425751 314.385529,341.406128 
	C312.472931,349.473663 312.333008,349.830811 304.537872,347.970978 
	C289.311584,344.338287 274.108276,340.604401 258.934021,336.760284 
	C250.494385,334.622223 248.672897,335.367279 246.335754,343.810425 
	C243.051941,355.673431 240.002472,367.602600 236.968307,379.532898 
	C235.233322,386.354858 233.851135,387.368744 227.294189,385.763397 
	C175.535980,373.091583 127.826118,351.725403 85.327538,319.311157 
	C77.519981,313.356232 70.050697,306.938385 62.654572,300.471954 
	C59.119453,297.381226 56.172279,297.155151 52.654556,300.305237 
	C40.360168,311.314758 27.493517,321.595734 13.784255,330.823425 
	C9.455383,333.737244 3.912666,335.186768 1.205604,340.735291 
	C1.000000,314.645782 1.000000,288.291534 1.000000,261.468658 
	C3.225364,263.714966 5.340111,262.426910 7.475750,260.845276 
	C13.262482,256.559662 18.187733,251.335129 23.192249,246.222961 
	C33.444504,235.750122 43.627537,225.206284 53.661804,214.525146 
	C56.878510,211.101074 59.285069,211.465347 62.336613,214.650726 
	C72.819557,225.593445 82.746368,237.048004 93.492676,247.754990 
	C124.489975,278.638794 161.231049,300.268341 201.876038,315.705383 
	C213.400482,320.082397 225.150879,323.786133 237.052124,326.987518 
	C243.694336,328.774231 245.836258,327.726959 247.668823,320.991211 
	C251.162048,308.151520 254.307373,295.216644 257.545715,282.308380 
	C259.167023,275.845642 260.062958,275.213440 266.534180,276.773193 
	C279.801910,279.971069 293.073517,283.155731 306.308838,286.483704 
	C309.836121,287.370605 313.264984,288.682434 316.689972,289.933502 
	C320.540192,291.339905 322.585114,289.888824 323.839233,286.170502 
	C327.943604,274.001892 330.774811,261.494598 333.723328,249.030441 
	C336.443420,237.532211 336.430939,237.257019 347.862732,240.299164 
	C395.751678,253.043137 440.688141,272.267731 480.893280,301.634613 
	C489.760284,308.111267 498.012146,315.423615 506.718292,322.129028 
	C513.583923,327.416840 515.327576,327.278809 521.826172,321.594879 
	C564.711487,284.085907 614.144897,258.874847 668.716003,243.307877 
	C674.149536,241.757919 679.624207,240.342575 685.111145,238.992142 
	C689.002563,238.034393 691.245544,239.339005 692.273315,243.583206 
	C695.603394,257.334869 699.274963,271.003906 702.823242,284.702637 
	C704.465088,291.041229 705.323853,291.579285 711.436096,290.002991 
	C727.393372,285.887756 743.346191,281.755371 759.299683,277.625366 
	C765.729980,275.960693 767.192505,276.816986 768.928467,283.245056 
	C772.614136,296.892334 775.465088,310.751221 779.541626,324.305634 
	C780.970947,329.058044 783.236145,330.085083 787.923706,328.760864 
	C833.670654,315.837555 876.704895,297.433105 913.864319,267.029480 
	C927.436340,255.924973 939.401306,243.156052 951.449219,230.476486 
	C956.266602,225.406403 961.229370,220.472183 965.970764,215.332901 
	C968.776978,212.291183 971.099731,212.489807 973.910156,215.363724 
	C986.136658,227.866348 997.319763,241.362534 1010.065247,253.364990 
	C1014.654724,257.686920 1018.771240,262.572327 1024.686035,265.864990 
	C1025.000000,290.020905 1025.000000,314.041779 1025.000000,338.531342 
z"/>
<path fill="#000000" opacity="1.000000" stroke="none" 
	d="
M1025.000000,192.531342 
	C1007.000488,181.784805 990.103577,169.089676 974.469604,154.770950 
	C970.458923,151.097702 967.642761,152.331329 964.230347,155.413879 
	C944.868774,172.903839 923.655396,187.800323 900.976868,200.701782 
	C872.128479,217.113220 841.323364,228.674316 809.682251,238.244736 
	C806.176147,239.305222 802.598450,240.151184 799.143616,241.353958 
	C794.611572,242.931732 792.157104,241.240417 791.072388,236.826904 
	C789.285217,229.554749 787.481689,222.286453 785.646240,215.026352 
	C784.055420,208.733917 782.348755,202.470276 780.807495,196.165970 
	C779.308228,190.033112 778.010071,188.941833 771.704041,190.442001 
	C759.231445,193.409180 746.828491,196.670395 734.401917,199.830154 
	C730.850891,200.733093 727.331055,201.761078 723.772888,202.633255 
	C717.452271,204.182541 715.380493,203.113632 714.168701,196.871613 
	C711.818054,184.762772 708.105774,173.010971 705.168091,161.058685 
	C705.048889,160.573624 704.903259,160.095108 704.775208,159.612152 
	C702.203369,149.910095 701.680359,149.652191 692.185425,152.231674 
	C659.041809,161.235825 627.404236,173.834274 598.396729,192.393768 
	C576.140991,206.633362 555.961060,223.442856 538.213623,243.104340 
	C531.631287,250.396622 524.768066,257.434875 518.150940,264.696472 
	C515.037415,268.113220 512.307983,268.447144 509.085968,264.806610 
	C499.931335,254.462708 490.949402,243.940979 481.348816,234.022232 
	C464.231293,216.337387 444.653564,201.833771 423.525604,189.118668 
	C396.452362,172.825546 367.505493,161.353043 337.335693,152.559494 
	C327.130859,149.585098 325.510132,150.162125 322.634338,160.223129 
	C319.159973,172.378250 316.234161,184.690109 313.069214,196.933701 
	C311.485779,203.059128 310.940094,203.511627 304.798767,201.959167 
	C289.950836,198.205704 275.112610,194.407227 260.323853,190.428635 
	C250.602203,187.813248 248.331161,188.970688 245.729111,198.791046 
	C242.531799,210.857925 239.225876,222.898254 236.230301,235.015198 
	C235.105057,239.566711 233.159439,240.782990 228.437576,239.612656 
	C170.175110,225.172348 117.036942,200.495224 71.038612,161.412750 
	C67.993538,158.825500 64.970108,156.202118 62.084133,153.441330 
	C59.266235,150.745667 56.590012,150.801514 53.720474,153.256485 
	C48.536068,157.691925 43.353210,162.130203 38.110889,166.496704 
	C26.569466,176.109909 13.906536,184.154266 1.250070,192.778076 
	C1.000000,168.312439 1.000000,143.624878 1.000000,118.468658 
	C4.520610,117.925873 6.725152,115.372688 9.005254,113.339584 
	C23.440487,100.468018 36.793480,86.516014 49.616043,72.048645 
	C57.670525,62.960972 57.955570,62.975914 66.070831,72.069756 
	C83.488014,91.587204 100.919052,111.002205 122.307358,126.517616 
	C156.570312,151.372543 194.267792,168.770370 234.868057,180.204514 
	C236.466415,180.654648 238.146545,180.823166 239.732498,181.306808 
	C243.984818,182.603531 246.438629,180.964523 247.564560,176.818085 
	C250.921570,164.455215 254.310959,152.101166 257.689056,139.744019 
	C258.259827,137.656174 258.819824,135.565155 259.415924,133.484512 
	C260.230560,130.641083 261.903229,129.384598 265.009583,130.100082 
	C280.254364,133.611313 295.441803,137.337234 310.441040,141.798264 
	C310.919647,141.940613 311.380737,142.141998 311.859467,142.283875 
	C321.691071,145.197510 322.784943,144.591782 325.432953,134.696457 
	C328.789093,122.154877 332.168671,109.619347 335.455017,97.059456 
	C336.420013,93.371376 337.732574,91.191696 342.353760,92.382591 
	C394.505920,105.822380 443.143616,126.780205 486.297150,159.462280 
	C493.590912,164.986221 500.481079,171.050140 507.464813,176.974136 
	C513.022339,181.688293 514.938904,181.767670 520.649902,176.551987 
	C534.965149,163.478149 550.494019,152.040390 566.955261,141.829483 
	C597.133667,123.109741 629.299988,108.882515 663.296204,98.642967 
	C670.300903,96.533157 677.217590,94.094490 684.309570,92.271797 
	C689.621460,90.906586 691.085266,91.855927 692.468872,97.248573 
	C695.778564,110.148277 699.009521,123.068161 702.311340,135.969894 
	C704.426331,144.234268 704.906799,144.690216 713.254944,142.696335 
	C727.655457,139.256927 741.983337,135.513596 756.343262,131.904053 
	C757.796692,131.538712 759.246155,131.122482 760.722717,130.890656 
	C766.433594,129.993881 767.751831,130.868530 769.203430,136.509689 
	C772.603638,149.724289 775.864624,162.976059 779.409424,176.151581 
	C781.329163,183.287109 782.768921,183.697235 789.784363,181.723877 
	C810.957886,175.767990 831.653748,168.577148 851.720764,159.495926 
	C889.866821,142.233093 921.651367,116.575798 949.859253,86.073105 
	C955.286804,80.204018 960.964478,74.565651 966.366516,68.673882 
	C968.828735,65.988388 970.708801,65.971550 973.421692,68.469917 
	C981.049438,75.494591 987.356995,83.698051 994.358643,91.276611 
	C1003.734253,101.424881 1013.122620,111.560982 1024.686157,119.866577 
	C1025.000000,144.020889 1025.000000,168.041794 1025.000000,192.531342 
z"/>
<path fill="#000000" opacity="1.000000" stroke="none" 
	d="
M1.000000,399.468658 
	C3.923445,400.665527 5.681807,398.522308 7.531643,396.924133 
	C21.048809,385.245728 33.314144,372.323303 45.149963,358.975769 
	C47.360657,356.482727 49.561649,353.978119 51.851822,351.559082 
	C56.236298,346.927887 57.657009,346.832062 61.949780,351.403290 
	C69.132439,359.051880 75.999283,367.001862 83.293976,374.539551 
	C105.896675,397.895203 130.843018,418.217987 159.743546,433.459686 
	C184.317383,446.419617 209.993057,456.432098 236.948944,463.122589 
	C243.751434,464.810944 245.377090,464.020691 247.189423,457.401184 
	C250.617081,444.881775 253.714783,432.269562 256.786194,419.656097 
	C258.460144,412.781647 259.517548,411.856903 266.389526,413.507172 
	C283.052795,417.508881 299.720978,421.501587 316.305634,425.811676 
	C320.852600,426.993347 322.941681,426.007507 324.263855,421.421936 
	C327.767853,409.269714 330.948914,397.042267 333.863373,384.740234 
	C334.208832,383.282104 334.685791,381.850189 334.951050,380.378937 
	C335.830475,375.501160 338.580566,374.252380 343.267700,375.416260 
	C358.636902,379.232697 373.751587,383.838104 388.615326,389.295441 
	C431.417755,405.010773 470.428314,427.194550 504.823517,457.279144 
	C506.451569,458.703125 508.213348,459.973511 509.901276,461.329865 
	C512.633301,463.525146 515.433411,463.474426 518.133728,461.392731 
	C521.033203,459.157440 523.884705,456.849487 526.641418,454.440796 
	C555.536499,429.193237 588.344299,410.361450 623.546082,395.518097 
	C642.898987,387.357727 662.838379,380.863464 683.183838,375.652802 
	C689.843933,373.947113 691.047363,374.672333 692.754456,381.208801 
	C696.245300,394.575226 699.751770,407.940674 702.959656,421.376282 
	C704.069885,426.026306 706.122131,427.219513 710.754578,426.026581 
	C726.705444,421.918793 742.728210,418.085632 758.753601,414.273956 
	C765.889038,412.576782 767.075989,413.302551 769.027588,420.398956 
	C772.558350,433.237854 775.838684,446.146088 779.421509,458.970062 
	C781.365479,465.927826 781.596436,466.044403 788.383057,464.363770 
	C851.315063,448.779236 905.578674,418.440918 949.063110,369.793671 
	C954.280823,363.956451 959.528015,358.143585 964.863159,352.414093 
	C968.743469,348.247009 970.302429,348.183685 974.206848,352.398560 
	C987.675476,366.938049 1000.820312,381.791687 1015.707336,394.940094 
	C1018.382751,397.303070 1020.509705,400.528076 1024.723633,401.073792 
	C1025.000000,425.354218 1025.000000,449.708466 1025.000000,474.531342 
	C1012.552979,468.469299 1001.502380,459.906738 990.542969,451.225800 
	C986.107422,447.712433 981.835144,443.993011 977.487488,440.368683 
	C970.800171,434.793884 968.743896,434.610535 961.939209,440.286377 
	C948.500671,451.495575 934.967041,462.576721 920.191772,472.000092 
	C885.959839,493.832550 849.179321,509.914062 809.979309,520.475220 
	C806.441833,521.428284 802.877441,522.310242 799.401550,523.455811 
	C795.000671,524.906128 792.716309,523.802856 791.543213,518.977112 
	C788.164185,505.076508 784.315613,491.290436 780.707581,477.444763 
	C779.093262,471.249908 778.854187,470.813110 772.517700,472.377991 
	C756.675415,476.290344 740.915649,480.535400 725.093140,484.529480 
	C717.765808,486.379059 716.534668,485.612610 714.531006,478.185608 
	C711.151123,465.657532 707.869995,453.102478 704.603455,440.544189 
	C702.577515,432.755463 701.730774,432.062500 693.853699,434.259277 
	C645.816467,447.655945 601.305786,468.084015 563.205811,500.894989 
	C550.959351,511.441437 540.084839,523.450928 529.011475,535.217163 
	C525.245667,539.218689 521.491699,543.216309 517.260437,546.764648 
	C514.356262,549.200073 511.994629,548.997925 509.486603,546.332947 
	C504.578644,541.117737 499.448975,536.103821 494.679962,530.766296 
	C468.184937,501.112732 437.500397,477.097809 401.566406,459.706940 
	C381.094513,449.799164 359.892883,442.076477 338.220001,435.449463 
	C336.789185,435.011963 335.334290,434.614838 333.863098,434.354218 
	C327.404938,433.209991 325.256104,434.315582 323.614349,440.621460 
	C320.177307,453.822754 316.843597,467.058197 313.879822,480.371399 
	C312.891632,484.810333 311.054688,486.493011 306.724854,485.178925 
	C290.634247,480.295471 273.845581,478.116455 257.934540,472.519531 
	C250.185516,469.793732 247.885666,471.027802 245.736740,479.121460 
	C242.322006,491.982513 238.915771,504.850281 235.839920,517.794556 
	C234.705093,522.570496 232.447205,523.429504 227.977829,522.328796 
	C196.633881,514.609253 166.554749,503.532654 137.708984,489.042328 
	C111.199348,475.725525 87.135216,458.867462 64.785194,439.434082 
	C57.244881,432.877808 56.642429,433.157776 48.927032,439.634094 
	C33.866364,452.276123 18.550785,464.590088 1.308007,474.855682 
	C1.000000,449.979095 1.000000,424.958221 1.000000,399.468658 
z"/>
<path fill="#000000" opacity="1.000000" stroke="none" 
	d="
M1025.000000,46.531342 
	C1013.614380,38.880630 1001.744995,31.436071 990.994019,22.430773 
	C985.121155,17.511438 978.954163,12.930603 973.249268,7.828687 
	C970.435669,5.312537 968.687195,5.153131 965.735840,7.695700 
	C947.161926,23.696980 927.858398,38.737995 906.621277,51.130421 
	C873.294983,70.577148 837.807312,84.681671 800.403992,94.015144 
	C793.271362,95.795006 793.214722,95.653557 791.311401,88.452103 
	C787.738831,74.935089 784.103333,61.433624 780.685486,47.877415 
	C779.586609,43.518818 777.888977,41.798992 773.002502,43.171753 
	C757.134338,47.629604 741.129822,51.599594 725.201660,55.847046 
	C718.020569,57.761974 716.359497,57.006821 714.604614,49.733822 
	C711.363647,36.301994 707.987671,22.908842 703.939148,9.695877 
	C702.129639,3.790582 700.816650,2.942576 694.882996,4.668951 
	C655.810669,16.036764 618.320496,30.846062 584.910278,54.739891 
	C566.779419,67.706429 550.762817,82.910469 535.707397,99.237595 
	C529.835693,105.605301 523.688049,111.718788 517.827820,118.096703 
	C514.674683,121.528374 512.085571,121.113434 509.102722,117.908791 
	C499.684448,107.790329 490.643524,97.334572 480.959320,87.448143 
	C447.015320,52.795238 406.446655,29.116920 360.696960,13.725453 
	C350.908264,10.432269 341.096130,7.255454 331.215210,4.265527 
	C327.290070,3.077791 325.201141,3.856728 324.191650,8.326909 
	C321.039368,22.286137 317.407715,36.136364 314.070862,50.054981 
	C312.544220,56.422840 311.413879,57.125015 305.101074,55.552242 
	C292.334259,52.371532 279.518829,49.385021 266.761261,46.168476 
	C263.072266,45.238377 259.567108,43.581635 255.879959,42.640995 
	C250.229126,41.199379 248.735504,42.052864 247.054184,47.583927 
	C243.180099,60.328621 240.056564,73.270729 237.066910,86.248695 
	C235.231979,94.214134 234.496964,94.732559 226.492462,92.688278 
	C170.236771,78.320969 118.405472,54.948948 73.640427,17.275864 
	C69.434387,13.736176 65.101753,10.328470 61.103649,6.566424 
	C58.272057,3.902013 56.180557,4.272910 53.433361,6.694849 
	C40.678368,17.939705 27.403246,28.547592 13.435948,38.258316 
	C9.617098,40.913353 5.574286,43.246262 1.317125,45.863503 
	C1.000000,32.645771 1.000000,19.291542 1.301679,5.608234 
	C6.240503,7.421152 7.841153,6.350368 8.000000,1.000000 
	C57.354229,1.000000 106.708458,1.000000 156.659775,1.311535 
	C158.343826,3.706754 160.451584,4.432003 162.339676,5.457675 
	C174.365540,11.990520 186.993744,17.188757 199.712234,22.158360 
	C213.216049,27.434807 227.077042,31.592188 241.173645,34.997189 
	C244.287811,35.749416 245.933365,34.727570 246.826401,31.868008 
	C250.002487,21.697989 252.832596,11.436869 255.000000,1.000000 
	C327.020905,1.000000 399.041779,1.000000 471.595612,1.339008 
	C472.536224,3.257461 473.778870,4.076205 475.010803,4.951348 
	C485.974426,12.739561 496.526550,21.047855 506.694275,29.854813 
	C514.146362,36.309574 514.455444,36.311749 521.852844,29.525930 
	C531.408813,20.760046 541.557068,12.755573 552.183594,5.340753 
	C553.804260,4.209949 555.633911,3.242735 556.000000,1.000000 
	C627.687561,1.000000 699.375122,1.000000 771.453613,1.313527 
	C773.592468,11.816104 777.109375,21.530106 779.797058,31.467276 
	C781.028320,36.019684 783.285461,37.018749 787.825867,35.827679 
	C812.195129,29.434889 835.792358,20.937336 858.496155,10.064861 
	C864.129150,7.367270 870.276978,5.424017 875.000000,1.000000 
	C880.022095,1.000000 885.044189,1.000000 890.364258,1.222412 
	C889.045105,3.493398 890.476074,4.862592 891.854126,6.040066 
	C894.548462,8.342261 897.643982,9.659552 901.277283,9.918055 
	C909.551819,10.506779 916.564148,6.327570 924.072815,4.065821 
	C926.394104,3.366595 925.559265,1.998223 924.000000,1.000000 
	C957.566162,1.000000 991.132324,1.000000 1025.000000,1.000000 
	C1025.000000,16.019550 1025.000000,31.041117 1025.000000,46.531342 
z"/>
<path fill="#000000" opacity="1.000000" stroke="none" 
	d="
M1.000000,546.468628 
	C4.961418,546.181763 7.363267,543.444031 9.909430,541.109924 
	C25.027521,527.250488 39.138454,512.388062 52.967602,497.268372 
	C56.305889,493.618530 58.464100,493.804077 61.826935,497.164978 
	C70.086784,505.420197 77.527031,514.400574 85.388580,523.003906 
	C102.495392,541.724915 122.434898,556.926941 143.688095,570.545044 
	C146.470810,572.328125 149.600204,573.661926 151.850159,576.695190 
	C101.787949,577.000000 51.575890,577.000000 1.000000,577.000000 
	C1.000000,566.982056 1.000000,556.959656 1.000000,546.468628 
z"/>
<path fill="#000000" opacity="1.000000" stroke="none" 
	d="
M876.468628,577.000000 
	C877.234802,575.081238 879.293152,574.214905 881.126099,573.107239 
	C909.795837,555.781494 933.687988,532.906311 956.274170,508.507660 
	C959.555359,504.963165 963.075867,501.616058 966.105164,497.869965 
	C968.648193,494.725067 970.596863,494.769684 973.392273,497.528595 
	C980.397278,504.441956 986.730164,511.957092 993.377991,519.190063 
	C1003.056091,529.720032 1012.618774,540.397583 1024.670654,548.900452 
	C1025.000000,558.310181 1025.000000,567.620422 1025.000000,577.000000 
	C975.645813,577.000000 926.291565,577.000000 876.468628,577.000000 
z"/>
<path fill="#000000" opacity="1.000000" stroke="none" 
	d="
M255.468658,577.000000 
	C256.211365,572.513733 257.519012,568.050598 258.604401,563.534058 
	C259.511383,559.759949 261.253662,558.381348 265.372284,559.443604 
	C280.656433,563.385498 296.092957,566.736084 311.209991,571.327515 
	C311.528198,571.424072 311.848938,571.512451 312.169586,571.600708 
	C322.106995,574.332031 322.893494,573.946655 325.598541,563.977356 
	C328.950226,551.624878 332.158936,539.233643 335.446106,526.863586 
	C337.072510,520.743164 337.445923,520.425110 343.727570,521.969238 
	C370.290283,528.499023 395.953766,537.591125 420.714691,549.223694 
	C436.088165,556.446106 451.018433,564.455444 464.987732,574.166199 
	C465.932343,574.822876 466.724030,575.699585 467.793427,576.736938 
	C397.312439,577.000000 326.624878,577.000000 255.468658,577.000000 
z"/>
<path fill="#000000" opacity="1.000000" stroke="none" 
	d="
M560.468628,577.000000 
	C565.406067,570.580872 573.140015,567.528992 580.077332,563.416626 
	C611.946777,544.524902 646.490417,532.112488 681.943542,521.978699 
	C690.140747,519.635620 691.216736,520.266846 693.249634,528.654968 
	C696.459656,541.900818 699.765686,555.124573 702.818909,568.406433 
	C703.858948,572.930786 705.673157,574.204407 710.454834,572.887512 
	C726.479858,568.473572 742.636230,564.533752 758.759033,560.478699 
	C766.439941,558.546753 767.508240,559.291016 769.383484,567.121094 
	C770.118896,570.191711 770.966431,573.235535 771.881470,576.645752 
	C701.645752,577.000000 631.291565,577.000000 560.468628,577.000000 
z"/>
</svg>